<svg width="160" height="59" viewBox="0 0 160 59" fill="none" xmlns="http://www.w3.org/2000/svg">
<g clip-path="url(#clip0_274_1007)">
<path d="M99.9703 59H90.4568L89.5161 57.7306V57.683H88.459L87.4865 59H77.9731V57.683H76.8738V59H72.7936L71.8475 57.7306V57.683H71.4353V59H67.3445L66.3984 57.7306V57.683H63.3753L63.3171 57.9845L62.4186 58.9577H57.8681L56.9379 57.9951L56.8797 57.6936H53.8566V59.0106H47.9001L47.5513 57.6936H46.3092V59.0106H42.2238L41.2777 57.7412V57.6936H40.2206V59.0106H36.1352L35.1891 57.7412V57.4662L33.371 56.329H33.0116L31.2833 55.4616L30.4271 54.3138L30.0043 53.0286V49.0459L29.3119 48.517H7.40462L7.33062 48.4218H7.30417L1.98196 44.7194L2.29907 44.6083L0.42278 42.0907L0 40.8055V32.8718L2.17222 30.6927H3.88464L3.55166 30.46L2.64262 29.9945L0.391102 26.8687L0 25.5993V6.02958L0.42278 4.74963L2.6532 1.72953L4.38671 0.856819H26.4315L28.1598 1.72424L30.2739 4.58037L30.5645 5.46364V3.09413L32.742 0.915024H56.8375L58.5657 1.793L59.6227 3.20518L60.4578 2.98835L62.5243 0.915024H86.7254L88.4537 1.78771L90.5678 4.64384L90.6365 4.85012L91.3131 5.37903L91.4927 4.85012L93.7284 1.83532L95.462 0.957314H119.557L121.18 2.58637L122.802 0.957314H149.112L150.772 2.6234H151.052L151.152 2.98305L151.29 3.11528V3.4485L152.601 8.05532L152.537 8.12934V15.5341L150.217 18.7869H144.086L144.842 19.8024L145.27 21.0877V23.9967L146.523 25.6786V30.4864L146.28 30.8143H146.898L148.642 31.7029L150.899 34.8341C151.048 35.0928 151.162 35.3703 151.237 35.6592L152.537 40.7473V48.6333H128.574C128.432 48.7343 128.262 48.7879 128.088 48.7867H123.907L122.528 57.4027V57.6566L121.523 59.0053H112.972L112.031 57.7306H111.112L111.561 59.0053H106.482L106.149 57.7306H105.62V59.0053H101.508L100.583 57.7306H99.928L99.9703 59ZM90.7951 58.286H99.2515V56.969H101.366V57.4662L101.936 58.2542H104.965V56.9796H106.735L107.074 58.2542H110.588L110.139 56.9796H112.782V57.4662L113.368 58.2542H121.201L121.851 57.3815V57.2811L123.331 48.0357H128.119C128.137 48.0354 128.155 48.0316 128.171 48.0243C128.188 48.017 128.202 48.0065 128.215 47.9934L128.32 47.8823H151.855V40.7473L150.576 35.7914C150.515 35.5546 150.419 35.3282 150.291 35.1197V35.0562L148.224 32.216L146.787 31.4808H144.911L145.862 30.2008V25.869L144.609 24.1871V21.1564L144.261 20.0986L142.717 18.0359H149.905L151.882 15.2644V7.9125L150.629 3.48023V3.39032L150.576 3.33741V3.27395H150.487L148.853 1.63963H123.141L121.217 3.55958L119.298 1.63963H95.6681L94.241 2.35894L92.1746 5.14631L91.7147 6.53735L90.256 5.4372H90.1239L89.96 4.98764L88.0045 2.34309L86.5774 1.62904H62.8415L61.0868 3.38503V3.64948H60.7538L59.3585 4.01443L58.127 2.34835L56.7 1.62904H33.0486L31.2939 3.38503V9.57859L29.9937 5.92909L29.6396 4.87127L27.6841 2.22671L26.257 1.5074H4.55587L3.12882 2.23201L1.06234 5.01938L0.713494 6.0772V25.4829L1.05705 26.5408L3.1183 29.381L3.94806 29.8094L6.11499 31.3591H2.46816L0.713494 33.1151V40.6521L1.06763 41.7099L3.02314 44.3545L3.87406 44.7829L3.54637 44.8992L7.52088 47.6549H7.68476L7.76398 47.7607H29.2221L29.3331 47.6073L29.6396 47.8188L30.6966 48.6863V52.9175L31.0508 53.9754L31.7326 54.8904L33.1596 55.6044H33.556L35.8815 57.0642V57.4979L36.4734 58.2913H39.486V56.9743H41.9965V57.5032L42.5831 58.2966H45.5958V56.9796H48.101L48.4497 58.2966H53.143V56.9796H57.477L57.6038 57.6566L58.1323 58.2542H62.054L62.5825 57.6566L62.7146 56.9796H67.0485V57.5085L67.6352 58.3018H70.6477V56.9849H72.4923V57.5138L73.0843 58.3071H76.0968V56.9901H78.6232V58.3071H87.0425L87.6768 57.4556V56.9901H90.2348V57.519L90.7951 58.286Z" fill="white"/>
<path d="M26.1832 43.4712H4.3657L2.32031 40.7261V32.9829H16.8336V28.5189H4.47138L2.32031 25.5623V6.04017L4.47138 3.13646H26.3417L28.3871 5.87621V13.6247H13.821V17.9777H26.1832L28.3977 20.9713V40.541L26.1832 43.4712Z" fill="white"/>
<path d="M34.9407 35.3471L32.9006 32.6073V3.24221H56.7635L58.9093 6.14593V25.668L56.7635 28.6246H44.4013V35.3471H34.9407ZM47.4245 13.7305H44.4172V18.1417H47.4245V13.7305Z" fill="white"/>
<path d="M79.2258 35.3471L77.1804 32.6073V24.917H74.173V35.3471H64.7125L62.6724 32.6073V3.24221H86.6409L88.6811 5.98726V35.3471H79.2258ZM77.1804 13.7305H74.173V22.6057H77.1804V13.7305Z" fill="white"/>
<path d="M119.425 35.3471H95.5624L93.4114 32.3905V6.16181L95.5624 3.25809H119.425V10.8427L117.274 13.7464H104.912V24.8535H117.274L119.425 27.8154V35.3471Z" fill="white"/>
<path d="M148.98 43.577H125.012L122.966 40.8372V3.24221H148.98V10.721L146.829 13.7305H134.467V18.1416H140.756L142.96 21.0982V25.668L140.756 28.6246H134.467V33.0886H146.829L148.98 36.0506V43.577Z" fill="white"/>
<path d="M36.6426 53.9912H33.0962L32.3298 52.9598V38.8485H35.8763L36.6426 39.9063V53.9912Z" fill="white"/>
<path d="M50.2995 53.9912H44.9773L42.7575 45.6133V53.9912H39.2058L38.4395 52.9598V38.8485H43.8251L45.9392 47.0043V38.8485H49.5385L50.3048 39.9063L50.2995 53.9912Z" fill="white"/>
<path d="M59.0519 53.9489H54.8237L54.0943 53.1608L51.3936 38.8115H55.0615L55.7908 39.5784L56.9378 45.7349L58.09 39.5784L58.814 38.8115H62.5137L59.8129 53.1608L59.0519 53.9489Z" fill="white"/>
<path d="M69.7494 53.9912L68.983 52.9598V50.0614H67.852V53.9806H64.3003L63.5339 52.9493V38.8485H72.5188L73.2905 39.9063V54.0177L69.7494 53.9912ZM68.983 42.7889H67.852V46.1157H68.983V42.7889Z" fill="white"/>
<path d="M75.1138 53.9912V38.8485H84.0722L84.8756 39.9381V52.9017L84.0722 53.9912H75.1138ZM80.5628 42.7889H79.4318V50.0614H80.5628V42.7889Z" fill="white"/>
<path d="M96.3975 53.9912H87.4126L86.6462 52.9598V38.8485H96.4133V41.657L95.6048 42.7889H90.9643V44.4444H93.3268L94.1513 45.5498V47.2687L93.3268 48.3795H90.9643V50.0614H95.6048L96.4133 51.1721L96.3975 53.9912Z" fill="white"/>
<path d="M103.559 53.9489L102.084 48.3372V53.9489H98.5116L97.7664 52.9228V38.8115H106.751L107.56 39.901V47.2265L106.751 48.3372H105.906L107.882 53.9489H103.559ZM103.215 42.7466H102.084V44.3809H103.215V42.7466Z" fill="white"/>
<path d="M118.141 53.9489H109.954L109.188 52.9228V50.0138H114.632V48.3372H109.991L109.188 47.2265V39.901L109.991 38.8115H118.204L118.971 39.8376V42.7466H113.49V44.3809H118.13L118.96 45.5128V52.8382L118.141 53.9489Z" fill="white"/>
<path d="M156.734 -2.45242e-05C156.077 -0.00946401 155.432 0.17687 154.88 0.535246C154.329 0.893622 153.897 1.40787 153.639 2.01264C153.381 2.6174 153.308 3.28537 153.43 3.93162C153.552 4.57787 153.863 5.17322 154.324 5.64199C154.785 6.11076 155.375 6.43177 156.019 6.56423C156.662 6.69669 157.331 6.63463 157.939 6.3859C158.548 6.13717 159.069 5.71302 159.435 5.16738C159.802 4.62174 159.999 3.97923 160 3.32155C160.004 2.44846 159.663 1.60915 159.051 0.986841C158.439 0.36453 157.606 0.00974389 156.734 -2.45242e-05ZM156.686 6.11418C156.131 6.11417 155.589 5.94937 155.128 5.64064C154.667 5.33191 154.308 4.89317 154.097 4.38002C153.885 3.86687 153.831 3.30243 153.94 2.75823C154.049 2.21403 154.318 1.71456 154.711 1.32316C155.104 0.931757 155.605 0.666048 156.149 0.559683C156.694 0.453319 157.258 0.511106 157.769 0.725711C158.281 0.940315 158.717 1.30209 159.023 1.76516C159.329 2.22823 159.491 2.77175 159.487 3.32684C159.485 4.06799 159.188 4.77774 158.663 5.30032C158.138 5.8229 157.427 6.11559 156.686 6.11418Z" fill="white"/>
<path d="M157.188 1.78242H155.671V4.83954H156.2V3.82404H157.03C157.061 3.82404 157.072 3.82404 157.077 3.85577C157.204 4.17312 157.331 4.48516 157.453 4.79722C157.456 4.81213 157.465 4.8252 157.478 4.83395C157.491 4.84271 157.506 4.84658 157.521 4.84483H157.981C157.838 4.47988 157.696 4.12551 157.553 3.78701H157.585C157.7 3.74742 157.806 3.68438 157.896 3.60187C158.076 3.44575 158.192 3.22953 158.224 2.99364C158.248 2.84723 158.24 2.69733 158.199 2.55451C158.159 2.41169 158.088 2.27943 157.992 2.16699C157.895 2.05456 157.775 1.96472 157.64 1.90377C157.504 1.84281 157.358 1.81223 157.209 1.81418L157.188 1.78242ZM157.4 3.27395C157.341 3.29729 157.278 3.30984 157.215 3.31098H156.158V2.29018H157.167C157.265 2.28468 157.363 2.30903 157.447 2.36001C157.53 2.41099 157.597 2.48621 157.637 2.57578C157.696 2.70023 157.705 2.84282 157.66 2.97321C157.616 3.10359 157.522 3.21149 157.4 3.27395Z" fill="white"/>
</g>
<defs>
<clipPath id="clip0_274_1007">
<rect width="160" height="59" fill="white"/>
</clipPath>
</defs>
</svg>
