<svg width="100" height="100" viewBox="0 0 100 100" fill="none" xmlns="http://www.w3.org/2000/svg">
<g clip-path="url(#clip0_274_956)">
<path d="M86.065 0H13.935C6.23891 0 0 6.23891 0 13.935V86.065C0 93.7611 6.23891 100 13.935 100H86.065C93.7611 100 100 93.7611 100 86.065V13.935C100 6.23891 93.7611 0 86.065 0Z" fill="url(#paint0_radial_274_956)"/>
<path d="M46.925 57.885L51.715 80.41L58.3651 50.41L46.925 57.885Z" fill="#480087"/>
<g style="mix-blend-mode:multiply" opacity="0.53">
<path d="M46.925 57.885L51.715 80.41L58.3651 50.41L46.925 57.885Z" fill="#480087"/>
</g>
<path d="M46.76 64.975C46.76 64.975 45.01 68.03 47.17 69.8C49.33 71.57 49.025 72.155 49.025 72.155C49.025 72.155 49.88 69.995 49.225 69.25C49.225 69.25 51.485 70.96 50.13 74.02C50.9575 73.5977 51.6605 72.967 52.1699 72.1902C52.6794 71.4134 52.9775 70.5172 53.035 69.59C53.035 69.59 53.49 71.335 52.925 72.025C54.075 71.4792 55.0167 70.5747 55.6082 69.4475C56.1998 68.3203 56.4092 67.0315 56.205 65.775C55.56 61.22 46.76 64.975 46.76 64.975Z" fill="url(#paint1_linear_274_956)"/>
<path opacity="0.67" d="M50.4749 64.16C50.4749 64.16 48.7199 65.89 49.8199 68.07C50.9199 70.25 51.4749 70.24 51.2099 71.62C51.2099 71.62 54.4449 67.36 52.2099 64.32C49.9749 61.28 50.4749 64.16 50.4749 64.16Z" fill="url(#paint2_linear_274_956)"/>
<path style="mix-blend-mode:screen" opacity="0.64" d="M58.955 68.4752C59.3172 63.5538 56.0768 59.3041 51.7173 58.9832C47.3577 58.6623 43.5299 62.3917 43.1677 67.3131C42.8054 72.2344 46.0458 76.4841 50.4054 76.805C54.7649 77.1259 58.5927 73.3965 58.955 68.4752Z" fill="url(#paint3_radial_274_956)"/>
<path d="M61.475 64.875C61.475 66.545 57.0651 67.875 51.6251 67.875C46.1851 67.875 41.78 66.525 41.78 64.875C41.78 63.225 46.1901 61.85 51.6251 61.85C57.0601 61.85 61.475 63.205 61.475 64.875Z" fill="url(#paint4_linear_274_956)"/>
<path d="M61.475 64.875C61.475 66.545 57.0651 67.875 51.6251 67.875C46.1851 67.875 41.78 66.525 41.78 64.875C41.78 63.225 46.1901 61.85 51.6251 61.85C57.0601 61.85 61.475 63.205 61.475 64.875Z" fill="url(#paint5_linear_274_956)"/>
<g style="mix-blend-mode:multiply">
<path d="M51.65 66.83C57.4848 66.83 62.215 65.4757 62.215 63.805C62.215 62.1343 57.4848 60.78 51.65 60.78C45.8151 60.78 41.085 62.1343 41.085 63.805C41.085 65.4757 45.8151 66.83 51.65 66.83Z" fill="url(#paint6_linear_274_956)"/>
<path style="mix-blend-mode:multiply" d="M51.65 66.83C57.4848 66.83 62.215 65.4757 62.215 63.805C62.215 62.1343 57.4848 60.78 51.65 60.78C45.8151 60.78 41.085 62.1343 41.085 63.805C41.085 65.4757 45.8151 66.83 51.65 66.83Z" fill="url(#paint7_linear_274_956)"/>
</g>
<path d="M32.0149 41.72L40.3 27.605C46.515 17.01 56.69 17.01 62.91 27.605L71.28 41.87C77.01 51.64 71.495 65.54 61.92 65.47L41.245 65.315C31.725 65.265 26.3199 51.425 32.0149 41.72Z" fill="url(#paint8_linear_274_956)"/>
<path d="M69.7151 53.105C69.8304 52.2097 69.8856 51.3077 69.8801 50.405C69.8201 39.905 98.3801 56.18 66.6101 83.94C66.6101 83.94 81.5201 66.705 69.7151 53.105Z" fill="url(#paint9_linear_274_956)"/>
<path d="M62.2949 65.455C64.3399 64.0436 66.0598 62.2117 67.3394 60.0818C68.6191 57.9519 69.429 55.5732 69.7149 53.105C81.5199 66.705 66.6099 83.94 66.6099 83.94C66.6099 83.94 71.4749 68.825 62.2949 65.455Z" fill="url(#paint10_linear_274_956)"/>
<path style="mix-blend-mode:multiply" d="M62.2949 65.455C64.3399 64.0436 66.0598 62.2117 67.3394 60.0818C68.6191 57.9519 69.429 55.5732 69.7149 53.105C81.5199 66.705 66.6099 83.94 66.6099 83.94C66.6099 83.94 71.4749 68.825 62.2949 65.455Z" fill="url(#paint11_linear_274_956)"/>
<path style="mix-blend-mode:multiply" opacity="0.51" d="M77.5351 69.86C77.5351 69.86 83.8151 58.16 77.4501 51.925C67.4001 42.075 80.6301 53.95 77.5351 69.86Z" fill="url(#paint12_linear_274_956)"/>
<path style="mix-blend-mode:multiply" opacity="0.3" d="M33.1051 50.265C33.1051 50.265 41.7201 66.13 55.7201 61.345C69.7201 56.56 62.2951 65.475 62.2951 65.475L40.6901 65.315L35.5601 63.975L31.8501 50.875L33.1051 50.265Z" fill="url(#paint13_linear_274_956)"/>
<path style="mix-blend-mode:multiply" opacity="0.3" d="M38.1851 31.205C38.1851 31.205 51.64 42.79 65.02 31.205H38.1851Z" fill="url(#paint14_linear_274_956)"/>
<path d="M37.52 30.895C37.52 30.895 51.69 38.18 65.775 30.895L51.645 12.07L37.52 30.895Z" fill="url(#paint15_linear_274_956)"/>
<path style="mix-blend-mode:multiply" d="M50.9751 34.11C50.9751 34.11 55.4451 32.645 53.9301 23.47C52.4151 14.295 51.6501 12.07 51.6501 12.07L65.7801 30.895C61.2391 33.3199 56.1128 34.4331 50.9751 34.11Z" fill="url(#paint16_linear_274_956)"/>
<path style="mix-blend-mode:screen" d="M50.975 14.115C50.975 14.115 37.895 30.615 43.04 31.41C48.185 32.205 50.975 14.115 50.975 14.115Z" fill="url(#paint17_linear_274_956)"/>
<path style="mix-blend-mode:screen" opacity="0.32" d="M36.855 53.945C36.855 53.945 31.75 46.51 32.785 43.945C33.82 41.38 38.2 31.2 40.12 34.845C42.04 38.49 31.03 41.765 36.855 53.945Z" fill="url(#paint18_linear_274_956)"/>
<path style="mix-blend-mode:multiply" opacity="0.3" d="M68.6851 51.45C68.6851 51.45 68.3501 43.995 72.9551 45.84C72.9551 45.84 72.3851 43.755 69.5351 38.905C66.6851 34.055 59.1101 38.725 59.1101 38.725C59.1101 38.725 64.2651 40.66 65.4551 48.08L68.6851 51.45Z" fill="url(#paint19_linear_274_956)"/>
<path style="mix-blend-mode:multiply" opacity="0.3" d="M51.645 61.06C51.645 61.06 60.115 61.845 63.175 53.385C66.265 44.84 57.9951 39.885 57.9951 39.885L51.645 61.06Z" fill="url(#paint20_linear_274_956)"/>
<path d="M33.27 52.945C33.1547 52.0497 33.0996 51.1477 33.105 50.245C33.165 39.745 4.60501 56.02 36.375 83.78C36.375 83.765 21.475 66.55 33.27 52.945Z" fill="url(#paint21_linear_274_956)"/>
<path d="M40.6901 65.295C38.6442 63.8846 36.9237 62.0529 35.6439 59.9228C34.3642 57.7927 33.5548 55.4136 33.2701 52.945C21.4751 66.55 36.3751 83.765 36.3751 83.765C36.3751 83.765 31.5201 68.67 40.6901 65.295Z" fill="url(#paint22_linear_274_956)"/>
<path style="mix-blend-mode:multiply" d="M40.6901 65.295C38.6442 63.8846 36.9237 62.0529 35.6439 59.9228C34.3642 57.7927 33.5548 55.4136 33.2701 52.945C21.4751 66.55 36.3751 83.765 36.3751 83.765C36.3751 83.765 31.5201 68.67 40.6901 65.295Z" fill="url(#paint23_linear_274_956)"/>
<path style="mix-blend-mode:screen" d="M25.445 69.7C25.445 69.7 19.1051 59.95 24.2501 52.7C29.3951 45.45 26.645 53.905 25.445 69.7Z" fill="url(#paint24_linear_274_956)"/>
<path style="mix-blend-mode:multiply" d="M69.5501 54.155L65.1401 53.3L63.6001 51.365H40.3001L38.7301 50.635L37.9801 40.53L34.4651 37.55L34.6801 37.18L38.3901 40.32L39.1301 50.355L40.3951 50.945H63.8051L65.3701 52.915L69.6301 53.74L69.5501 54.155Z" fill="url(#paint25_linear_274_956)"/>
<path style="mix-blend-mode:multiply" d="M56.3199 38.995L55.7849 38.77L57.8499 37.84L59.6649 34.945L65.9249 32.75L66.1399 33.12L59.9449 35.295L58.1399 38.17L56.3199 38.995Z" fill="url(#paint26_linear_274_956)"/>
<path style="mix-blend-mode:multiply" d="M51.4449 61.05H51.0249V65.375H51.4449V61.05Z" fill="url(#paint27_linear_274_956)"/>
<path style="mix-blend-mode:multiply" d="M38.9999 39.46L35.1499 36.38L35.3649 36.015L39.0999 39L51.6799 35.745V34.15L52.1049 34.165V36.07L38.9999 39.46Z" fill="url(#paint28_linear_274_956)"/>
<path style="mix-blend-mode:multiply" d="M51.4451 61.05H51.2351V65.375H51.4451V61.05Z" fill="url(#paint29_linear_274_956)"/>
<path style="mix-blend-mode:multiply" d="M39.1349 39.25L35.2849 36.17L35.3649 36.015L39.0999 39L51.6799 35.745V34.15L51.9049 34.155L51.9549 35.87L39.1349 39.25Z" fill="url(#paint30_linear_274_956)"/>
<path style="mix-blend-mode:multiply" d="M56.1099 38.88L55.7849 38.77L57.8499 37.84L59.6649 34.945L65.9249 32.75L66.0349 32.935L59.7299 35.18L57.9249 38.055L56.1099 38.88Z" fill="url(#paint31_linear_274_956)"/>
<path style="mix-blend-mode:multiply" d="M69.6301 53.945L65.2201 53.095L63.6801 51.16H40.3801L38.8101 50.43L38.1351 40.485L34.6201 37.505L34.6801 37.18L38.3901 40.32L39.1301 50.355L40.3951 50.945H63.8051L65.3701 52.915L69.6301 53.74V53.945Z" fill="url(#paint32_linear_274_956)"/>
<path d="M62.8664 52.1553C64.3144 45.9572 60.4637 39.7586 54.2655 38.3106C48.0674 36.8625 41.8688 40.7133 40.4208 46.9114C38.9727 53.1096 42.8235 59.3081 49.0216 60.7561C55.2198 62.2042 61.4183 58.3535 62.8664 52.1553Z" fill="url(#paint33_linear_274_956)"/>
<path style="mix-blend-mode:multiply" d="M60.8036 50.9913C61.6221 45.9151 58.1706 41.1365 53.0944 40.318C48.0182 39.4995 43.2396 42.951 42.421 48.0272C41.6025 53.1034 45.0541 57.882 50.1303 58.7005C55.2065 59.5191 59.9851 56.0675 60.8036 50.9913Z" fill="url(#paint34_linear_274_956)"/>
<path d="M54.7996 57.0345C58.9534 55.2935 60.9094 50.5149 59.1684 46.3611C57.4274 42.2073 52.6487 40.2513 48.4949 41.9923C44.3412 43.7333 42.3852 48.5119 44.1262 52.6657C45.8672 56.8195 50.6458 58.7755 54.7996 57.0345Z" fill="url(#paint35_linear_274_956)"/>
<path d="M51.6501 57C55.7729 57 59.1151 53.6578 59.1151 49.535C59.1151 45.4122 55.7729 42.07 51.6501 42.07C47.5273 42.07 44.1851 45.4122 44.1851 49.535C44.1851 53.6578 47.5273 57 51.6501 57Z" fill="url(#paint36_linear_274_956)"/>
<path style="mix-blend-mode:screen" d="M54.2753 55.8039C57.7475 54.3514 59.3849 50.3591 57.9324 46.8869C56.4799 43.4146 52.4876 41.7772 49.0154 43.2297C45.5431 44.6822 43.9057 48.6745 45.3582 52.1468C46.8107 55.619 50.803 57.2564 54.2753 55.8039Z" fill="url(#paint37_linear_274_956)"/>
<path d="M52.0799 44.44C52.4549 45.205 51.4699 46.44 49.8849 47.22C48.2999 48 46.7149 48 46.3449 47.22C45.9749 46.44 46.9549 45.22 48.5399 44.44C50.1249 43.66 51.7099 43.68 52.0799 44.44Z" fill="white"/>
<g style="mix-blend-mode:multiply" opacity="0.7">
<path d="M51.645 52.51C49.9355 52.5083 48.2697 51.9697 46.8827 50.9703C45.4957 49.9709 44.4577 48.5611 43.9151 46.94C43.5013 48.1674 43.3857 49.4757 43.5778 50.7567C43.7699 52.0377 44.2642 53.2545 45.0198 54.3066C45.7754 55.3587 46.7706 56.2157 47.9231 56.807C49.0756 57.3982 50.3523 57.7065 51.6475 57.7065C52.9428 57.7065 54.2195 57.3982 55.372 56.807C56.5245 56.2157 57.5198 55.3587 58.2754 54.3066C59.031 53.2545 59.5252 52.0377 59.7173 50.7567C59.9094 49.4757 59.7938 48.1674 59.3801 46.94C58.8366 48.5615 57.7975 49.9715 56.4097 50.9708C55.0219 51.9702 53.3553 52.5086 51.645 52.51Z" fill="url(#paint38_linear_274_956)"/>
</g>
<path d="M57.615 53.66C57.86 53.95 57.36 54.77 56.5 55.48C55.64 56.19 54.745 56.535 54.5 56.245C54.255 55.955 54.755 55.135 55.615 54.42C56.475 53.705 57.37 53.365 57.615 53.66Z" fill="white"/>
<path style="mix-blend-mode:screen" d="M51.9787 59.6783C58.0777 59.4642 62.8631 54.7671 62.6673 49.1869C62.4715 43.6068 57.3685 39.2567 51.2695 39.4707C45.1705 39.6848 40.3851 44.3819 40.5809 49.9621C40.7768 55.5422 45.8797 59.8923 51.9787 59.6783Z" fill="url(#paint39_radial_274_956)"/>
<path style="mix-blend-mode:screen" d="M40.6901 50.41C40.6901 50.41 40.5401 39.73 51.1901 38.59C48.5618 39.4746 46.2102 41.0307 44.3685 43.104C42.5267 45.1772 41.2587 47.6957 40.6901 50.41Z" fill="url(#paint40_linear_274_956)"/>
<path style="mix-blend-mode:screen" d="M62.2101 50.765C62.2101 50.765 62.3301 59.005 54.1201 59.885C56.1461 59.2012 57.9583 58 59.3773 56.4003C60.7963 54.8007 61.7728 52.8581 62.2101 50.765Z" fill="url(#paint41_linear_274_956)"/>
</g>
<defs>
<radialGradient id="paint0_radial_274_956" cx="0" cy="0" r="1" gradientUnits="userSpaceOnUse" gradientTransform="translate(50.0025 50.0025) scale(50)">
<stop stop-color="#003B77"/>
<stop offset="1" stop-color="#130C23"/>
</radialGradient>
<linearGradient id="paint1_linear_274_956" x1="53.1596" y1="73.3693" x2="53.1348" y2="61.9901" gradientUnits="userSpaceOnUse">
<stop stop-color="#FF4B00"/>
<stop offset="0.22" stop-color="#FF5400"/>
<stop offset="0.5" stop-color="#FF6600"/>
<stop offset="0.67" stop-color="#FF6F00"/>
<stop offset="0.93" stop-color="#FF8700"/>
<stop offset="1" stop-color="#FF8E00"/>
</linearGradient>
<linearGradient id="paint2_linear_274_956" x1="54.2654" y1="62.7035" x2="51.696" y2="71.2091" gradientUnits="userSpaceOnUse">
<stop stop-color="#FF8B00"/>
<stop offset="0.4" stop-color="#FFA300"/>
<stop offset="1" stop-color="#FFCE00"/>
</linearGradient>
<radialGradient id="paint3_radial_274_956" cx="0" cy="0" r="1" gradientUnits="userSpaceOnUse" gradientTransform="translate(54.0969 66.6757) rotate(10.3473) scale(7.95525 8.96093)">
<stop stop-color="#FFF325"/>
<stop offset="0.13" stop-color="#E3D821"/>
<stop offset="0.43" stop-color="#9C9417"/>
<stop offset="0.85" stop-color="#2B2906"/>
<stop offset="1"/>
</radialGradient>
<linearGradient id="paint4_linear_274_956" x1="41.8" y1="64.875" x2="61.495" y2="64.875" gradientUnits="userSpaceOnUse">
<stop stop-color="#9DCBC3"/>
<stop offset="0.2" stop-color="#9EC7C3"/>
<stop offset="0.39" stop-color="#A0BBC4"/>
<stop offset="0.58" stop-color="#A5A8C6"/>
<stop offset="0.77" stop-color="#AA8DC8"/>
<stop offset="0.95" stop-color="#B26ACB"/>
<stop offset="1" stop-color="#B460CC"/>
</linearGradient>
<linearGradient id="paint5_linear_274_956" x1="41.8" y1="64.875" x2="61.495" y2="64.875" gradientUnits="userSpaceOnUse">
<stop stop-color="#A81BA4"/>
<stop offset="0.21" stop-color="#A219A4"/>
<stop offset="0.47" stop-color="#9313A4"/>
<stop offset="0.76" stop-color="#790AA4"/>
<stop offset="1" stop-color="#5E00A4"/>
</linearGradient>
<linearGradient id="paint6_linear_274_956" x1="41.085" y1="63.805" x2="62.21" y2="63.805" gradientUnits="userSpaceOnUse">
<stop stop-color="#7C00FF"/>
<stop offset="0.11" stop-color="#7D06FD"/>
<stop offset="0.25" stop-color="#7F15F9"/>
<stop offset="0.41" stop-color="#842FF1"/>
<stop offset="0.58" stop-color="#8A54E6"/>
<stop offset="0.76" stop-color="#9182D8"/>
<stop offset="0.95" stop-color="#9ABBC8"/>
<stop offset="1" stop-color="#9DCBC3"/>
</linearGradient>
<linearGradient id="paint7_linear_274_956" x1="41.085" y1="63.805" x2="62.21" y2="63.805" gradientUnits="userSpaceOnUse">
<stop stop-color="#A81BA4"/>
<stop offset="0.21" stop-color="#A219A4"/>
<stop offset="0.47" stop-color="#9313A4"/>
<stop offset="0.76" stop-color="#790AA4"/>
<stop offset="1" stop-color="#5E00A4"/>
</linearGradient>
<linearGradient id="paint8_linear_274_956" x1="29.6899" y1="42.565" x2="73.605" y2="42.565" gradientUnits="userSpaceOnUse">
<stop stop-color="#F4DAA2"/>
<stop offset="0.2" stop-color="#F2D6A0"/>
<stop offset="0.4" stop-color="#EDCA99"/>
<stop offset="0.59" stop-color="#E5B78F"/>
<stop offset="0.79" stop-color="#D99C80"/>
<stop offset="0.98" stop-color="#CA796D"/>
<stop offset="1" stop-color="#C8746A"/>
</linearGradient>
<linearGradient id="paint9_linear_274_956" x1="81.6051" y1="65.57" x2="62.2951" y2="65.57" gradientUnits="userSpaceOnUse">
<stop stop-color="#A81BA4"/>
<stop offset="0.21" stop-color="#A219A4"/>
<stop offset="0.47" stop-color="#9313A4"/>
<stop offset="0.76" stop-color="#790AA4"/>
<stop offset="1" stop-color="#5E00A4"/>
</linearGradient>
<linearGradient id="paint10_linear_274_956" x1="81.6049" y1="68.525" x2="62.2949" y2="68.525" gradientUnits="userSpaceOnUse">
<stop stop-color="#A81BA4"/>
<stop offset="0.21" stop-color="#A219A4"/>
<stop offset="0.47" stop-color="#9313A4"/>
<stop offset="0.76" stop-color="#790AA4"/>
<stop offset="1" stop-color="#5E00A4"/>
</linearGradient>
<linearGradient id="paint11_linear_274_956" x1="74.2649" y1="68.525" x2="56.2399" y2="68.525" gradientUnits="userSpaceOnUse">
<stop stop-color="#A81BA4"/>
<stop offset="0.21" stop-color="#A219A4"/>
<stop offset="0.47" stop-color="#9313A4"/>
<stop offset="0.76" stop-color="#790AA4"/>
<stop offset="1" stop-color="#5E00A4"/>
</linearGradient>
<linearGradient id="paint12_linear_274_956" x1="80.1051" y1="54.58" x2="70.4601" y2="64.225" gradientUnits="userSpaceOnUse">
<stop stop-color="#A81BA4"/>
<stop offset="0.21" stop-color="#A219A4"/>
<stop offset="0.47" stop-color="#9313A4"/>
<stop offset="0.76" stop-color="#790AA4"/>
<stop offset="1" stop-color="#5E00A4"/>
</linearGradient>
<linearGradient id="paint13_linear_274_956" x1="-106.58" y1="25.735" x2="105.325" y2="73.05" gradientUnits="userSpaceOnUse">
<stop stop-color="#A822A4"/>
<stop offset="0.34" stop-color="#C155A3"/>
<stop offset="1" stop-color="#F4C1A2"/>
</linearGradient>
<linearGradient id="paint14_linear_274_956" x1="38.1851" y1="33.78" x2="65.02" y2="33.78" gradientUnits="userSpaceOnUse">
<stop stop-color="#A822A4"/>
<stop offset="0.34" stop-color="#C155A3"/>
<stop offset="1" stop-color="#F4C1A2"/>
</linearGradient>
<linearGradient id="paint15_linear_274_956" x1="37.52" y1="23.1" x2="65.775" y2="23.1" gradientUnits="userSpaceOnUse">
<stop stop-color="#A81BA4"/>
<stop offset="0.21" stop-color="#A219A4"/>
<stop offset="0.47" stop-color="#9313A4"/>
<stop offset="0.76" stop-color="#790AA4"/>
<stop offset="1" stop-color="#5E00A4"/>
</linearGradient>
<linearGradient id="paint16_linear_274_956" x1="50.9701" y1="23.12" x2="65.7751" y2="23.12" gradientUnits="userSpaceOnUse">
<stop stop-color="#A81BA4"/>
<stop offset="0.21" stop-color="#A219A4"/>
<stop offset="0.47" stop-color="#9313A4"/>
<stop offset="0.76" stop-color="#790AA4"/>
<stop offset="1" stop-color="#5E00A4"/>
</linearGradient>
<linearGradient id="paint17_linear_274_956" x1="44.555" y1="20.535" x2="50.3499" y2="26.33" gradientUnits="userSpaceOnUse">
<stop stop-color="#FF81FF"/>
<stop offset="0.18" stop-color="#B85DB8"/>
<stop offset="0.36" stop-color="#783C78"/>
<stop offset="0.52" stop-color="#442244"/>
<stop offset="0.67" stop-color="#1F101F"/>
<stop offset="0.78" stop-color="#080408"/>
<stop offset="0.86"/>
</linearGradient>
<linearGradient id="paint18_linear_274_956" x1="33.375" y1="39.2" x2="43.225" y2="49.05" gradientUnits="userSpaceOnUse">
<stop stop-color="#FFF0D2"/>
<stop offset="0.4" stop-color="#938B79"/>
<stop offset="0.82" stop-color="#2A2823"/>
<stop offset="1"/>
</linearGradient>
<linearGradient id="paint19_linear_274_956" x1="69.9201" y1="39.065" x2="62.5601" y2="46.43" gradientUnits="userSpaceOnUse">
<stop stop-color="#A822A4"/>
<stop offset="0.34" stop-color="#C155A3"/>
<stop offset="1" stop-color="#F4C1A2"/>
</linearGradient>
<linearGradient id="paint20_linear_274_956" x1="63.305" y1="44.775" x2="48.2" y2="59.875" gradientUnits="userSpaceOnUse">
<stop stop-color="#A822A4"/>
<stop offset="0.34" stop-color="#C155A3"/>
<stop offset="1" stop-color="#F4C1A2"/>
</linearGradient>
<linearGradient id="paint21_linear_274_956" x1="21.38" y1="65.41" x2="40.69" y2="65.41" gradientUnits="userSpaceOnUse">
<stop stop-color="#A81BA4"/>
<stop offset="0.21" stop-color="#A219A4"/>
<stop offset="0.47" stop-color="#9313A4"/>
<stop offset="0.76" stop-color="#790AA4"/>
<stop offset="1" stop-color="#5E00A4"/>
</linearGradient>
<linearGradient id="paint22_linear_274_956" x1="21.3801" y1="68.365" x2="40.6901" y2="68.365" gradientUnits="userSpaceOnUse">
<stop stop-color="#A81BA4"/>
<stop offset="0.21" stop-color="#A219A4"/>
<stop offset="0.47" stop-color="#9313A4"/>
<stop offset="0.76" stop-color="#790AA4"/>
<stop offset="1" stop-color="#5E00A4"/>
</linearGradient>
<linearGradient id="paint23_linear_274_956" x1="28.7201" y1="68.365" x2="46.7451" y2="68.365" gradientUnits="userSpaceOnUse">
<stop stop-color="#A81BA4"/>
<stop offset="0.21" stop-color="#A219A4"/>
<stop offset="0.47" stop-color="#9313A4"/>
<stop offset="0.76" stop-color="#790AA4"/>
<stop offset="1" stop-color="#5E00A4"/>
</linearGradient>
<linearGradient id="paint24_linear_274_956" x1="21.4001" y1="55.105" x2="31.4751" y2="65.18" gradientUnits="userSpaceOnUse">
<stop stop-color="#FF81FF"/>
<stop offset="0.18" stop-color="#B85DB8"/>
<stop offset="0.36" stop-color="#783C78"/>
<stop offset="0.52" stop-color="#442244"/>
<stop offset="0.67" stop-color="#1F101F"/>
<stop offset="0.78" stop-color="#080408"/>
<stop offset="0.86"/>
</linearGradient>
<linearGradient id="paint25_linear_274_956" x1="34.4651" y1="45.665" x2="69.6301" y2="45.665" gradientUnits="userSpaceOnUse">
<stop stop-color="#A81BA4"/>
<stop offset="0.13" stop-color="#AB21A4"/>
<stop offset="0.29" stop-color="#B230A4"/>
<stop offset="0.47" stop-color="#BE4AA3"/>
<stop offset="0.66" stop-color="#CE6FA3"/>
<stop offset="0.86" stop-color="#E39DA2"/>
<stop offset="1" stop-color="#F4C1A2"/>
</linearGradient>
<linearGradient id="paint26_linear_274_956" x1="55.7849" y1="35.87" x2="66.1399" y2="35.87" gradientUnits="userSpaceOnUse">
<stop stop-color="#A81BA4"/>
<stop offset="0.13" stop-color="#AB21A4"/>
<stop offset="0.29" stop-color="#B230A4"/>
<stop offset="0.47" stop-color="#BE4AA3"/>
<stop offset="0.66" stop-color="#CE6FA3"/>
<stop offset="0.86" stop-color="#E39DA2"/>
<stop offset="1" stop-color="#F4C1A2"/>
</linearGradient>
<linearGradient id="paint27_linear_274_956" x1="51.0249" y1="63.215" x2="51.4449" y2="63.215" gradientUnits="userSpaceOnUse">
<stop stop-color="#A81BA4"/>
<stop offset="0.13" stop-color="#AB21A4"/>
<stop offset="0.29" stop-color="#B230A4"/>
<stop offset="0.47" stop-color="#BE4AA3"/>
<stop offset="0.66" stop-color="#CE6FA3"/>
<stop offset="0.86" stop-color="#E39DA2"/>
<stop offset="1" stop-color="#F4C1A2"/>
</linearGradient>
<linearGradient id="paint28_linear_274_956" x1="35.1499" y1="36.805" x2="52.1049" y2="36.805" gradientUnits="userSpaceOnUse">
<stop stop-color="#A81BA4"/>
<stop offset="0.13" stop-color="#AB21A4"/>
<stop offset="0.29" stop-color="#B230A4"/>
<stop offset="0.47" stop-color="#BE4AA3"/>
<stop offset="0.66" stop-color="#CE6FA3"/>
<stop offset="0.86" stop-color="#E39DA2"/>
<stop offset="1" stop-color="#F4C1A2"/>
</linearGradient>
<linearGradient id="paint29_linear_274_956" x1="51.2351" y1="63.215" x2="51.4451" y2="63.215" gradientUnits="userSpaceOnUse">
<stop stop-color="#A81BA4"/>
<stop offset="0.13" stop-color="#AB21A4"/>
<stop offset="0.29" stop-color="#B230A4"/>
<stop offset="0.47" stop-color="#BE4AA3"/>
<stop offset="0.66" stop-color="#CE6FA3"/>
<stop offset="0.86" stop-color="#E39DA2"/>
<stop offset="1" stop-color="#F4C1A2"/>
</linearGradient>
<linearGradient id="paint30_linear_274_956" x1="35.2849" y1="36.7" x2="51.9549" y2="36.7" gradientUnits="userSpaceOnUse">
<stop stop-color="#A81BA4"/>
<stop offset="0.13" stop-color="#AB21A4"/>
<stop offset="0.29" stop-color="#B230A4"/>
<stop offset="0.47" stop-color="#BE4AA3"/>
<stop offset="0.66" stop-color="#CE6FA3"/>
<stop offset="0.86" stop-color="#E39DA2"/>
<stop offset="1" stop-color="#F4C1A2"/>
</linearGradient>
<linearGradient id="paint31_linear_274_956" x1="55.7849" y1="35.815" x2="66.0349" y2="35.815" gradientUnits="userSpaceOnUse">
<stop stop-color="#A81BA4"/>
<stop offset="0.13" stop-color="#AB21A4"/>
<stop offset="0.29" stop-color="#B230A4"/>
<stop offset="0.47" stop-color="#BE4AA3"/>
<stop offset="0.66" stop-color="#CE6FA3"/>
<stop offset="0.86" stop-color="#E39DA2"/>
<stop offset="1" stop-color="#F4C1A2"/>
</linearGradient>
<linearGradient id="paint32_linear_274_956" x1="34.6201" y1="45.565" x2="69.6301" y2="45.565" gradientUnits="userSpaceOnUse">
<stop stop-color="#A81BA4"/>
<stop offset="0.13" stop-color="#AB21A4"/>
<stop offset="0.29" stop-color="#B230A4"/>
<stop offset="0.47" stop-color="#BE4AA3"/>
<stop offset="0.66" stop-color="#CE6FA3"/>
<stop offset="0.86" stop-color="#E39DA2"/>
<stop offset="1" stop-color="#F4C1A2"/>
</linearGradient>
<linearGradient id="paint33_linear_274_956" x1="40.1148" y1="49.5297" x2="63.1698" y2="49.5297" gradientUnits="userSpaceOnUse">
<stop stop-color="#A81BA4"/>
<stop offset="0.21" stop-color="#A219A4"/>
<stop offset="0.47" stop-color="#9313A4"/>
<stop offset="0.76" stop-color="#790AA4"/>
<stop offset="1" stop-color="#5E00A4"/>
</linearGradient>
<linearGradient id="paint34_linear_274_956" x1="42.2862" y1="49.5425" x2="60.9012" y2="49.5425" gradientUnits="userSpaceOnUse">
<stop stop-color="#A81BA4"/>
<stop offset="0.21" stop-color="#A219A4"/>
<stop offset="0.47" stop-color="#9313A4"/>
<stop offset="0.76" stop-color="#790AA4"/>
<stop offset="1" stop-color="#5E00A4"/>
</linearGradient>
<linearGradient id="paint35_linear_274_956" x1="41.7031" y1="51.6045" x2="58.0057" y2="51.6707" gradientUnits="userSpaceOnUse">
<stop stop-color="#057300"/>
<stop offset="0.12" stop-color="#138A00"/>
<stop offset="0.41" stop-color="#33BC00"/>
<stop offset="0.66" stop-color="#4AE100"/>
<stop offset="0.87" stop-color="#58F700"/>
<stop offset="1" stop-color="#5DFF00"/>
</linearGradient>
<linearGradient id="paint36_linear_274_956" x1="44.1851" y1="49.535" x2="59.1101" y2="49.535" gradientUnits="userSpaceOnUse">
<stop stop-color="#B0FF00"/>
<stop offset="1" stop-color="#5DFF00"/>
</linearGradient>
<linearGradient id="paint37_linear_274_956" x1="51.64" y1="42.7148" x2="51.64" y2="56.3498" gradientUnits="userSpaceOnUse">
<stop stop-color="white"/>
<stop offset="0.14" stop-color="#C9C9C9"/>
<stop offset="0.31" stop-color="#8D8D8D"/>
<stop offset="0.48" stop-color="#5B5B5B"/>
<stop offset="0.64" stop-color="#333333"/>
<stop offset="0.78" stop-color="#171717"/>
<stop offset="0.91" stop-color="#060606"/>
<stop offset="1"/>
</linearGradient>
<linearGradient id="paint38_linear_274_956" x1="51.6451" y1="46.94" x2="51.6451" y2="57.69" gradientUnits="userSpaceOnUse">
<stop stop-color="#3DCD00"/>
<stop offset="0.08" stop-color="#44CF09"/>
<stop offset="0.22" stop-color="#56D421"/>
<stop offset="0.4" stop-color="#74DB49"/>
<stop offset="0.6" stop-color="#9EE680"/>
<stop offset="0.83" stop-color="#D3F4C5"/>
<stop offset="1" stop-color="white"/>
</linearGradient>
<radialGradient id="paint39_radial_274_956" cx="0" cy="0" r="1" gradientUnits="userSpaceOnUse" gradientTransform="translate(50.9243 48.2077) rotate(-2.01) scale(11.0383 10.0679)">
<stop stop-color="#3DCC00"/>
<stop offset="0.1" stop-color="#3AC300"/>
<stop offset="0.26" stop-color="#33AB00"/>
<stop offset="0.47" stop-color="#278300"/>
<stop offset="0.71" stop-color="#164B00"/>
<stop offset="0.98" stop-color="#020500"/>
<stop offset="1"/>
</radialGradient>
<linearGradient id="paint40_linear_274_956" x1="43.6501" y1="42.215" x2="46.475" y2="45.045" gradientUnits="userSpaceOnUse">
<stop stop-color="#FF81FF"/>
<stop offset="0.18" stop-color="#B85DB8"/>
<stop offset="0.36" stop-color="#783C78"/>
<stop offset="0.52" stop-color="#442244"/>
<stop offset="0.67" stop-color="#1F101F"/>
<stop offset="0.78" stop-color="#080408"/>
<stop offset="0.86"/>
</linearGradient>
<linearGradient id="paint41_linear_274_956" x1="59.9301" y1="57.08" x2="57.7451" y2="54.895" gradientUnits="userSpaceOnUse">
<stop stop-color="#FF81FF"/>
<stop offset="0.18" stop-color="#B85DB8"/>
<stop offset="0.36" stop-color="#783C78"/>
<stop offset="0.52" stop-color="#442244"/>
<stop offset="0.67" stop-color="#1F101F"/>
<stop offset="0.78" stop-color="#080408"/>
<stop offset="0.86"/>
</linearGradient>
<clipPath id="clip0_274_956">
<rect width="100" height="100" fill="white"/>
</clipPath>
</defs>
</svg>
