<svg width="30" height="30" viewBox="0 0 30 30" fill="none" xmlns="http://www.w3.org/2000/svg">
<path d="M0 21.9861V7.98918C0 3.76642 3.41566 0.313232 7.59253 0.313232H21.4373C25.6142 0.313232 29.0299 3.76642 29.0299 7.98918V21.9861C29.0299 26.2089 25.6142 29.6621 21.4373 29.6621H7.59253C3.41566 29.6621 0 26.2089 0 21.9861Z" fill="#F1CE6A"/>
<path d="M19.0235 9.45605C18.4705 9.45605 18.0281 9.9099 18.0281 10.4624C18.0281 11.0215 18.477 11.4688 19.0235 11.4688C19.5765 11.4688 20.0189 11.0149 20.0189 10.4624C20.0189 9.9099 19.5765 9.45605 19.0235 9.45605Z" fill="#161616"/>
<path d="M14.5865 10.7517C12.2768 10.7517 10.3966 12.6526 10.3966 14.9876C10.3966 17.3226 12.2768 19.2235 14.5865 19.2235C16.8961 19.2235 18.7764 17.3226 18.7764 14.9876C18.7764 12.6526 16.8961 10.7517 14.5865 10.7517ZM14.5865 17.7041C13.1031 17.7041 11.8995 16.4873 11.8995 14.9876C11.8995 13.488 13.1031 12.2711 14.5865 12.2711C16.0699 12.2711 17.2735 13.488 17.2735 14.9876C17.2735 16.4873 16.0699 17.7041 14.5865 17.7041Z" fill="#161616"/>
<path d="M17.9175 23.591H11.1187C8.30163 23.591 6.005 21.2692 6.005 18.4211V11.5542C6.005 8.70614 8.30163 6.38428 11.1187 6.38428H17.9175C20.7346 6.38428 23.0313 8.70614 23.0313 11.5542V18.4277C23.0313 21.2757 20.7346 23.591 17.9175 23.591ZM11.1187 8.00234C9.17994 8.00234 7.60549 9.5941 7.60549 11.5542V18.4277C7.60549 20.3878 9.17994 21.9795 11.1187 21.9795H17.9175C19.8563 21.9795 21.4308 20.3878 21.4308 18.4277V11.5542C21.4308 9.5941 19.8563 8.00234 17.9175 8.00234H11.1187Z" fill="#161616"/>
</svg>
