<svg width="30" height="30" viewBox="0 0 30 30" fill="none" xmlns="http://www.w3.org/2000/svg">
<path d="M0.963615 22.3229V8.32594C0.963615 4.10318 4.37927 0.649994 8.55614 0.649994H22.401C26.5843 0.649994 30 4.10318 30 8.32594V22.3229C30 26.5456 26.5843 29.9988 22.4075 29.9988H8.56265C4.38578 30.0054 0.963615 26.5456 0.963615 22.3229Z" fill="#F1CE6A"/>
<path d="M20.9692 16.5346C20.7691 17.654 20.5752 18.767 20.3938 19.8864C20.3626 20.087 20.2938 20.1258 20.1187 20.1258C19.3119 20.1193 18.5052 20.1323 17.7047 20.1193C17.4796 20.1193 17.4045 20.1711 17.4045 20.4235C17.4108 23.2188 17.4108 27.2047 17.4045 30H13.2145C13.2082 27.2112 13.2082 23.2382 13.2207 20.4493C13.2207 20.1711 13.1332 20.1129 12.883 20.1193C12.0325 20.1323 11.182 20.1193 10.3252 20.1323C10.0938 20.1323 10 20.0546 10 19.8023C10.0125 18.6958 10.0063 17.5958 10.0125 16.4893C10.0125 16.3858 9.94997 16.2305 10.1376 16.2111C11.1069 16.2175 12.0825 16.2111 13.0456 16.2305C13.277 16.2305 13.3208 16.1528 13.3208 15.9328C13.3083 14.8328 13.3145 13.7264 13.3208 12.6199C13.3208 11.7205 13.5709 10.8987 14.0525 10.1546C14.7842 9.0222 15.8348 8.40749 17.1168 8.18102C17.1356 8.07102 17.2169 8.07102 17.2919 8.07102C18.0924 8.0516 18.8992 7.95455 19.6997 8.02572C20.0686 8.05808 20.4501 8.01925 20.8191 8.12925C20.8879 8.14866 20.9504 8.15513 20.9692 8.23925C20.9629 9.39103 20.9629 10.5363 20.9629 11.6946C21.0067 11.7528 20.9629 11.7981 20.9192 11.7981C20.3125 11.7981 19.7059 11.8693 19.0993 11.7657C19.0618 11.7722 19.018 11.7787 18.9805 11.7852C18.9492 11.9146 18.8304 11.9146 18.7491 11.9275C18.4802 11.9599 18.2801 12.1605 18.0299 12.2252C18.0362 12.2963 17.9861 12.3028 17.9298 12.3028C17.9111 12.3222 17.8923 12.3416 17.8736 12.361C17.8548 12.3805 17.8423 12.3934 17.8173 12.4128C17.7923 12.4387 17.786 12.4516 17.761 12.4775H17.7547C17.761 12.5746 17.7297 12.6458 17.6234 12.6458C17.6297 12.6522 17.6297 12.6652 17.6297 12.6716V12.6781C17.2857 13.4287 17.4483 14.2311 17.417 15.014C17.4045 15.3052 17.4295 15.5964 17.4108 15.8811C17.392 16.114 17.4796 16.1723 17.6922 16.1723C18.6928 16.1593 19.6934 16.1658 20.694 16.1658C21.0255 16.1464 21.0317 16.1787 20.9692 16.5346Z" fill="#101010"/>
</svg>
