<svg width="30" height="30" viewBox="0 0 30 30" fill="none" xmlns="http://www.w3.org/2000/svg">
<path d="M0.194214 21.9861V7.98918C0.194214 3.76642 3.60988 0.313232 7.78674 0.313232H21.6316C25.8084 0.313232 29.2241 3.76642 29.2241 7.98918V21.9861C29.2241 26.2089 25.8084 29.6621 21.6316 29.6621H7.79325C3.61638 29.6621 0.194214 26.2089 0.194214 21.9861Z" fill="#F1CE6A"/>
<path d="M22.4579 23.0451C22.3863 23.0451 22.3473 23.0451 22.3082 23.0451C20.7858 23.0451 19.2634 23.0451 17.7475 23.0451C17.6369 23.0451 17.5784 23.0057 17.5133 22.9202C16.0885 20.8219 14.6637 18.7303 13.2453 16.6321C13.2193 16.5926 13.1933 16.5531 13.1543 16.5005C12.92 16.7768 12.6858 17.0464 12.4581 17.3161C10.8641 19.1907 9.27016 21.0719 7.66968 22.9465C7.62413 22.9991 7.53305 23.0385 7.46799 23.0385C7.0451 23.0451 6.6157 23.0451 6.16028 23.0451C6.21883 22.9728 6.25787 22.9202 6.30341 22.8741C8.33329 20.4865 10.3632 18.0988 12.3931 15.7178C12.4971 15.5994 12.5037 15.5205 12.4126 15.3889C10.3502 12.3567 8.28775 9.32445 6.23184 6.29222C6.21233 6.26591 6.19932 6.23303 6.16679 6.19356C6.21233 6.18698 6.24486 6.18041 6.28389 6.18041C7.81932 6.18041 9.35474 6.18041 10.8902 6.17383C11.0008 6.17383 11.0528 6.23303 11.1049 6.30538C12.4581 8.29836 13.8114 10.2913 15.1646 12.2843C15.1776 12.3106 15.1971 12.3304 15.2232 12.3698C15.2622 12.3304 15.3012 12.2909 15.3338 12.2514C17.0253 10.2585 18.7169 8.27205 20.4085 6.27907C20.4735 6.20014 20.5386 6.17383 20.6427 6.17383C21.0656 6.18041 21.482 6.17383 21.9439 6.17383C19.9075 8.56804 17.8906 10.9359 15.8673 13.317C18.0533 16.5597 20.2458 19.7893 22.4579 23.0451ZM8.11859 7.292C8.15763 7.3512 8.18365 7.39067 8.20968 7.43671C9.45233 9.23237 10.695 11.0346 11.9376 12.8303C14.0261 15.8559 16.1145 18.875 18.2029 21.9006C18.255 21.9796 18.3135 22.0059 18.4046 22.0059C19.0487 21.9993 19.6928 22.0059 20.3434 22.0059C20.3824 22.0059 20.4215 21.9993 20.48 21.9927C20.4345 21.927 20.4085 21.8809 20.3759 21.8349C19.6733 20.8219 18.9706 19.809 18.2745 18.7895C15.6461 14.9877 13.0241 11.1925 10.3957 7.39067C10.3437 7.31831 10.2916 7.27885 10.2005 7.28543C9.54992 7.292 8.89932 7.28543 8.24872 7.28543C8.20317 7.28543 8.17064 7.28543 8.11859 7.292Z" fill="#161616"/>
</svg>
