<svg width="23" height="23" viewBox="0 0 23 23" fill="none" xmlns="http://www.w3.org/2000/svg">
<g clip-path="url(#clip0_274_1432)">
<path d="M10.78 0H12.22H12.39C13.994 0.126525 15.5534 0.5893 16.9667 1.3584C18.38 2.1275 19.6155 3.18567 20.5928 4.46387C21.5701 5.74207 22.2672 7.21186 22.6389 8.77734C23.0106 10.3428 23.0484 11.969 22.75 13.55C22.4062 15.2613 21.6763 16.8715 20.6161 18.2581C19.5558 19.6446 18.1931 20.7708 16.6317 21.551C15.0703 22.3312 13.3516 22.7448 11.6062 22.7603C9.86083 22.7757 8.13498 22.3924 6.56006 21.6399C6.42371 21.5622 6.26349 21.5374 6.10999 21.5701C4.66999 21.9101 3.23003 22.2301 1.78003 22.5701L0.130005 22.97H0V22.79C0.433333 20.8367 0.860029 18.8799 1.28003 16.9199C1.31903 16.8134 1.31903 16.6966 1.28003 16.5901C0.728648 15.5357 0.344065 14.4022 0.140015 13.23C0.0700146 12.84 0.0299707 12.45 -0.0300293 12.05V10.6599C0.0399707 10.1599 0.0999414 9.65991 0.189941 9.15991C0.654577 6.90659 1.78448 4.84442 3.43347 3.23999C5.08246 1.63556 7.17473 0.56265 9.43994 0.159912L10.78 0ZM2.40002 20.6101H2.55005L6.27002 19.77C6.36467 19.7413 6.46422 19.7328 6.56238 19.7449C6.66053 19.7569 6.75507 19.7894 6.83997 19.8401C8.71334 20.8649 10.874 21.2385 12.9828 20.9026C15.0915 20.5667 17.0291 19.5402 18.4913 17.9841C19.9536 16.428 20.8579 14.4305 21.0621 12.3049C21.2664 10.1794 20.7591 8.0461 19.62 6.23999C18.5613 4.60218 17.0322 3.32269 15.2333 2.56958C13.4344 1.81647 11.4498 1.62495 9.54004 2.02002C8.1636 2.28525 6.86306 2.85239 5.73218 3.68066C4.60129 4.50894 3.66817 5.57779 3 6.81006C2.00079 8.56098 1.60712 10.5927 1.88 12.5901C2.05788 13.9114 2.50005 15.1833 3.18005 16.3301C3.24441 16.4348 3.27248 16.5576 3.26001 16.6799C3.09001 17.5199 2.89997 18.3499 2.71997 19.1799C2.60997 19.6299 2.51002 20.1101 2.40002 20.6101Z" fill="white"/>
<path d="M7.99983 6.37981C8.66983 6.37981 8.75983 6.37991 8.99983 6.97991C9.23983 7.57991 9.48982 8.18997 9.73982 8.78997C9.7889 8.86596 9.81501 8.95439 9.81501 9.04485C9.81501 9.13532 9.7889 9.22399 9.73982 9.29998C9.56311 9.56505 9.36587 9.81582 9.14985 10.05C8.88985 10.35 8.86978 10.4199 9.06978 10.7599C9.8844 12.121 11.1252 13.1755 12.5998 13.7599C12.8898 13.8799 12.9998 13.87 13.1998 13.62C13.3998 13.37 13.7198 12.9999 13.9698 12.6799C14.2198 12.3599 14.2599 12.3799 14.5399 12.5099C15.2799 12.8499 16.0098 13.2 16.7398 13.57C16.79 13.6097 16.8311 13.6596 16.8604 13.7165C16.8897 13.7734 16.9066 13.8359 16.9099 13.8998C16.9352 14.2438 16.8711 14.5884 16.724 14.9003C16.5768 15.2122 16.3514 15.4808 16.0698 15.6799C15.6922 15.9372 15.2619 16.1067 14.8103 16.176C14.3586 16.2452 13.8971 16.2124 13.4598 16.08C11.1044 15.5082 9.04496 14.0829 7.67988 12.08C7.1351 11.4127 6.70582 10.659 6.40986 9.85003C6.21635 9.31419 6.17933 8.73421 6.3033 8.17815C6.42726 7.62209 6.70703 7.1128 7.10981 6.70989C7.21921 6.58546 7.35779 6.49015 7.51313 6.43255C7.66848 6.37495 7.83575 6.35678 7.99983 6.37981Z" fill="white"/>
</g>
<defs>
<clipPath id="clip0_274_1432">
<rect width="22.99" height="23" fill="white"/>
</clipPath>
</defs>
</svg>
