<svg width="292" height="186" viewBox="0 0 292 186" fill="none" xmlns="http://www.w3.org/2000/svg">
<path d="M8.512 158.527C12.074 159.561 13.253 160.664 13.253 162.917C13.253 166.143 10.8114 167.987 6.00356 167.987C3.93909 168.028 1.88994 167.651 0 166.883V163.203C1.73941 164.179 3.75217 164.659 5.78615 164.584C8.16081 164.584 8.512 164.152 8.512 163.527C8.512 162.755 7.87653 162.508 4.94164 161.644C1.54688 160.649 0.468241 159.414 0.468241 156.899C0.468241 153.982 2.90144 152.4 7.08218 152.4C8.89408 152.383 10.6848 152.761 12.3081 153.504V157.184C11.0204 156.413 10.0087 155.795 7.10727 155.795C4.96673 155.795 4.73261 156.251 4.73261 156.768C4.73261 157.616 6.1457 157.833 8.512 158.527Z" fill="white"/>
<path d="M22.1664 167.987C17.0993 167.987 15.126 164.9 15.126 161.922V152.647H19.3485V161.907C19.3485 163.704 20.1847 164.615 22.1664 164.615C24.148 164.615 24.9758 163.704 24.9758 161.907V152.647H29.1984V161.907C29.1984 164.869 27.2334 167.987 22.1664 167.987Z" fill="white"/>
<path d="M44.4246 158.048C44.4246 162.292 40.8124 163.45 37.8608 163.45H35.762V167.779H31.5813V152.647H37.8942C40.7789 152.647 44.4246 153.781 44.4246 158.048ZM37.8608 160.109C38.1669 160.15 38.4791 160.125 38.7733 160.037C39.0675 159.949 39.3357 159.8 39.5572 159.6C39.7787 159.401 39.9476 159.158 40.0507 158.888C40.1538 158.619 40.1884 158.332 40.1518 158.048C40.1518 156.505 39.0983 155.996 37.8608 155.996H35.762V160.109H37.8608Z" fill="white"/>
<path d="M46.2976 152.647H58.7311V156.004H50.5202V159.09H58.7311V162.447H50.5202V164.414H58.7311V167.771H46.2976V152.647Z" fill="white"/>
<path d="M73.8906 158.048C73.9535 159.003 73.7163 159.955 73.2075 160.788C72.6988 161.622 71.9401 162.302 71.0226 162.748L71.24 163.133C71.8504 164.329 72.4775 164.545 73.3471 164.545C74.0827 164.489 74.7919 164.266 75.4124 163.897V167.308C74.5983 167.759 73.6607 167.984 72.7116 167.956C70.2952 167.956 68.9573 166.984 67.8118 164.646L65.5375 160.016H67.0843C68.3302 160.016 69.5928 159.538 69.5928 157.956C69.5928 156.374 68.3051 155.903 67.0843 155.903H64.8351V167.701H60.6125V152.647H67.0843C70.0443 152.647 73.8906 153.781 73.8906 158.048Z" fill="white"/>
<path d="M76.8171 152.647H80.9979V164.445H89.2758V167.802H76.8171V152.647Z" fill="white"/>
<path d="M97.9298 152.4L105.907 167.771H101.383L100.84 166.559H94.9865L94.4514 167.771H89.9194L97.9298 152.4ZM99.5017 163.635L97.9298 160.124L96.3578 163.635H99.5017Z" fill="white"/>
<path d="M107.78 167.771V155.973H102.855V152.647H116.935V156.004H112.01V167.802L107.78 167.771Z" fill="white"/>
<path d="M118.541 152.647H122.722V167.802H118.541V152.647Z" fill="white"/>
<path d="M128.031 152.647L131.476 159.9L134.921 152.647H139.445L131.468 168.018L123.499 152.647H128.031Z" fill="white"/>
<path d="M140.156 152.647H152.589V156.004H144.378V159.09H152.589V162.447H144.378V164.414H152.589V167.771H140.156V152.647Z" fill="white"/>
<path d="M167.246 159.329C170.591 160.448 172.64 161.359 172.64 163.851C172.64 166.667 170.39 167.987 166.686 167.987C164.691 168.007 162.715 167.631 160.892 166.883V165.279C162.628 166.229 164.618 166.71 166.636 166.667C169.429 166.667 170.909 165.896 170.909 163.982C170.909 162.269 169.454 161.667 166.544 160.711C163.492 159.669 161.36 158.72 161.36 156.251C161.36 153.457 163.985 152.393 166.987 152.393C168.755 152.39 170.498 152.768 172.079 153.496V155.093C170.586 154.159 168.816 153.677 167.012 153.712C164.83 153.712 162.999 154.314 162.999 156.204C162.999 157.917 164.688 158.457 167.246 159.329Z" fill="white"/>
<path d="M184.597 152.4C189.664 152.4 193.368 155.487 193.368 160.194C193.368 164.901 189.664 167.987 184.597 167.987C179.53 167.987 175.817 164.901 175.817 160.194C175.817 155.487 179.496 152.4 184.597 152.4ZM184.597 166.667C188.777 166.667 191.721 164.152 191.721 160.194C191.721 156.235 188.744 153.72 184.597 153.72C180.449 153.72 177.464 156.228 177.464 160.194C177.464 164.16 180.416 166.667 184.597 166.667Z" fill="white"/>
<path d="M197.089 152.647H209.146V153.92H198.677V161.845H209.146V163.126H198.677V167.802H197.089V152.647Z" fill="white"/>
<path d="M217.867 167.771V153.882H211.253V152.647H226.078V153.92H219.464V167.809L217.867 167.771Z" fill="white"/>
<path d="M229.414 152.647L233.378 164.221L237.408 152.57L241.455 164.221L245.443 152.647H247.116L241.455 167.987L237.374 156.644L233.319 167.987L227.725 152.647H229.414Z" fill="white"/>
<path d="M253.412 152.4L260.636 167.771H258.922L257.35 164.306H249.465L247.893 167.771H246.179L253.412 152.4ZM256.806 163.11L253.412 155.58L250.009 163.11H256.806Z" fill="white"/>
<path d="M275.737 157.508C275.737 160.996 272.685 162.007 270.386 162.246L271.698 164.021C272.919 165.711 273.956 166.598 275.361 166.598C276.168 166.576 276.954 166.352 277.635 165.95V167.339C276.909 167.756 276.073 167.98 275.219 167.987C273.27 167.987 271.932 166.837 270.411 164.677L267.944 161.119H269.048C270.854 161.119 274.014 160.649 274.014 157.508C274.014 154.368 270.854 153.89 269.048 153.89H265.059V167.779H263.462V152.647H269.048C271.657 152.647 275.737 153.419 275.737 157.508Z" fill="white"/>
<path d="M279.918 152.647H291.975V153.92H281.531V161.135H292V162.416H281.531V166.459H292V167.74H279.918V152.647Z" fill="white"/>
<path d="M71.4239 185.696V177.061H67.2432V176.606H76.2401V177.061H72.0594V185.696H71.4239Z" fill="white"/>
<path d="M84.9279 176.606H85.4965V182.007H93.373V176.606H93.9332V185.696H93.373V182.501H85.4965V185.696H84.9279V176.606Z" fill="white"/>
<path d="M103.783 176.606H110.957V177.061H104.327V182.046H110.941V182.501H104.327V185.24H110.941V185.696H103.766L103.783 176.606Z" fill="white"/>
<path d="M131.208 176.606H138.383V177.061H131.769V182.308H138.383V182.763H131.769V185.696H131.208V176.606Z" fill="white"/>
<path d="M147.522 176.606H148.09V185.696H147.522V176.606Z" fill="white"/>
<path d="M157.932 176.467L165.95 184.553V176.606H166.519V185.827L158.5 177.74V185.695H157.932V176.467Z" fill="white"/>
<path d="M176.36 176.606H183.535V177.061H176.921V182.046H183.535V182.501H176.921V185.24H183.535V185.696H176.36V176.606Z" fill="white"/>
<path d="M195.885 180.749C197.858 181.436 199.229 181.961 199.229 183.488C199.229 185.016 197.908 185.803 195.885 185.803C194.698 185.815 193.522 185.588 192.44 185.14V184.492C193.483 185.057 194.675 185.346 195.885 185.325C197.615 185.325 198.669 184.831 198.669 183.465C198.669 182.308 197.674 181.922 195.926 181.297C194.179 180.672 192.716 180.14 192.716 178.666C192.716 177.015 194.321 176.459 195.952 176.459C197.002 176.46 198.038 176.684 198.978 177.115V177.771C198.084 177.217 197.029 176.926 195.952 176.938C194.647 176.938 193.309 177.323 193.309 178.666C193.267 179.839 194.321 180.209 195.885 180.749Z" fill="white"/>
<path d="M211.454 185.696V177.061H207.273V176.606H216.27V177.061H212.089V185.696H211.454Z" fill="white"/>
<path d="M82.2601 71.1655L98.4062 79.8384V93.6733L146.267 119.198L194.12 94.144V61.7287L146.267 86.9371L82.2601 52.6314V34.1745L146.368 0L192.557 24.8304L176.135 33.5341L146.267 17.5618L97.5617 43.5573L146.267 69.2442L211.194 34.9153L211.278 101.706L145.883 136.552L82.2852 102.439L82.2601 71.1655Z" fill="url(#paint0_linear_219_299)"/>
<path d="M159.863 52.485L156.159 50.5791L169.864 43.4649L156.009 35.8028L159.378 34.0281L176.896 43.4417L159.863 52.485Z" fill="url(#paint1_linear_219_299)"/>
<path d="M132.789 52.6316L115.681 43.4417L133.19 34.0281L136.727 35.8799L122.864 43.4649L136.568 50.6331L132.789 52.6316Z" fill="url(#paint2_linear_219_299)"/>
<path d="M147.965 58.8274L144.62 58.92V28.0248L147.965 27.9785V58.8274Z" fill="url(#paint3_linear_219_299)"/>
<path d="M194.12 61.7287L208.544 52.9863V100.834L194.12 93.6733V61.7287Z" fill="url(#paint4_linear_219_299)"/>
<path d="M97.5619 43.5572L84.9862 35.5788L145.674 4.35181L146.268 17.5617L97.5619 43.5572Z" fill="url(#paint5_linear_219_299)"/>
<path d="M98.4065 93.6733V107.354L144.704 132.346L145.674 118.882L98.4065 93.6733Z" fill="url(#paint6_linear_219_299)"/>
<defs>
<linearGradient id="paint0_linear_219_299" x1="146.769" y1="-39.599" x2="146.769" y2="147.501" gradientUnits="userSpaceOnUse">
<stop stop-color="#B27F2A"/>
<stop offset="0.06" stop-color="#B7862E"/>
<stop offset="0.14" stop-color="#C49939"/>
<stop offset="0.24" stop-color="#DAB84C"/>
<stop offset="0.33" stop-color="#F4DD62"/>
<stop offset="0.52" stop-color="#F4E38B"/>
<stop offset="0.66" stop-color="#F4DD62"/>
<stop offset="0.74" stop-color="#F2DA60"/>
<stop offset="0.81" stop-color="#EBD05A"/>
<stop offset="0.87" stop-color="#DFBF50"/>
<stop offset="0.93" stop-color="#CEA742"/>
<stop offset="0.99" stop-color="#B98930"/>
<stop offset="1" stop-color="#B27F2A"/>
</linearGradient>
<linearGradient id="paint1_linear_219_299" x1="74.6431" y1="34.9849" x2="234.284" y2="53.2257" gradientUnits="userSpaceOnUse">
<stop stop-color="#B27F2A"/>
<stop offset="0.06" stop-color="#B7862E"/>
<stop offset="0.14" stop-color="#C49939"/>
<stop offset="0.24" stop-color="#DAB84C"/>
<stop offset="0.33" stop-color="#F4DD62"/>
<stop offset="0.52" stop-color="#F4E38B"/>
<stop offset="0.66" stop-color="#F4DD62"/>
<stop offset="1" stop-color="#B27F2A"/>
</linearGradient>
<linearGradient id="paint2_linear_219_299" x1="74.3422" y1="37.6238" x2="233.983" y2="55.8646" gradientUnits="userSpaceOnUse">
<stop stop-color="#B27F2A"/>
<stop offset="0.06" stop-color="#B7862E"/>
<stop offset="0.14" stop-color="#C49939"/>
<stop offset="0.24" stop-color="#DAB84C"/>
<stop offset="0.33" stop-color="#F4DD62"/>
<stop offset="0.52" stop-color="#F4E38B"/>
<stop offset="0.66" stop-color="#F4DD62"/>
<stop offset="1" stop-color="#B27F2A"/>
</linearGradient>
<linearGradient id="paint3_linear_219_299" x1="74.4758" y1="36.4585" x2="234.117" y2="54.6993" gradientUnits="userSpaceOnUse">
<stop stop-color="#B27F2A"/>
<stop offset="0.06" stop-color="#B7862E"/>
<stop offset="0.14" stop-color="#C49939"/>
<stop offset="0.24" stop-color="#DAB84C"/>
<stop offset="0.33" stop-color="#F4DD62"/>
<stop offset="0.52" stop-color="#F4E38B"/>
<stop offset="0.66" stop-color="#F4DD62"/>
<stop offset="1" stop-color="#B27F2A"/>
</linearGradient>
<linearGradient id="paint4_linear_219_299" x1="200.149" y1="151.104" x2="201.651" y2="46.9949" gradientUnits="userSpaceOnUse">
<stop offset="0.23" stop-color="#B27F2A"/>
<stop offset="0.26" stop-color="#B7862E"/>
<stop offset="0.31" stop-color="#C49939"/>
<stop offset="0.36" stop-color="#DAB84C"/>
<stop offset="0.41" stop-color="#F4DD62"/>
<stop offset="0.52" stop-color="#F4E38B"/>
<stop offset="0.61" stop-color="#F4DD62"/>
<stop offset="0.85" stop-color="#B27F2A"/>
</linearGradient>
<linearGradient id="paint5_linear_219_299" x1="157.004" y1="1.73606" x2="95.7601" y2="44.9034" gradientUnits="userSpaceOnUse">
<stop stop-color="#B27F2A"/>
<stop offset="0.02" stop-color="#B5832C" stop-opacity="0.96"/>
<stop offset="0.05" stop-color="#BC8D32" stop-opacity="0.85"/>
<stop offset="0.09" stop-color="#C79D3C" stop-opacity="0.68"/>
<stop offset="0.14" stop-color="#D7B44A" stop-opacity="0.44"/>
<stop offset="0.18" stop-color="#ECD15B" stop-opacity="0.13"/>
<stop offset="0.2" stop-color="#F4DD62" stop-opacity="0"/>
<stop offset="0.37" stop-color="#F4E38B"/>
<stop offset="0.52" stop-color="#F4DD62"/>
<stop offset="1" stop-color="#B27F2A"/>
</linearGradient>
<linearGradient id="paint6_linear_219_299" x1="106.567" y1="105.973" x2="158.349" y2="134.532" gradientUnits="userSpaceOnUse">
<stop stop-color="#B27F2A"/>
<stop offset="0.03" stop-color="#B7862E"/>
<stop offset="0.08" stop-color="#C49939"/>
<stop offset="0.14" stop-color="#DAB84C"/>
<stop offset="0.2" stop-color="#F4DD62"/>
<stop offset="0.37" stop-color="#F4E38B"/>
<stop offset="0.65" stop-color="#F4DD62" stop-opacity="0"/>
<stop offset="1" stop-color="#B27F2A"/>
</linearGradient>
</defs>
</svg>
