<svg width="296" height="200" viewBox="0 0 296 200" fill="none" xmlns="http://www.w3.org/2000/svg">
<path d="M8.61654 169.354C12.2254 170.492 13.4108 171.701 13.4108 174.166C13.4108 177.698 10.9421 179.711 6.07502 179.711C3.58374 179.711 1.37623 179.19 0 178.503V174.475C1.30592 175.353 3.27484 175.992 5.86156 175.992C8.25992 175.992 8.61403 175.518 8.61403 174.831C8.61403 173.953 7.97362 173.718 5.00518 172.77C1.56459 171.679 0.472139 170.327 0.472139 167.578C0.472139 164.378 2.94082 162.648 7.16496 162.648C9.34735 162.648 11.0802 163.169 12.4589 163.857V167.887C11.153 167.009 10.1334 166.369 7.19007 166.369C5.03029 166.369 4.79171 166.866 4.79171 167.435C4.79422 168.358 6.21817 168.596 8.61654 169.354Z" fill="white"/>
<path d="M22.4291 179.711C17.3034 179.711 15.3093 176.298 15.3093 173.075V162.883H19.5812V173.075C19.5812 175.044 20.4602 176.037 22.4291 176.037C24.398 176.037 25.277 175.042 25.277 173.075V162.883H29.5488V173.075C29.5488 176.298 27.5573 179.711 22.4291 179.711Z" fill="white"/>
<path d="M44.9536 168.809C44.9536 173.457 41.297 174.736 38.3085 174.736H36.1964V179.476H31.9246V162.883H38.311C41.2995 162.883 44.9536 164.162 44.9536 168.809ZM38.3085 171.062C39.5667 171.062 40.634 170.54 40.634 168.809C40.634 167.079 39.5667 166.557 38.3085 166.557H36.1964V171.062H38.3085Z" fill="white"/>
<path d="M46.8523 162.883H59.4318V166.557H51.1242V169.971H59.4318V173.645H51.1242V175.802H59.4318V179.476H46.8523V162.883Z" fill="white"/>
<path d="M74.7636 168.809C74.7636 171.558 73.41 173.123 71.868 173.953L72.0815 174.379C72.6993 175.683 73.3397 175.919 74.2186 175.919C74.9068 175.919 75.5723 175.611 76.3081 175.207V178.999C75.5723 179.403 74.9068 179.711 73.5782 179.711C71.1322 179.711 69.781 178.645 68.6183 176.085L66.3153 171.059H67.8824C69.1406 171.059 70.4466 170.537 70.4466 168.807C70.4466 167.076 69.1406 166.555 67.8824 166.555H65.6046V179.473H61.3328V162.881H67.8849C70.871 162.883 74.7636 164.162 74.7636 168.809Z" fill="white"/>
<path d="M77.7322 162.883H82.004V175.802H90.3117V179.476H77.7322V162.883Z" fill="white"/>
<path d="M99.094 162.645L107.163 179.473H102.582L102.037 178.146H96.1506L95.6057 179.473H91.0249L99.094 162.645ZM100.684 174.946L99.094 171.107L97.5043 174.946H100.684Z" fill="white"/>
<path d="M109.061 179.476V166.557H104.076V162.883H118.316V166.557H113.331V179.476H109.061Z" fill="white"/>
<path d="M119.979 162.883H124.25V179.476H119.979V162.883Z" fill="white"/>
<path d="M129.544 162.883L133.033 170.823L136.521 162.883H141.102L133.033 179.711L124.964 162.883H129.544Z" fill="white"/>
<path d="M141.815 162.883H154.395V166.557H146.087V169.971H154.395V173.645H146.087V175.802H154.395V179.476H141.815V162.883Z" fill="white"/>
<path d="M169.229 170.231C172.599 171.463 174.689 172.458 174.689 175.185C174.689 178.264 172.411 179.711 168.659 179.711C166.381 179.711 164.174 179.19 162.797 178.502V176.747C164.103 177.625 166.263 178.264 168.611 178.264C171.437 178.264 172.931 177.459 172.931 175.325C172.931 173.452 171.459 172.812 168.516 171.746C165.429 170.608 163.27 169.567 163.27 166.863C163.27 163.806 165.927 162.645 168.965 162.645C171.007 162.645 172.74 163.167 174.116 163.854V165.607C172.81 164.729 171.221 164.09 168.991 164.09C166.783 164.09 164.932 164.754 164.932 166.816C164.932 168.689 166.642 169.283 169.229 170.231Z" fill="white"/>
<path d="M186.746 162.645C191.872 162.645 195.624 166.058 195.624 171.177C195.624 176.296 191.874 179.709 186.746 179.709C181.618 179.709 177.868 176.296 177.868 171.177C177.868 166.058 181.618 162.645 186.746 162.645ZM186.746 178.267C190.948 178.267 193.961 175.518 193.961 171.179C193.961 166.841 190.948 164.092 186.746 164.092C182.544 164.092 179.531 166.841 179.531 171.179C179.531 175.516 182.544 178.267 186.746 178.267Z" fill="white"/>
<path d="M199.421 162.883H211.621V164.283H201.036V172.958H211.621V174.357H201.036V179.476H199.421V162.883Z" fill="white"/>
<path d="M220.449 179.476V164.283H213.756V162.883H228.756V164.283H222.063V179.476H220.449Z" fill="white"/>
<path d="M232.127 162.883L236.137 175.588L240.221 162.835L244.279 175.588L248.315 162.883H250.048L244.352 179.711L240.223 167.292L236.117 179.711L230.422 162.883H232.127Z" fill="white"/>
<path d="M256.407 162.645L263.717 179.473H261.984L260.395 175.681H252.419L250.829 179.473H249.096L256.407 162.645ZM259.85 174.379L256.407 166.131L252.966 174.379H259.85Z" fill="white"/>
<path d="M278.956 168.24C278.956 172.057 275.872 173.171 273.544 173.431L274.873 175.375C276.106 177.223 277.151 178.196 278.574 178.196C279.476 178.196 280.142 177.888 280.877 177.484V179.002C280.142 179.405 279.476 179.714 278.431 179.714C276.462 179.714 275.109 178.457 273.567 176.087L271.076 172.2H272.263C274.092 172.2 277.296 171.678 277.296 168.243C277.296 164.807 274.092 164.285 272.263 164.285H268.228V179.478H266.613V162.886H272.261C274.873 162.883 278.956 163.784 278.956 168.24Z" fill="white"/>
<path d="M283.251 162.883H295.451V164.283H284.866V172.248H295.451V173.647H284.866V178.079H295.451V179.478H283.251V162.883Z" fill="white"/>
<path d="M82.4562 77.9205L98.7952 87.4179V102.566L147.217 130.516L195.639 103.08V67.5854L147.217 95.1924L82.4562 57.6291V37.4179L147.32 0L194.057 27.1907L177.436 36.7207L147.217 19.2306L97.9363 47.6953L147.217 75.8164L212.912 38.2304L212.995 111.363L146.833 149.511L82.4838 112.168L82.4562 77.9205Z" fill="url(#paint0_linear_577_1313)"/>
<path d="M160.975 57.4653L157.223 55.3762L171.088 47.5891L157.074 39.2027L160.487 37.2566L178.205 47.5641L160.975 57.4653Z" fill="url(#paint1_linear_577_1313)"/>
<path d="M133.583 57.6283L116.27 47.5641L133.99 37.2566L137.566 39.2855L123.535 47.5891L137.403 55.4364L133.583 57.6283Z" fill="url(#paint2_linear_577_1313)"/>
<path d="M148.935 64.4148L145.547 64.5126V30.681L148.935 30.6309V64.4148Z" fill="url(#paint3_linear_577_1313)"/>
<path d="M195.639 67.5852L210.225 58.0176V110.405L195.639 102.565V67.5852Z" fill="url(#paint4_linear_577_1313)"/>
<path d="M97.9364 47.6951L85.2087 38.9576L146.617 4.76489L147.217 19.2305L97.9364 47.6951Z" fill="url(#paint5_linear_577_1313)"/>
<path d="M98.7953 102.565V117.54L145.632 144.909L146.617 130.167L98.7953 102.565Z" fill="url(#paint6_linear_577_1313)"/>
<path d="M66.8855 190.016L71.0493 199.859H70.4541L69.3717 197.281H64.4017L63.3193 199.859H62.7241L66.8855 190.016ZM69.1759 196.797L66.8855 191.32L64.5951 196.797H69.1759Z" fill="white"/>
<path d="M80.7534 192.955C80.7534 194.244 80.0879 194.966 79.2692 195.352C80.2687 195.533 81.3235 196.087 81.3235 197.569C81.3235 199.511 79.4902 199.857 78.3952 199.857H74.3845V190.154H77.1872C78.5333 190.156 80.7534 190.585 80.7534 192.955ZM77.1847 195.27C78.2395 195.27 80.1682 195.034 80.1682 192.955C80.1682 190.876 78.2395 190.64 77.1847 190.64H74.937V195.27H77.1847ZM78.3927 199.375C79.2541 199.375 80.7383 199.265 80.7383 197.572C80.7383 195.867 79.2541 195.756 78.3927 195.756H74.937V199.375H78.3927Z" fill="white"/>
<path d="M90.0681 190.016C93.0667 190.016 95.2039 192.012 95.2039 195.007C95.2039 198.001 93.0667 199.997 90.0681 199.997C87.0695 199.997 84.9298 198.001 84.9298 195.007C84.9298 192.012 87.067 190.016 90.0681 190.016ZM90.0681 199.486C92.7477 199.486 94.6212 197.683 94.6212 195.007C94.6212 192.331 92.7477 190.527 90.0681 190.527C87.3885 190.527 85.5125 192.331 85.5125 195.007C85.5125 197.683 87.3885 199.486 90.0681 199.486Z" fill="white"/>
<path d="M98.7123 190.156L102.281 198.696L105.85 190.156H106.445L102.281 200L98.1171 190.156H98.7123Z" fill="white"/>
<path d="M109.637 190.156H116.716V190.643H110.192V195.967H116.716V196.451H110.192V199.375H116.716V199.862H109.637V190.156Z" fill="white"/>
<path d="M128.932 190.016L133.096 199.859H132.5L131.418 197.281H126.448L125.366 199.859H124.77L128.932 190.016ZM131.222 196.797L128.932 191.32L126.641 196.797H131.222Z" fill="white"/>
<path d="M136.428 190.003L144.341 198.64V190.156H144.896V200L136.983 191.362V199.862H136.428V190.003Z" fill="white"/>
<path d="M157.373 195.007C157.373 198.001 155.236 199.859 152.235 199.859H149.058V190.156H152.235C155.236 190.156 157.373 192.012 157.373 195.007ZM152.235 199.375C154.914 199.375 156.79 197.685 156.79 195.009C156.79 192.333 154.917 190.643 152.235 190.643H149.61V199.375H152.235Z" fill="white"/>
<path d="M172.627 192.955C172.627 194.244 171.962 194.966 171.143 195.352C172.142 195.533 173.197 196.087 173.197 197.569C173.197 199.511 171.364 199.857 170.269 199.857H166.258V190.154H169.061C170.405 190.156 172.627 190.585 172.627 192.955ZM169.058 195.27C170.113 195.27 172.042 195.034 172.042 192.955C172.042 190.876 170.113 190.64 169.058 190.64H166.811V195.27H169.058ZM170.266 199.375C171.128 199.375 172.612 199.265 172.612 197.572C172.612 195.867 171.128 195.756 170.266 195.756H166.811V199.375H170.266Z" fill="white"/>
<path d="M177.082 190.156H184.162V190.643H177.637V195.967H184.162V196.451H177.637V199.375H184.162V199.862H177.082V190.156Z" fill="white"/>
<path d="M187.713 190.156L191.239 196.188L194.765 190.156H195.403L191.515 196.755V199.859H190.96V196.755L187.073 190.156H187.713Z" fill="white"/>
<path d="M202.761 190.016C205.76 190.016 207.897 192.012 207.897 195.007C207.897 198.001 205.76 199.997 202.761 199.997C199.763 199.997 197.623 198.001 197.623 195.007C197.623 192.012 199.76 190.016 202.761 190.016ZM202.761 199.486C205.441 199.486 207.314 197.683 207.314 195.007C207.314 192.331 205.441 190.527 202.761 190.527C200.082 190.527 198.206 192.331 198.206 195.007C198.206 197.683 200.079 199.486 202.761 199.486Z" fill="white"/>
<path d="M211.782 190.003L219.695 198.64V190.156H220.25V200L212.337 191.362V199.862H211.782V190.003Z" fill="white"/>
<path d="M232.729 195.007C232.729 198.001 230.592 199.859 227.591 199.859H224.414V190.156H227.591C230.592 190.156 232.729 192.012 232.729 195.007ZM227.591 199.375C230.271 199.375 232.147 197.685 232.147 195.009C232.147 192.333 230.273 190.643 227.591 190.643H224.969V199.375H227.591Z" fill="white"/>
<defs>
<linearGradient id="paint0_linear_577_1313" x1="147.726" y1="-43.3548" x2="147.726" y2="161.502" gradientUnits="userSpaceOnUse">
<stop stop-color="#B27F2A"/>
<stop offset="0.0576" stop-color="#B7862E"/>
<stop offset="0.1404" stop-color="#C49939"/>
<stop offset="0.2379" stop-color="#DAB84C"/>
<stop offset="0.3333" stop-color="#F4DD62"/>
<stop offset="0.5161" stop-color="#F4E38B"/>
<stop offset="0.6613" stop-color="#F4DD62"/>
<stop offset="0.7444" stop-color="#F2DA60"/>
<stop offset="0.8112" stop-color="#EBD05A"/>
<stop offset="0.8724" stop-color="#DFBF50"/>
<stop offset="0.9302" stop-color="#CEA742"/>
<stop offset="0.9852" stop-color="#B98930"/>
<stop offset="1" stop-color="#B27F2A"/>
</linearGradient>
<linearGradient id="paint1_linear_577_1313" x1="74.748" y1="38.3089" x2="236.579" y2="55.3931" gradientUnits="userSpaceOnUse">
<stop stop-color="#B27F2A"/>
<stop offset="0.0576" stop-color="#B7862E"/>
<stop offset="0.1404" stop-color="#C49939"/>
<stop offset="0.2379" stop-color="#DAB84C"/>
<stop offset="0.3333" stop-color="#F4DD62"/>
<stop offset="0.5161" stop-color="#F4E38B"/>
<stop offset="0.6613" stop-color="#F4DD62"/>
<stop offset="1" stop-color="#B27F2A"/>
</linearGradient>
<linearGradient id="paint2_linear_577_1313" x1="74.4433" y1="41.1946" x2="236.275" y2="58.2788" gradientUnits="userSpaceOnUse">
<stop stop-color="#B27F2A"/>
<stop offset="0.0576" stop-color="#B7862E"/>
<stop offset="0.1404" stop-color="#C49939"/>
<stop offset="0.2379" stop-color="#DAB84C"/>
<stop offset="0.3333" stop-color="#F4DD62"/>
<stop offset="0.5161" stop-color="#F4E38B"/>
<stop offset="0.6613" stop-color="#F4DD62"/>
<stop offset="1" stop-color="#B27F2A"/>
</linearGradient>
<linearGradient id="paint3_linear_577_1313" x1="74.5779" y1="39.9215" x2="236.409" y2="57.0056" gradientUnits="userSpaceOnUse">
<stop stop-color="#B27F2A"/>
<stop offset="0.0576" stop-color="#B7862E"/>
<stop offset="0.1404" stop-color="#C49939"/>
<stop offset="0.2379" stop-color="#DAB84C"/>
<stop offset="0.3333" stop-color="#F4DD62"/>
<stop offset="0.5161" stop-color="#F4E38B"/>
<stop offset="0.6613" stop-color="#F4DD62"/>
<stop offset="1" stop-color="#B27F2A"/>
</linearGradient>
<linearGradient id="paint4_linear_577_1313" x1="201.739" y1="165.448" x2="203.513" y2="51.4635" gradientUnits="userSpaceOnUse">
<stop offset="0.2319" stop-color="#B27F2A"/>
<stop offset="0.2619" stop-color="#B7862E"/>
<stop offset="0.3051" stop-color="#C49939"/>
<stop offset="0.356" stop-color="#DAB84C"/>
<stop offset="0.4057" stop-color="#F4DD62"/>
<stop offset="0.5161" stop-color="#F4E38B"/>
<stop offset="0.6064" stop-color="#F4DD62"/>
<stop offset="0.847" stop-color="#B27F2A"/>
</linearGradient>
<linearGradient id="paint5_linear_577_1313" x1="158.082" y1="1.90398" x2="92.9541" y2="44.3156" gradientUnits="userSpaceOnUse">
<stop stop-color="#B27F2A"/>
<stop offset="0.0345" stop-color="#B7862E" stop-opacity="0.8271"/>
<stop offset="0.084" stop-color="#C49939" stop-opacity="0.5788"/>
<stop offset="0.1423" stop-color="#DAB84C" stop-opacity="0.2863"/>
<stop offset="0.1994" stop-color="#F4DD62" stop-opacity="0"/>
<stop offset="0.3676" stop-color="#F4E38B"/>
<stop offset="0.5216" stop-color="#F4DD62"/>
<stop offset="1" stop-color="#B27F2A"/>
</linearGradient>
<linearGradient id="paint6_linear_577_1313" x1="107.051" y1="116.031" x2="161.291" y2="143.676" gradientUnits="userSpaceOnUse">
<stop stop-color="#B27F2A"/>
<stop offset="0.0345" stop-color="#B7862E"/>
<stop offset="0.084" stop-color="#C49939"/>
<stop offset="0.1423" stop-color="#DAB84C"/>
<stop offset="0.1994" stop-color="#F4DD62"/>
<stop offset="0.3676" stop-color="#F4E38B"/>
<stop offset="0.6544" stop-color="#F4DD62" stop-opacity="0"/>
<stop offset="1" stop-color="#B27F2A"/>
</linearGradient>
</defs>
</svg>
