<svg width="174" height="42" viewBox="0 0 174 42" fill="none" xmlns="http://www.w3.org/2000/svg">
<path d="M51.3201 12.37C54.3401 13.32 55.3301 14.34 55.3301 16.4C55.3301 19.36 53.2701 21.04 49.2001 21.04C47.1201 21.04 45.2701 20.6 44.1201 20.03V16.66C45.2101 17.39 46.8601 17.93 49.0201 17.93C51.0201 17.93 51.3201 17.53 51.3201 16.96C51.3201 16.23 50.7801 16.03 48.3001 15.23C45.4201 14.32 44.5101 13.19 44.5101 10.88C44.5101 8.2 46.5701 6.75 50.1101 6.75C51.9401 6.75 53.3901 7.19 54.5401 7.76V11.13C53.4501 10.4 52.5901 9.86 50.1301 9.86C48.3201 9.86 48.1201 10.28 48.1201 10.75C48.1201 11.53 49.3101 11.73 51.3201 12.37Z" fill="white"/>
<path d="M62.8699 21.0401C58.5799 21.0401 56.9099 18.1801 56.9099 15.4801V6.94006H60.4799V15.4801C60.4799 17.1301 61.2099 17.9601 62.8599 17.9601C64.5099 17.9601 65.2399 17.1301 65.2399 15.4801V6.94006H68.8099V15.4801C68.8199 18.1801 67.1599 21.0401 62.8699 21.0401Z" fill="white"/>
<path d="M81.7101 11.9101C81.7101 15.8001 78.6501 16.8701 76.1501 16.8701H74.3801V20.8401H70.8101V6.94006H76.1501C78.6501 6.95006 81.7101 8.02006 81.7101 11.9101ZM76.1501 13.8001C77.2001 13.8001 78.1001 13.3601 78.1001 11.9101C78.1001 10.4601 77.2101 10.0201 76.1501 10.0201H74.3801V13.7901H76.1501V13.8001Z" fill="white"/>
<path d="M83.29 6.94995H93.81V10.03H86.86V12.8899H93.81V15.97H86.86V17.7799H93.81V20.86H83.29V6.94995Z" fill="white"/>
<path d="M106.64 11.9101C106.64 14.2101 105.51 15.5201 104.22 16.2201L104.4 16.5801C104.92 17.6701 105.45 17.8701 106.19 17.8701C106.77 17.8701 107.32 17.6101 107.94 17.2701V20.4501C107.32 20.7901 106.77 21.0501 105.66 21.0501C103.62 21.0501 102.48 20.1601 101.51 18.0101L99.5799 13.8001H100.89C101.94 13.8001 103.03 13.3601 103.03 11.9101C103.03 10.4601 101.94 10.0201 100.89 10.0201H98.9799V20.8401H95.4099V6.94006H100.89C103.38 6.95006 106.64 8.02006 106.64 11.9101Z" fill="white"/>
<path d="M109.12 6.94995H112.69V17.77H119.64V20.8499H109.12V6.94995Z" fill="white"/>
<path d="M126.99 6.75L133.74 20.84H129.91L129.45 19.73H124.53L124.07 20.84H120.24L126.99 6.75ZM128.32 17.05L126.99 13.83L125.66 17.05H128.32Z" fill="white"/>
<path d="M135.32 20.8401V10.0201H131.15V6.94006H143.06V10.0201H138.89V20.8401H135.32Z" fill="white"/>
<path d="M144.45 6.94995H148.02V20.8499H144.45V6.94995Z" fill="white"/>
<path d="M152.45 6.94995L155.37 13.5999L158.29 6.94995H162.12L155.37 21.04L148.62 6.94995H152.45Z" fill="white"/>
<path d="M162.72 6.94995H173.24V10.03H166.29V12.8899H173.24V15.97H166.29V17.7799H173.24V20.86H162.72V6.94995Z" fill="white"/>
<path d="M48.2701 30.58C50.1901 31.28 51.3801 31.85 51.3801 33.41C51.3801 35.17 50.0801 36 47.9401 36C46.6401 36 45.3801 35.7 44.6001 35.31V34.31C45.3401 34.81 46.5801 35.18 47.9201 35.18C49.5301 35.18 50.3801 34.72 50.3801 33.5C50.3801 32.43 49.5401 32.06 47.8601 31.46C46.1001 30.81 44.8701 30.21 44.8701 28.67C44.8701 26.92 46.3901 26.26 48.1201 26.26C49.2801 26.26 50.2701 26.56 51.0601 26.95V27.95C50.3201 27.45 49.4101 27.08 48.1401 27.08C46.8801 27.08 45.8201 27.46 45.8201 28.64C45.8201 29.7 46.7901 30.04 48.2701 30.58Z" fill="white"/>
<path d="M58.26 26.24C61.18 26.24 63.32 28.19 63.32 31.11C63.32 34.03 61.18 35.98 58.26 35.98C55.34 35.98 53.2 34.03 53.2 31.11C53.2 28.19 55.34 26.24 58.26 26.24ZM58.26 35.17C60.66 35.17 62.38 33.6 62.38 31.12C62.38 28.64 60.66 27.07 58.26 27.07C55.86 27.07 54.14 28.64 54.14 31.12C54.14 33.6 55.86 35.17 58.26 35.17Z" fill="white"/>
<path d="M65.49 26.38H72.45V27.18H66.41V32.14H72.45V32.94H66.41V35.86H65.49V26.38Z" fill="white"/>
<path d="M77.4899 35.86V27.18H73.6699V26.38H82.2299V27.18H78.4099V35.86H77.4899Z" fill="white"/>
<path d="M84.1499 26.38L86.4399 33.64L88.7699 26.36L91.0899 33.64L93.3899 26.38H94.3799L91.1299 35.99L88.7699 28.9L86.4299 35.99L83.1799 26.38H84.1499Z" fill="white"/>
<path d="M98.0001 26.24L102.17 35.85H101.18L100.27 33.68H95.7201L94.8101 35.85H93.8201L98.0001 26.24ZM99.9601 32.95L98.0001 28.23L96.0401 32.94H99.9601V32.95Z" fill="white"/>
<path d="M110.86 29.44C110.86 31.62 109.1 32.26 107.77 32.41L108.53 33.52C109.23 34.58 109.83 35.13 110.64 35.13C111.15 35.13 111.53 34.95 111.95 34.72V35.59C111.53 35.82 111.15 36 110.56 36C109.44 36 108.66 35.28 107.78 33.93L106.36 31.71H107.04C108.08 31.71 109.91 31.41 109.91 29.45C109.91 27.49 108.08 27.19 107.04 27.19H104.74V35.87H103.82V26.39H107.04C108.53 26.38 110.86 26.89 110.86 29.44Z" fill="white"/>
<path d="M113.31 26.38H120.27V27.18H114.23V31.73H120.27V32.53H114.23V35.06H120.27V35.86H113.31V26.38Z" fill="white"/>
<path d="M0.76001 21.85L5.15001 24.41V28.48L18.17 36.01L31.18 28.62V19.07L18.17 26.5L0.76001 16.39V10.95L18.19 0.880005L30.75 8.20001L26.29 10.76L18.17 6.06001L4.92001 13.72L18.17 21.29L35.82 11.17L35.84 30.85L18.06 41.12L0.77001 31.07L0.76001 21.85Z" fill="url(#paint0_linear_807_597)"/>
<path d="M21.8601 16.35L20.8501 15.79L24.5801 13.69L20.8101 11.43L21.7301 10.91L26.4901 13.68L21.8601 16.35Z" fill="url(#paint1_linear_807_597)"/>
<path d="M14.5001 16.39L9.8501 13.68L14.6101 10.91L15.5701 11.45L11.8001 13.69L15.5301 15.8L14.5001 16.39Z" fill="url(#paint2_linear_807_597)"/>
<path d="M18.6302 18.22L17.7202 18.24V9.14001L18.6302 9.13V18.22Z" fill="url(#paint3_linear_807_597)"/>
<path d="M31.1799 19.07L35.0999 16.5V30.59L31.1799 28.48V19.07Z" fill="url(#paint4_linear_807_597)"/>
<path d="M4.92 13.72L1.5 11.37L18 2.16003L18.17 6.06003L4.92 13.72Z" fill="url(#paint5_linear_807_597)"/>
<path d="M5.1499 28.48V32.51L17.7399 39.88L17.9999 35.91L5.1499 28.48Z" fill="url(#paint6_linear_807_597)"/>
<defs>
<linearGradient id="paint0_linear_807_597" x1="18.3025" y1="-10.7847" x2="18.3025" y2="44.3443" gradientUnits="userSpaceOnUse">
<stop stop-color="#B27F2A"/>
<stop offset="0.0576" stop-color="#B7862E"/>
<stop offset="0.1404" stop-color="#C49939"/>
<stop offset="0.2379" stop-color="#DAB84C"/>
<stop offset="0.3333" stop-color="#F4DD62"/>
<stop offset="0.5161" stop-color="#F4E38B"/>
<stop offset="0.6613" stop-color="#F4DD62"/>
<stop offset="0.7444" stop-color="#F2DA60"/>
<stop offset="0.8112" stop-color="#EBD05A"/>
<stop offset="0.8724" stop-color="#DFBF50"/>
<stop offset="0.9302" stop-color="#CEA742"/>
<stop offset="0.9852" stop-color="#B98930"/>
<stop offset="1" stop-color="#B27F2A"/>
</linearGradient>
<linearGradient id="paint1_linear_807_597" x1="-1.30934" y1="11.192" x2="42.1821" y2="15.7769" gradientUnits="userSpaceOnUse">
<stop stop-color="#B27F2A"/>
<stop offset="0.0576" stop-color="#B7862E"/>
<stop offset="0.1404" stop-color="#C49939"/>
<stop offset="0.2379" stop-color="#DAB84C"/>
<stop offset="0.3333" stop-color="#F4DD62"/>
<stop offset="0.5161" stop-color="#F4E38B"/>
<stop offset="0.6613" stop-color="#F4DD62"/>
<stop offset="1" stop-color="#B27F2A"/>
</linearGradient>
<linearGradient id="paint2_linear_807_597" x1="-1.39111" y1="11.9686" x2="42.1002" y2="16.5535" gradientUnits="userSpaceOnUse">
<stop stop-color="#B27F2A"/>
<stop offset="0.0576" stop-color="#B7862E"/>
<stop offset="0.1404" stop-color="#C49939"/>
<stop offset="0.2379" stop-color="#DAB84C"/>
<stop offset="0.3333" stop-color="#F4DD62"/>
<stop offset="0.5161" stop-color="#F4E38B"/>
<stop offset="0.6613" stop-color="#F4DD62"/>
<stop offset="1" stop-color="#B27F2A"/>
</linearGradient>
<linearGradient id="paint3_linear_807_597" x1="-1.35488" y1="11.6259" x2="42.1364" y2="16.2108" gradientUnits="userSpaceOnUse">
<stop stop-color="#B27F2A"/>
<stop offset="0.0576" stop-color="#B7862E"/>
<stop offset="0.1404" stop-color="#C49939"/>
<stop offset="0.2379" stop-color="#DAB84C"/>
<stop offset="0.3333" stop-color="#F4DD62"/>
<stop offset="0.5161" stop-color="#F4E38B"/>
<stop offset="0.6613" stop-color="#F4DD62"/>
<stop offset="1" stop-color="#B27F2A"/>
</linearGradient>
<linearGradient id="paint4_linear_807_597" x1="32.8177" y1="45.4062" x2="33.2959" y2="14.7319" gradientUnits="userSpaceOnUse">
<stop offset="0.2319" stop-color="#B27F2A"/>
<stop offset="0.2619" stop-color="#B7862E"/>
<stop offset="0.3051" stop-color="#C49939"/>
<stop offset="0.356" stop-color="#DAB84C"/>
<stop offset="0.4057" stop-color="#F4DD62"/>
<stop offset="0.5161" stop-color="#F4E38B"/>
<stop offset="0.6064" stop-color="#F4DD62"/>
<stop offset="0.847" stop-color="#B27F2A"/>
</linearGradient>
<linearGradient id="paint5_linear_807_597" x1="21.0855" y1="1.39493" x2="3.5689" y2="12.7861" gradientUnits="userSpaceOnUse">
<stop stop-color="#B27F2A"/>
<stop offset="0.0345" stop-color="#B7862E" stop-opacity="0.8271"/>
<stop offset="0.084" stop-color="#C49939" stop-opacity="0.5788"/>
<stop offset="0.1423" stop-color="#DAB84C" stop-opacity="0.2863"/>
<stop offset="0.1994" stop-color="#F4DD62" stop-opacity="0"/>
<stop offset="0.3676" stop-color="#F4E38B"/>
<stop offset="0.5216" stop-color="#F4DD62"/>
<stop offset="1" stop-color="#B27F2A"/>
</linearGradient>
<linearGradient id="paint6_linear_807_597" x1="7.3717" y1="32.1075" x2="21.9561" y2="39.5308" gradientUnits="userSpaceOnUse">
<stop stop-color="#B27F2A"/>
<stop offset="0.0345" stop-color="#B7862E"/>
<stop offset="0.084" stop-color="#C49939"/>
<stop offset="0.1423" stop-color="#DAB84C"/>
<stop offset="0.1994" stop-color="#F4DD62"/>
<stop offset="0.3676" stop-color="#F4E38B"/>
<stop offset="0.6544" stop-color="#F4DD62" stop-opacity="0"/>
<stop offset="1" stop-color="#B27F2A"/>
</linearGradient>
</defs>
</svg>
