<?xml version="1.0" encoding="utf-8"?>
<!-- Generator: Adobe Illustrator 24.1.2, SVG Export Plug-In . SVG Version: 6.00 Build 0)  -->
<svg version="1.1" id="Capa_1" xmlns="http://www.w3.org/2000/svg" xmlns:xlink="http://www.w3.org/1999/xlink" x="0px" y="0px"
	 viewBox="0 0 468 198" style="enable-background:new 0 0 468 198;" xml:space="preserve">
<style type="text/css">
	.st0{fill:#FFFFFF;}
</style>
<g>
	<g>
		<path class="st0" d="M226.95,106.76c-0.01,0.21-0.02,0.41-0.02,0.62c0,4.46,0,8.92,0,13.38c0,0.12,0,0.24,0,0.36
			c-0.01,0.36-0.01,0.37-0.37,0.37c-1.1,0-2.2,0-3.29,0c-0.22,0-0.45-0.01-0.67,0c-0.21,0.01-0.33-0.06-0.31-0.29
			c0.01-0.12,0-0.24,0-0.36c0-12.01,0-24.02,0-36.03c0-0.7-0.08-0.62,0.64-0.62c4.75,0,9.5,0.01,14.26,0
			c2.21-0.01,4.31,0.41,6.27,1.46c2.21,1.18,3.78,2.95,4.69,5.28c0.85,2.17,1.01,4.42,0.63,6.71c-0.3,1.79-0.96,3.45-2.12,4.86
			c-0.8,0.97-1.74,1.8-2.86,2.42c-1.35,0.75-2.78,1.17-4.31,1.34c-0.05,0.01-0.1,0-0.16,0.14c3.28,4.98,6.62,9.99,9.92,15.01
			c-0.14,0.12-0.26,0.08-0.37,0.08c-1.54,0-3.09,0-4.63,0.01c-0.33,0-0.51-0.09-0.68-0.4c-0.31-0.58-0.71-1.11-1.06-1.66
			c-0.43-0.67-0.85-1.34-1.27-2.02c-0.33-0.53-0.65-1.07-1-1.58c-0.48-0.72-0.94-1.44-1.4-2.17c-0.36-0.59-0.77-1.15-1.14-1.73
			c-0.67-1.06-1.3-2.13-1.98-3.18c-0.42-0.65-0.86-1.29-1.23-1.97c-0.08-0.15-0.22-0.13-0.36-0.13c-0.39,0-0.79,0-1.18,0
			c-1.87,0-3.74,0-5.61,0c-0.09,0-0.17,0.01-0.26,0.02C226.97,106.67,226.94,106.69,226.95,106.76z M226.92,95.43
			c0,2.23,0,4.46,0,6.69c0,0.45,0.01,0.45,0.45,0.46c0.03,0,0.07,0,0.1,0c3.04,0,6.07,0,9.11,0c0.58,0,1.16-0.02,1.74-0.13
			c1.94-0.37,3.53-1.28,4.65-2.94c0.98-1.46,1.3-3.09,1.14-4.81c-0.2-2.21-1.18-3.99-3.08-5.2c-1.3-0.82-2.73-1.16-4.26-1.16
			c-3.1,0-6.21,0-9.31,0c-0.05,0-0.1,0-0.15,0c-0.37,0.01-0.37,0.01-0.39,0.36c0,0.1,0,0.21,0,0.31
			C226.92,91.14,226.92,93.28,226.92,95.43z"/>
		<path class="st0" d="M275.91,115.38c0.62,0.85,1.23,1.7,1.86,2.53c0.13,0.17,0.09,0.26-0.04,0.38c-0.46,0.39-0.91,0.77-1.39,1.13
			c-1.88,1.44-4.01,2.27-6.32,2.64c-1.69,0.27-3.38,0.21-5.08,0c-0.78-0.1-1.56-0.23-2.3-0.48c-0.42-0.14-0.86-0.27-1.25-0.5
			c-0.33-0.19-0.69-0.32-1.03-0.5c-1.8-0.95-3.25-2.28-4.42-3.94c-0.84-1.19-1.44-2.5-1.88-3.87c-0.34-1.06-0.45-2.18-0.56-3.29
			c-0.14-1.48-0.03-2.94,0.19-4.4c0.16-1.08,0.48-2.1,0.89-3.1c0.37-0.91,0.84-1.77,1.39-2.57c1.39-2.01,3.18-3.54,5.43-4.49
			c2.61-1.11,5.33-1.37,8.12-0.82c1.9,0.37,3.64,1.14,5.16,2.35c1.29,1.03,2.33,2.3,3.12,3.76c1.11,2.06,1.7,4.26,1.88,6.59
			c0.06,0.77,0.05,1.54,0.07,2.31c0.01,0.24-0.08,0.35-0.33,0.33c-0.14-0.01-0.27,0-0.41,0c-6.83,0-13.66,0-20.48,0
			c-0.75,0-0.69-0.06-0.59,0.67c0.53,3.6,2.25,6.37,5.67,7.88c1.94,0.86,3.99,0.95,6.05,0.58c2.34-0.42,4.39-1.42,6.11-3.08
			C275.79,115.44,275.82,115.43,275.91,115.38z M266.74,106.27c1.96,0,3.91,0,5.87,0c0.89,0,1.78,0,2.68,0
			c0.24,0,0.34-0.07,0.31-0.33c-0.08-0.75-0.16-1.5-0.38-2.23c-0.72-2.43-2.09-4.34-4.39-5.5c-1.01-0.51-2.08-0.77-3.2-0.87
			c-1.97-0.17-3.83,0.16-5.52,1.23c-2.16,1.37-3.37,3.41-3.97,5.85c-0.12,0.5-0.2,1.01-0.24,1.52c-0.02,0.26,0.07,0.34,0.31,0.32
			c0.12-0.01,0.24,0,0.36,0C261.28,106.27,264.01,106.27,266.74,106.27z"/>
		<path class="st0" d="M301.7,118.61c-0.21,0.04-0.3,0.21-0.44,0.34c-1.39,1.35-3.01,2.28-4.87,2.84c-1.66,0.5-3.35,0.49-5.06,0.34
			c-0.84-0.07-1.65-0.26-2.42-0.57c-1.54-0.63-2.88-1.52-3.9-2.87c-0.7-0.92-1.23-1.92-1.48-3.05c-0.2-0.9-0.32-1.82-0.26-2.74
			c0.04-0.66,0.05-1.34,0.21-1.99c0.18-0.74,0.42-1.48,0.83-2.14c0.26-0.41,0.52-0.83,0.85-1.2c1.78-1.94,4.01-2.96,6.61-3.19
			c2.24-0.19,4.41,0.11,6.47,1.03c1.14,0.51,2.14,1.22,3.03,2.1c0.1,0.1,0.17,0.22,0.3,0.27c0.01,0.07,0.07,0.13,0.13,0.13
			c0.04,0,0.05-0.07,0.02-0.12c0.05-1.68,0.08-3.36,0-5.04c-0.12-2.43-1.68-4.3-4.19-4.93c-3.66-0.92-6.96-0.16-9.81,2.36
			c-0.35,0.31-0.67,0.63-1.04,0.99c-0.19-0.22-0.39-0.42-0.54-0.64c-0.45-0.66-0.88-1.33-1.33-1.98c-0.13-0.19-0.11-0.3,0.05-0.46
			c1.35-1.37,2.89-2.44,4.68-3.17c2.25-0.92,4.59-1.18,6.99-1.06c1.34,0.07,2.65,0.3,3.91,0.77c2.1,0.78,3.73,2.1,4.68,4.17
			c0.57,1.24,0.82,2.57,0.83,3.93c0.02,3.67,0.01,7.34,0.01,11.01c0,2.37,0,4.73,0,7.1c0,0.12-0.01,0.24,0,0.36
			c0.02,0.22-0.08,0.3-0.3,0.3c-0.63-0.01-1.27,0-1.9,0c-0.57,0-1.13-0.01-1.7,0c-0.25,0.01-0.33-0.09-0.32-0.33
			c0.01-0.77,0-1.54,0-2.32c0-0.08-0.02-0.17-0.04-0.25C301.7,118.53,301.7,118.57,301.7,118.61z M301.76,113.26
			c0-0.72-0.01-1.44,0.01-2.16c0.01-0.28-0.08-0.5-0.25-0.7c-0.61-0.74-1.33-1.33-2.17-1.8c-1.41-0.78-2.93-1.13-4.53-1.21
			c-1.18-0.06-2.33,0.08-3.43,0.51c-3.16,1.23-4.33,4.29-3.5,7.1c0.58,1.97,1.98,3.18,3.89,3.79c2.11,0.67,4.2,0.47,6.25-0.28
			c1.36-0.5,2.53-1.29,3.47-2.4c0.19-0.22,0.28-0.45,0.27-0.74C301.75,114.66,301.76,113.96,301.76,113.26z"/>
		<path class="st0" d="M330.44,114.93c0.15,0.01,0.23,0.11,0.32,0.19c0.78,0.72,1.56,1.44,2.34,2.15c0.16,0.15,0.21,0.27,0.05,0.47
			c-0.66,0.83-1.43,1.56-2.26,2.22c-1.12,0.89-2.41,1.46-3.75,1.87c-0.75,0.23-1.57,0.35-2.37,0.37c-1.27,0.03-2.53-0.03-3.8-0.19
			c-1.85-0.23-3.5-0.96-5.04-1.93c-1.51-0.95-2.7-2.26-3.69-3.75c-0.97-1.47-1.64-3.08-1.97-4.79c-0.27-1.42-0.4-2.88-0.32-4.34
			c0.06-1.08,0.26-2.14,0.39-3.21c0.06-0.48,0.26-0.96,0.44-1.42c0.27-0.68,0.56-1.37,0.89-2.02c0.35-0.69,0.82-1.32,1.29-1.94
			c0.84-1.08,1.85-1.98,3-2.71c0.83-0.53,1.71-0.96,2.64-1.28c2.48-0.85,5-1.02,7.57-0.55c1.78,0.33,3.42,1.02,4.86,2.14
			c0.77,0.6,1.45,1.3,2.08,2.05c0.18,0.22,0.13,0.34-0.06,0.51c-0.6,0.55-1.2,1.12-1.8,1.67c-0.25,0.23-0.47,0.62-0.78,0.61
			c-0.33-0.01-0.46-0.46-0.67-0.72c-0.71-0.88-1.62-1.49-2.61-1.95c-2.28-1.07-4.64-1.04-6.98-0.19c-1.91,0.69-3.37,1.93-4.41,3.68
			c-0.98,1.64-1.41,3.42-1.51,5.3c-0.1,1.92,0.1,3.79,0.81,5.59c0.37,0.94,0.89,1.8,1.52,2.59c0.69,0.87,1.56,1.53,2.52,2.07
			c0.96,0.53,2.01,0.83,3.1,0.96c1.17,0.14,2.33,0.13,3.47-0.16c1.13-0.29,2.15-0.81,3.07-1.56
			C329.44,116.15,329.95,115.54,330.44,114.93z"/>
		<path class="st0" d="M344.29,106.97c0,2.59,0,5.18,0,7.77c0,0.59,0.04,1.16,0.2,1.73c0.36,1.36,1.4,2.08,2.83,1.98
			c0.83-0.06,1.57-0.37,2.24-0.84c0.28-0.2,0.32-0.19,0.44,0.1c0.32,0.8,0.64,1.61,0.96,2.42c0.13,0.34,0.1,0.49-0.19,0.68
			c-0.75,0.5-1.51,0.96-2.4,1.19c-1.17,0.3-2.34,0.25-3.52,0.14c-0.73-0.06-1.41-0.25-2.06-0.59c-0.87-0.45-1.51-1.13-1.97-2
			c-0.3-0.57-0.53-1.17-0.61-1.78c-0.08-0.62-0.13-1.26-0.13-1.89c0.01-5.68,0.01-11.35,0-17.03c0-0.74,0.09-0.65-0.66-0.66
			c-1.13-0.01-2.26,0-3.4-0.02c-0.42,0-0.42-0.02-0.42-0.44c0-0.94,0-1.89,0-2.83c0-0.41,0.01-0.41,0.44-0.41c1.17,0,2.33,0,3.5,0
			c0.58,0,0.54,0.02,0.54-0.52c0-2.06,0-4.12,0-6.17c0-0.12,0.01-0.24,0-0.36c-0.03-0.29,0.11-0.34,0.36-0.34
			c1.13,0.01,2.26,0,3.4,0c0.45,0,0.45,0.01,0.45,0.45c0,2.11,0,4.22,0,6.33c0,0.65-0.09,0.62,0.6,0.62c1.47,0,2.95,0,4.42,0
			c0.48,0,0.49,0,0.5,0.48c0.01,0.91,0.01,1.82,0,2.73c0,0.49-0.01,0.49-0.48,0.49c-1.49,0-2.98,0-4.48,0
			c-0.62,0-0.56-0.02-0.56,0.55C344.29,101.48,344.29,104.23,344.29,106.97z"/>
		<path class="st0" d="M301.74,107.79c0.02,0.05,0.02,0.12-0.02,0.12c-0.06,0-0.12-0.05-0.13-0.13
			C301.64,107.79,301.69,107.79,301.74,107.79z"/>
		<path class="st0" d="M226.95,106.76c-0.01-0.07,0.02-0.1,0.09-0.08C227.01,106.71,226.98,106.73,226.95,106.76z"/>
		<path class="st0" d="M301.7,118.61c0-0.04,0-0.08,0.02-0.01C301.72,118.6,301.7,118.61,301.7,118.61z"/>
		<g>
			<path class="st0" d="M160.82,69.77c0.7-0.65,1.34-1.24,1.98-1.83c1.84-1.7,3.87-3.16,5.99-4.49c1.84-1.15,3.79-2.11,5.87-2.7
				c2.31-0.66,4.68-0.96,7.03-0.08c1.71,0.64,2.93,1.86,3.83,3.4c1.11,1.9,1.71,3.99,1.95,6.17c0.5,4.5,0.08,8.93-1.03,13.31
				c-0.02,0.07-0.02,0.15-0.05,0.22c-0.11,0.35-0.1,0.58,0.36,0.7c0.98,0.27,1.94,0.6,2.9,0.94c2.83,0.99,5.54,2.25,8.05,3.89
				c2.16,1.41,4.13,3.05,5.51,5.28c0.96,1.54,1.47,3.21,1.28,5.04c-0.12,1.17-0.51,2.25-1.1,3.25c-0.94,1.58-2.14,2.92-3.57,4.09
				c-1.56,1.28-3.24,2.37-5.02,3.32c-2.26,1.21-4.61,2.15-7.04,2.94c-0.28,0.09-0.53,0.26-0.86,0.27c-0.5,0.01-0.62,0.21-0.48,0.71
				c0.26,0.96,0.49,1.94,0.65,2.92c0.63,3.7,0.85,7.42,0.24,11.14c-0.39,2.39-1.16,4.66-2.68,6.61c-1.17,1.51-2.73,2.48-4.54,2.97
				c-0.84,0.23-1.79,0.13-2.69,0.04c-1.51-0.15-2.97-0.44-4.4-1.03c-1.6-0.66-3.13-1.4-4.58-2.33c-2.4-1.54-4.66-3.24-6.68-5.27
				c-0.11-0.11-0.24-0.19-0.35-0.29c-0.29-0.29-0.55-0.29-0.85,0.02c-1.52,1.53-3.2,2.86-4.91,4.16c-0.84,0.64-1.74,1.2-2.66,1.73
				c-1.23,0.72-2.49,1.38-3.82,1.89c-1.39,0.53-2.85,0.76-4.31,1.01c-1.47,0.24-2.93,0.17-4.38-0.09c-1.13-0.2-2.11-0.8-2.94-1.6
				c-0.84-0.8-1.48-1.73-2-2.78c-0.46-0.93-0.79-1.89-1.03-2.88c-0.28-1.17-0.41-2.37-0.48-3.56c-0.2-3.07,0.05-6.12,0.56-9.15
				c0.19-1.11,0.37-2.21,0.68-3.29c0.14-0.48,0.03-0.69-0.47-0.81c-0.82-0.2-1.62-0.49-2.42-0.74c-2.57-0.82-4.96-2-7.26-3.4
				c-1.88-1.14-3.67-2.38-5.18-3.99c-1.27-1.34-2.26-2.85-2.76-4.66c-0.11-0.38-0.09-0.75-0.13-1.12c-0.32-2.51,0.61-4.61,2.13-6.53
				c1.48-1.86,3.37-3.2,5.36-4.42c2.36-1.46,4.91-2.51,7.5-3.47c0.92-0.34,1.88-0.57,2.82-0.84c0.33-0.09,0.4-0.17,0.31-0.57
				c-0.77-3.69-1.4-7.4-1.29-11.2c0.04-1.23,0.19-2.46,0.37-3.68c0.16-1.09,0.34-2.17,0.74-3.21c0.7-1.85,1.67-3.52,3.38-4.63
				c1.14-0.73,2.42-1.05,3.76-1.14c2.06-0.14,4.03,0.33,5.94,1.04c3.15,1.17,5.94,2.96,8.6,4.98
				C158.14,67.18,159.51,68.4,160.82,69.77z M160.03,113.16c2.65-0.07,5.3-0.08,7.95-0.26c0.45-0.03,0.74-0.16,1-0.55
				c2.67-4.16,5.21-8.4,7.43-12.82c0.23-0.46,0.24-0.81,0.01-1.28c-1.19-2.37-2.54-4.65-3.87-6.95c-1.11-1.92-2.26-3.81-3.49-5.65
				c-0.22-0.33-0.44-0.59-0.91-0.59c-0.67,0.01-1.33-0.09-2-0.11c-4.27-0.13-8.55-0.11-12.82,0.14c-0.45,0.03-0.75,0.18-1.01,0.57
				c-2.71,4.05-5.15,8.25-7.35,12.6c-0.24,0.47-0.19,0.85,0.03,1.29c0.87,1.72,1.77,3.43,2.72,5.11c1.5,2.64,3.08,5.24,4.77,7.76
				c0.27,0.4,0.54,0.61,1.05,0.62C155.71,113.1,157.87,113.24,160.03,113.16z M136.13,110.14c0.43,0.1,0.45-0.23,0.53-0.49
				c1.07-3.44,2.34-6.81,3.83-10.1c0.14-0.31,0.17-0.57,0.01-0.87c-0.22-0.43-0.41-0.89-0.61-1.33c-1.25-2.85-2.37-5.75-3.31-8.73
				c-0.22-0.7-0.23-0.7-0.96-0.48c-0.54,0.16-1.08,0.33-1.62,0.51c-2.96,0.99-5.81,2.23-8.43,3.96c-1.6,1.05-3.09,2.23-4.16,3.86
				c-1,1.52-1.07,3.06-0.11,4.64c0.83,1.36,1.89,2.5,3.15,3.47c3.01,2.32,6.39,3.93,10,5.08
				C134.99,109.82,135.56,109.97,136.13,110.14z M137.57,73.77c0.03,2.29,0.23,4.43,0.66,6.56c0.18,0.88,0.4,1.75,0.57,2.64
				c0.07,0.37,0.26,0.47,0.6,0.36c0.07-0.02,0.15-0.05,0.22-0.06c3.57-0.79,7.16-1.41,10.8-1.75c0.41-0.04,0.65-0.22,0.87-0.53
				c2.01-2.77,4.19-5.41,6.51-7.93c0.44-0.47,0.43-0.48,0.01-0.91c-3.1-3.12-6.66-5.57-10.72-7.28c-1.48-0.62-3.02-1.02-4.65-0.96
				c-1.39,0.05-2.46,0.66-3.19,1.85c-0.32,0.53-0.57,1.09-0.79,1.67C137.68,69.52,137.65,71.71,137.57,73.77z M137.55,124.4
				c-0.02,1.11,0.03,2.21,0.18,3.31c0.21,1.51,0.55,2.98,1.34,4.31c0.81,1.35,1.99,2.02,3.56,2.05c1.41,0.03,2.76-0.26,4.08-0.72
				c1.91-0.66,3.67-1.62,5.35-2.72c2.07-1.36,3.97-2.94,5.78-4.62c0.28-0.26,0.36-0.46,0.04-0.74c-0.18-0.15-0.32-0.33-0.48-0.51
				c-2.24-2.45-4.35-5.02-6.3-7.7c-0.23-0.32-0.44-0.58-0.9-0.62c-3.56-0.3-7.09-0.88-10.58-1.66c-0.7-0.16-0.7-0.15-0.89,0.54
				C137.94,118.3,137.57,121.32,137.55,124.4z M183.79,73.86c0.03-1.51-0.06-3.07-0.33-4.62c-0.25-1.4-0.64-2.76-1.5-3.93
				c-0.73-1-1.71-1.52-2.95-1.6c-1.58-0.09-3.08,0.23-4.51,0.85c-4.07,1.75-7.64,4.23-10.74,7.39c-0.38,0.39-0.39,0.4-0.03,0.8
				c2.42,2.67,4.7,5.46,6.81,8.39c0.18,0.25,0.38,0.36,0.7,0.39c3.56,0.35,7.1,0.84,10.59,1.63c0.62,0.14,0.64,0.13,0.8-0.47
				C183.38,79.82,183.85,76.91,183.79,73.86z M183.93,123.98c0.05-0.9-0.06-1.98-0.17-3.06c-0.2-2-0.54-3.97-1.06-5.91
				c-0.09-0.35-0.22-0.44-0.59-0.36c-1.43,0.31-2.87,0.59-4.31,0.85c-1.97,0.35-3.96,0.64-5.96,0.82c-0.38,0.04-0.71,0.12-0.97,0.5
				c-2.07,2.98-4.36,5.8-6.79,8.5c-0.44,0.49-0.44,0.5,0.04,0.96c2.24,2.1,4.65,3.98,7.31,5.53c1.83,1.06,3.72,2,5.84,2.33
				c2.61,0.4,4.18-0.36,5.3-2.67c0.22-0.46,0.41-0.94,0.56-1.43C183.75,128.12,183.95,126.16,183.93,123.98z M200.75,98.88
				c-0.06-0.81-0.32-1.53-0.72-2.2c-0.58-0.96-1.32-1.78-2.19-2.47c-3.58-2.88-7.64-4.81-12.07-6.01c-0.51-0.14-0.55-0.12-0.71,0.39
				c-1.06,3.42-2.33,6.76-3.8,10.02c-0.14,0.32-0.11,0.57,0.03,0.87c1.47,3.21,2.72,6.5,3.78,9.86c0.2,0.65,0.21,0.65,0.83,0.45
				c1.47-0.47,2.93-0.97,4.35-1.57c2.5-1.06,4.89-2.3,7-4.03c1.22-1,2.33-2.11,3.03-3.56C200.56,100.08,200.72,99.48,200.75,98.88z
				 M142.81,94.72c1.68-3.13,3.42-6.04,5.2-9c-0.65-0.13-1.17,0.05-1.7,0.12c-1.96,0.27-3.91,0.6-5.83,1.04
				c-0.51,0.12-0.53,0.14-0.38,0.6C140.87,89.89,141.74,92.24,142.81,94.72z M147.92,112.39c-1.84-2.96-3.52-5.96-5.15-9.01
				c-0.07,0.09-0.14,0.14-0.16,0.2c-0.96,2.3-1.79,4.65-2.54,7.03c-0.14,0.45-0.12,0.47,0.41,0.59c1.9,0.44,3.82,0.79,5.76,1.06
				C146.76,112.34,147.28,112.5,147.92,112.39z M165.89,116.75c-3.48,0.18-6.77,0.1-10.18,0.11c1.66,2.17,3.3,4.17,5.12,6.09
				C162.61,121,164.25,119,165.89,116.75z M178.88,103.65c-1.67,2.93-3.27,5.74-4.91,8.6c0.64,0.07,1.14-0.08,1.65-0.15
				c1.81-0.24,3.6-0.59,5.38-0.97c0.5-0.11,0.55-0.17,0.41-0.61C180.68,108.25,179.88,106,178.88,103.65z M160.71,75.11
				c-1.76,1.92-3.41,3.82-5.02,5.97c3.43-0.05,6.7-0.07,10.11,0.05C164.16,78.99,162.52,77.05,160.71,75.11z M173.69,85.71
				c1.73,2.86,3.41,5.65,5.04,8.53c0.1-0.16,0.16-0.24,0.2-0.33c0.82-2.05,1.61-4.12,2.25-6.24c0.18-0.6,0.18-0.62-0.44-0.74
				c-1.54-0.31-3.07-0.63-4.62-0.9C175.36,85.89,174.58,85.71,173.69,85.71z"/>
			<path class="st0" d="M168.53,98.88c0.01,4.33-3.47,7.81-7.79,7.82c-4.36,0.01-7.87-3.48-7.87-7.83c0-4.31,3.48-7.81,7.8-7.81
				C165.06,91.05,168.53,94.51,168.53,98.88z"/>
		</g>
	</g>
</g>
</svg>
