<svg width="178" height="106" viewBox="0 0 178 106" fill="none" xmlns="http://www.w3.org/2000/svg">
<path d="M35.7801 54.8299C32.5301 51.3299 29.5001 47.9999 27.0201 44.2099C23.7901 39.2699 23.9301 36.5099 27.7001 31.9899C30.7001 28.3899 34.3701 25.5099 37.9601 22.5299C39.2801 21.4399 40.6101 20.3699 41.9301 19.2799C47.6701 14.5399 50.6401 8.65994 49.4201 0.939941C50.3701 1.20994 50.4701 2.02994 50.6501 2.66994C52.5001 9.20994 51.4901 15.1799 46.6901 20.1799C43.3701 23.6399 39.7301 26.7899 36.4301 30.2599C28.4901 38.6099 28.5901 40.9899 33.9101 50.6299C34.5301 51.7599 35.2101 52.8599 35.8301 53.9999C35.9201 54.1299 35.8201 54.3799 35.7801 54.8299Z" fill="white"/>
<path d="M43.0901 60.3199C43.6301 59.4499 44.2001 58.5999 44.7101 57.7099C45.7801 55.8199 45.7701 53.8999 44.6201 52.0699C43.6001 50.4499 42.48 48.8999 41.4 47.3199C37.55 41.6999 38.0401 36.1899 42.9101 31.3999C47.3101 27.0799 52.8201 24.6999 58.5201 22.6799C59.2701 22.4099 60.0401 22.1699 60.8401 21.8999C60.8901 22.7599 60.18 22.7599 59.79 23.0099C55.63 25.6499 51.5101 28.3599 48.0701 31.9499C44.0401 36.1499 43.8301 38.5299 46.9601 43.3499C48.0401 45.0099 49.11 46.6699 49.9 48.5099C51.01 51.1099 50.6301 53.4699 48.9501 55.6399C47.4001 57.6599 45.59 59.4099 43.29 60.5799C43.22 60.4999 43.1601 60.4099 43.0901 60.3199Z" fill="white"/>
<path d="M44.5101 96.7098C46.4401 96.8398 48.3501 96.6798 50.2601 96.3698C50.3301 96.5398 50.4001 96.7198 50.4801 96.8898C50.5401 96.7098 50.6101 96.5298 50.6701 96.3498C51.7401 96.3498 52.8201 96.3398 53.8901 96.3398C54.0501 96.2298 54.2001 96.1198 54.3601 96.0098C57.2101 95.2898 60.2701 96.1898 63.0601 94.8898C63.5201 94.6698 64.1201 94.7698 64.6601 94.7098C65.3901 95.0598 65.6301 95.5398 65.0901 96.2498C62.4201 97.5798 59.4601 97.6098 56.6201 98.0498C52.8801 98.6198 49.0701 98.6298 45.3301 99.2998C44.8001 99.3898 44.2401 99.2898 43.7001 99.2798C41.5501 98.3398 39.3201 98.9498 37.1201 98.9598C36.9801 98.9598 36.8301 99.3598 36.6901 99.5698C33.2401 99.7298 29.8001 99.8098 26.3501 99.5398C23.9301 98.1898 21.4501 98.7198 18.9601 99.2598C13.5401 99.2098 8.18007 98.6898 2.96007 97.1998C1.76007 96.8598 0.0700684 96.5898 0.0700684 95.0398C0.0700684 93.6998 1.20006 92.6098 2.44006 91.9498C4.88006 90.6498 7.56007 90.0698 10.2401 89.5198C10.9301 89.3798 11.3801 89.8698 12.5601 89.8498C10.4501 90.3998 8.94006 90.8198 7.58006 91.6398C7.04006 91.9698 6.53006 92.3598 6.55006 93.0598C6.57006 93.7998 7.17006 94.1198 7.76006 94.2898C10.8801 95.2198 14.0301 96.0198 17.2901 96.2798C17.4101 96.5698 17.5601 96.6598 17.7301 96.3198C18.9601 96.3798 20.1301 97.0098 21.4001 96.7098C21.6701 97.1698 21.9601 97.1998 22.2601 96.7298C22.9501 96.7698 23.6301 96.8098 24.3201 96.8498C24.4401 97.5898 25.0101 97.5898 25.5701 97.5898C30.0901 97.5898 34.6101 97.5898 39.1201 97.5898C39.6901 97.5898 40.2401 97.5698 40.3501 96.8298C41.5801 96.7898 42.8201 96.7498 44.0501 96.7198C44.2301 97.0398 44.3701 97.0198 44.5101 96.7098Z" fill="white"/>
<path d="M37.1101 84.7699C40.6001 84.7299 44.0901 84.6699 47.4801 83.6699C48.6501 83.3199 49.7601 83.5699 50.8101 84.1399C52.0701 84.8199 53.3201 85.4999 54.8201 86.3199C51.1601 87.6899 47.5701 88.5299 43.9101 89.1099C37.2701 90.1499 30.6801 89.7999 24.1901 88.0799C23.0401 87.7699 21.8801 87.4299 21.0001 86.4099C19.3901 84.5399 19.5601 83.3299 21.8201 82.2799C22.4701 81.9799 23.2201 81.8599 23.8901 81.6699C23.3401 84.4899 25.8601 83.8799 27.2401 84.5599C28.8301 85.8699 30.5001 85.3799 32.1801 84.8099C33.5401 84.8099 34.9101 84.8099 36.2701 84.8099C36.5501 85.2599 36.8301 85.2399 37.1101 84.7699Z" fill="white"/>
<path d="M36.66 74.26C37.76 74.18 38.88 73.95 39.97 74.06C42.65 74.35 45.19 73.63 47.79 73.28C47.92 73.56 48.06 73.6 48.21 73.3C48.96 73.67 49.69 72.43 50.44 73.27C50.66 73.13 50.88 72.98 51.11 72.84C51.91 72.22 52.51 72.72 53.12 73.18C53.18 73.77 53.39 74.18 54.1 73.97H54.14C54.27 75.06 53.04 75.24 52.75 76.05C45.43 78.25 37.93 78.49 30.39 77.94C27.82 77.75 25.19 77.84 22.7 76.97C21.28 75.68 19.47 75.61 17.72 75.38L17.74 75.4C17.2 74.26 17.7 73.12 17.73 71.98C17.86 71.87 17.98 71.75 18.11 71.64C18.51 71.64 18.85 71.56 18.96 71.1C19.64 70.58 20.39 70.21 21.3 70.04C20.7 72.62 21.12 73.23 23.8 73.76C24.8 73.96 25.82 74.1 26.82 74.27C28.08 75.27 35.39 75.27 36.66 74.26Z" fill="white"/>
<path d="M37.6301 64.46C38.0801 64.05 38.6101 64.16 39.1301 64.23C39.5701 64.8 40.0001 64.77 40.4001 64.18C42.7301 64.27 45.0001 63.43 47.3401 63.78C47.4301 63.85 47.5301 63.91 47.6201 63.98C47.6701 63.81 47.7201 63.64 47.7801 63.48C50.2501 63.19 52.7201 62.89 55.1901 62.6C55.3201 62.88 55.4601 62.91 55.6001 62.61C56.0101 62.62 56.4301 62.64 56.8401 62.65C56.9001 62.9 56.9601 63.14 57.0301 63.39C56.8801 63.53 56.7401 63.67 56.5901 63.81C55.8501 64.04 54.7701 63.31 54.3801 64.57C52.1201 65.46 49.7701 64.97 47.4501 65.03C47.2801 65.2 47.1101 65.37 46.9401 65.54C46.5301 65.51 46.1201 65.47 45.7101 65.44C45.5901 65.32 45.4801 65.2 45.3601 65.08C45.2301 64.94 45.0901 64.81 44.9601 64.67C44.8001 64.79 44.6401 64.92 44.4901 65.04C43.9401 65.47 43.6401 66.15 42.7201 66.2C38.9201 66.38 35.1501 66.95 31.3301 66.74C30.0901 66.02 28.8401 66.03 27.6001 66.73C24.6301 66.6 21.6901 66.71 18.7101 66.04C16.4701 65.53 13.9701 66.05 11.6501 65.39C10.4501 65.05 8.59012 65.12 8.41012 63.72C8.22012 62.27 10.0601 61.96 11.1601 61.4C12.4201 60.75 13.7301 60.13 15.2001 60.01C15.7901 60.83 16.8801 59.79 17.4701 60.62C16.8101 61.37 15.3001 61.76 16.3701 63.24C16.5901 63.64 16.9301 63.81 17.3801 63.8C17.5001 63.79 17.6201 63.8 17.7301 63.82C18.1201 64.35 18.6701 64.19 19.1901 64.19C19.7901 64.18 20.3901 64.17 20.9901 64.16C21.3901 64.75 21.8201 64.78 22.2601 64.2C22.9501 64.23 23.6301 64.27 24.3201 64.3C24.4801 65.17 25.1701 65.04 25.7701 65.04C29.1801 65.05 32.5901 65.04 36.0001 65.04C36.6301 65.08 37.2601 65.1 37.6301 64.46Z" fill="white"/>
<path d="M66.6901 73.5999C68.2701 71.9899 70.0501 70.5899 71.3401 68.6899C72.9801 66.2699 73.7801 63.7199 72.2901 60.9799C70.8801 58.3899 68.3301 58.1099 65.7101 58.1099C65.2001 58.1099 64.6901 58.1099 63.8301 58.1099C68.2501 55.8999 73.0101 56.7299 75.7101 59.9599C77.9601 62.6399 77.9001 66.0499 75.4101 69.1899C73.3301 71.8199 70.6801 73.7199 67.5401 74.9299C67.2401 74.4999 66.6401 74.2599 66.6901 73.5999Z" fill="white"/>
<path d="M72.6 99.7099C68.56 102.25 63.9399 102.89 59.3699 103.65C56.82 104.07 54.15 103.88 51.67 104.3C45.76 105.29 39.87 105.05 33.95 104.99C32.12 104.97 30.26 105 28.46 104.54C28.76 103.3 29.77 103.79 30.49 103.78C35.76 103.74 41.03 103.77 46.3 103.74C46.97 103.74 47.88 104.14 48.2 103.07C54.08 102.51 59.98 102.05 65.71 100.49C67.16 100.1 68.5999 99.6799 70.0399 99.2699C70.2999 99.5999 70.3899 99.3499 70.4799 99.1299L70.6199 99.1999C71.32 99.1699 71.98 99.3599 72.6 99.7099Z" fill="white"/>
<path d="M48.19 103.07C47.86 104.15 46.96 103.74 46.29 103.74C41.02 103.77 35.75 103.74 30.48 103.78C29.76 103.79 28.75 103.3 28.45 104.54C24.75 104.41 21.15 103.66 17.52 102.57C18.11 102.51 18.71 102.35 19.29 102.4C28.91 103.21 38.54 103.37 48.19 103.07Z" fill="white"/>
<path d="M65.0901 96.2399C65.6401 95.5399 65.3902 95.0499 64.6602 94.6999C66.3402 94.1699 68.0302 93.6699 69.6902 93.0899C70.8102 92.6899 71.5502 91.9099 71.5802 90.3999C72.8002 91.4299 72.6601 92.2799 71.6501 93.1099C69.7301 94.6899 67.4801 95.6199 65.0901 96.2399Z" fill="white"/>
<path d="M40.3701 96.8298C40.2601 97.5698 39.7101 97.5898 39.1401 97.5898C34.6201 97.5898 30.1001 97.5898 25.5901 97.5898C25.0301 97.5898 24.4601 97.5898 24.3401 96.8498C29.6801 97.1798 35.0201 96.7798 40.3701 96.8298Z" fill="white"/>
<path d="M37.6301 64.4598C37.2501 65.0998 36.6301 65.0698 36.0101 65.0698C32.6001 65.0698 29.1901 65.0698 25.7801 65.0698C25.1801 65.0698 24.4901 65.2098 24.3301 64.3298C28.7701 64.3798 33.2001 64.4198 37.6301 64.4598Z" fill="white"/>
<path d="M72.6001 99.7099C71.9801 99.3599 71.3201 99.1699 70.6101 99.1999C72.5901 98.0899 74.5701 96.9799 76.5401 95.8699C76.6501 95.9599 76.7701 96.0499 76.8801 96.1399C75.9001 97.8699 74.3601 98.9299 72.6001 99.7099Z" fill="white"/>
<path d="M17.4799 60.6499C16.89 59.8199 15.8 60.8599 15.21 60.0399C17.64 59.0999 20.08 58.2299 23.08 58.5599C21.01 59.3299 19.24 59.9899 17.4799 60.6499Z" fill="white"/>
<path d="M36.6601 74.26C35.3901 75.27 28.0801 75.27 26.8101 74.26C30.0901 74.27 33.3801 74.27 36.6601 74.26Z" fill="white"/>
<path d="M66.69 73.5999C66.64 74.2599 67.24 74.4999 67.54 74.9299C66.05 75.7099 64.55 76.4499 62.72 76.3399C64.04 75.4299 65.37 74.5199 66.69 73.5999Z" fill="white"/>
<path d="M36.6802 99.5598C36.8202 99.3498 36.9702 98.9498 37.1102 98.9498C39.3102 98.9498 41.5402 98.3398 43.6902 99.2698C41.3602 99.4998 39.0302 99.6998 36.6802 99.5598Z" fill="white"/>
<path d="M52.74 76.06C53.03 75.25 54.26 75.07 54.13 73.98C54.8 74.27 55.47 74.56 56.62 75.07C55.02 75.48 53.88 75.77 52.74 76.06Z" fill="white"/>
<path d="M17.7 75.3799C19.46 75.6099 21.2599 75.6899 22.6799 76.9699C20.9099 76.8099 19.17 76.4999 17.7 75.3799Z" fill="white"/>
<path d="M18.96 99.2599C21.45 98.7099 23.93 98.1899 26.35 99.5399C23.88 99.4399 21.42 99.3499 18.96 99.2599Z" fill="white"/>
<path d="M32.16 84.8C30.48 85.37 28.8 85.86 27.22 84.55C28.87 84.63 30.51 84.71 32.16 84.8Z" fill="white"/>
<path d="M17.7101 71.98C17.6801 73.12 17.1801 74.26 17.7201 75.4C15.9901 74.26 16.5801 73.12 17.7101 71.98Z" fill="white"/>
<path d="M54.3901 64.5698C54.7801 63.2998 55.8501 64.0398 56.6001 63.8098C56.1001 64.7698 55.2001 64.5298 54.3901 64.5698Z" fill="white"/>
<path d="M27.6101 66.7499C28.8601 66.0499 30.1001 66.0399 31.3401 66.7599C30.0901 66.7499 28.8501 66.7499 27.6101 66.7499Z" fill="white"/>
<path d="M54.0901 73.9799C53.3801 74.1899 53.1701 73.7799 53.1101 73.1899C53.5201 73.3599 53.9101 73.5399 54.0901 73.9799Z" fill="white"/>
<path d="M57.0401 63.3899C56.9801 63.1399 56.9201 62.8999 56.8501 62.6499C57.2201 62.6299 57.8001 62.3799 57.9001 62.7499C58.0201 63.1899 57.5401 63.4499 57.0401 63.3899Z" fill="white"/>
<path d="M19.2 64.22C18.68 64.22 18.12 64.38 17.74 63.85C18.29 63.71 18.86 63.54 19.2 64.22Z" fill="white"/>
<path d="M22.27 64.2299C21.82 64.8099 21.4 64.7799 21 64.1899C21.42 64.1999 21.85 64.2199 22.27 64.2299Z" fill="white"/>
<path d="M40.4101 64.1899C40.0101 64.7799 39.5801 64.8099 39.1401 64.2399C39.5601 64.2199 39.9801 64.1999 40.4101 64.1899Z" fill="white"/>
<path d="M43.29 60.5798C43.14 60.9798 42.89 61.0498 42.54 60.8098C42.72 60.6498 42.91 60.4898 43.09 60.3198C43.16 60.4098 43.22 60.4998 43.29 60.5798Z" fill="white"/>
<path d="M17.3801 63.8199C16.9301 63.8299 16.5901 63.6699 16.3701 63.2599C16.8301 63.2399 17.1901 63.3799 17.3801 63.8199Z" fill="white"/>
<path d="M47.7801 63.4799C47.7301 63.6499 47.6801 63.8199 47.6201 63.9799C47.5301 63.9099 47.4301 63.8499 47.3401 63.7799C47.4201 63.5699 47.5301 63.4199 47.7801 63.4799Z" fill="white"/>
<path d="M37.11 84.77C36.84 85.23 36.55 85.26 36.25 84.79C36.53 84.79 36.82 84.78 37.11 84.77Z" fill="white"/>
<path d="M46.95 65.54C47.12 65.37 47.29 65.2 47.46 65.03C47.52 65.17 47.57 65.3 47.63 65.44C47.4 65.47 47.17 65.51 46.95 65.54Z" fill="white"/>
<path d="M50.67 96.3499C50.61 96.5299 50.54 96.7098 50.48 96.8898C50.41 96.7198 50.34 96.5398 50.26 96.3698C50.4 96.3598 50.53 96.3499 50.67 96.3499Z" fill="white"/>
<path d="M22.2802 96.7299C21.9802 97.1999 21.7002 97.17 21.4202 96.71C21.7002 96.72 21.9902 96.7199 22.2802 96.7299Z" fill="white"/>
<path d="M18.9401 71.0999C18.8301 71.5599 18.4901 71.6399 18.0901 71.6399C18.3701 71.4599 18.6501 71.2799 18.9401 71.0999Z" fill="white"/>
<path d="M55.61 62.6099C55.46 62.8999 55.33 62.8699 55.2 62.5999C55.33 62.5999 55.47 62.6099 55.61 62.6099Z" fill="white"/>
<path d="M45.3801 65.0898C45.5001 65.2098 45.6101 65.3298 45.7301 65.4498C45.4601 65.4698 45.3401 65.3598 45.3801 65.0898Z" fill="white"/>
<path d="M76.54 95.87C76.62 95.69 76.75 95.5 76.95 95.66C77.01 95.71 76.9101 95.98 76.8801 96.15C76.7601 96.05 76.65 95.96 76.54 95.87Z" fill="white"/>
<path d="M48.2 73.3C48.05 73.6 47.91 73.56 47.78 73.28C47.92 73.29 48.06 73.3 48.2 73.3Z" fill="white"/>
<path d="M17.7501 96.32C17.5701 96.66 17.4301 96.58 17.3101 96.28C17.4501 96.29 17.6001 96.31 17.7501 96.32Z" fill="white"/>
<path d="M44.5101 96.71C44.3701 97.03 44.2201 97.05 44.0701 96.72C44.2201 96.71 44.3601 96.71 44.5101 96.71Z" fill="white"/>
<path d="M51.1002 72.85C50.8802 72.99 50.6602 73.14 50.4302 73.28C50.4302 72.78 50.7902 72.85 51.1002 72.85Z" fill="white"/>
<path d="M70.47 99.1299C70.38 99.3499 70.3 99.5999 70.03 99.2699C70.18 99.2299 70.32 99.1799 70.47 99.1299Z" fill="white"/>
<path d="M44.5 65.0499C44.66 64.9299 44.82 64.7999 44.97 64.6799C44.82 64.8099 44.66 64.9299 44.5 65.0499Z" fill="white"/>
<path d="M122.34 78.72C119.27 81.1 116.15 82.61 112.28 81.93C108.83 81.33 106.82 79.84 106.15 76.85C105.39 73.46 105.87 70.38 108.84 68.09C111.14 66.32 113.82 65.67 116.64 65.41C117.72 65.31 118.81 65.11 119.88 65.21C121.57 65.37 121.86 64.61 121.73 63.14C121.37 59.12 120.04 57.87 115.97 57.84C113.66 57.83 111.46 58.34 109.29 59.06C108.71 59.25 107.93 59.65 107.9 58.64C107.87 57.67 106.34 56.43 108.11 55.73C112.3 54.06 116.64 53.2 121.15 54.15C124.77 54.91 127.12 57.79 127.17 61.66C127.26 67.87 127.18 74.09 127.21 80.31C127.21 81.2 126.96 81.6 126.05 81.46C125.88 81.43 125.71 81.46 125.54 81.46C122.92 81.45 122.92 81.45 122.34 78.72ZM121.69 72.12C121.69 71.13 121.68 70.33 121.69 69.53C121.7 69.08 121.6 68.71 121.06 68.73C118.52 68.83 115.91 68.55 113.54 69.8C111.86 70.68 111.13 72.45 111.48 74.63C111.75 76.34 113.08 77.61 114.98 77.84C117.36 78.13 119.26 76.97 121.04 75.6C122.36 74.58 121.36 73.13 121.69 72.12Z" fill="white"/>
<path d="M173.06 78.7198C171.49 80.0298 169.83 80.9798 167.98 81.6098C165.47 82.4698 163 82.2098 160.63 81.2698C156.11 79.4798 155.08 72.4498 158.77 68.8198C161.18 66.4498 164.25 65.6898 167.49 65.3998C168.63 65.2998 169.78 65.1098 170.9 65.1998C172.39 65.3198 172.52 64.5898 172.48 63.3998C172.35 59.3498 170.87 57.8798 166.82 57.8398C164.45 57.8198 162.2 58.3498 159.97 59.0798C159.48 59.2398 158.76 59.7098 158.69 58.7198C158.62 57.7398 157.16 56.4698 158.77 55.7898C163.04 53.9898 167.51 53.1298 172.12 54.1998C175.69 55.0298 177.89 57.9898 177.9 61.7098C177.92 67.8098 177.88 73.9098 177.93 80.0098C177.94 81.0698 177.75 81.6698 176.55 81.4498C176.33 81.4098 176.09 81.4098 175.87 81.4498C174.26 81.7198 173.23 81.2898 173.28 79.4298C173.28 79.2298 173.16 79.0198 173.06 78.7198ZM172.46 72.1298C172.46 71.1298 172.46 70.3298 172.46 69.5298C172.46 69.1098 172.45 68.6998 171.87 68.7198C169.32 68.8398 166.71 68.5498 164.33 69.7798C162.73 70.6098 161.9 72.4798 162.2 74.4298C162.48 76.2498 163.7 77.4998 165.56 77.7998C167.95 78.1798 169.83 76.9998 171.67 75.6998C173.17 74.6598 172.09 73.1598 172.46 72.1298Z" fill="white"/>
<path d="M130.66 54.39C132.33 54.39 133.98 54.44 135.62 54.37C136.6 54.33 136.68 54.96 136.9 55.62C139.03 62.15 141.11 68.68 142.88 75.54C143.63 74.39 143.83 73.22 144.19 72.13C145.95 66.71 147.58 61.26 148.2 55.57C148.3 54.64 148.65 54.3 149.59 54.37C150.72 54.45 151.88 54.46 153.01 54.37C154.03 54.29 154.13 54.71 153.95 55.56C152.14 63.91 150.12 72.19 146.55 80.01C146.07 81.06 145.55 81.64 144.28 81.51C142.87 81.37 141.43 81.44 140.01 81.5C139.28 81.53 138.87 81.35 138.64 80.6C136 72.07 133.33 63.54 130.68 55.01C130.62 54.86 130.66 54.68 130.66 54.39Z" fill="white"/>
<path d="M90.24 88.06C94.96 85.8 95.9 81.58 95.9 76.92C95.91 66.89 95.9 56.86 95.89 46.83C95.89 46.49 95.92 46.14 95.88 45.8C95.79 44.93 96.11 44.65 97.03 44.62C101.77 44.49 101.77 44.46 101.77 49.21C101.77 58.55 101.81 67.9 101.77 77.24C101.75 80.77 101.04 84.15 98.84 87.04C98.29 87.76 97.66 88.44 96.97 89.02C93.66 91.82 92.74 91.68 90.24 88.06Z" fill="white"/>
</svg>
