<svg width="340" height="86" viewBox="0 0 340 86" fill="none" xmlns="http://www.w3.org/2000/svg">
<path d="M0.659912 43.5001C0.689912 43.4301 0.739906 43.3701 0.809906 43.3201C1.16991 43.3501 1.48991 43.2101 1.81991 43.0601C4.09991 42.0201 6.38991 40.9901 8.66991 39.9501C11.4999 38.6601 14.3099 37.3401 17.1399 36.0501C18.5999 35.3801 20.0799 34.7601 21.5399 34.1001C22.9099 33.4801 24.2699 32.8301 25.6399 32.2201C26.1599 31.9901 26.4299 31.6301 26.3799 31.0501C26.3699 30.9001 26.3799 30.7501 26.3799 30.6001C26.3799 21.3101 26.3799 12.0301 26.3799 2.74008C26.3799 2.24008 26.4499 1.73008 26.1799 1.27008C26.5099 0.830082 26.5799 0.800082 26.7699 1.09008C26.9599 1.38008 27.1499 1.68008 27.3299 1.98008C35.4799 15.5001 43.6299 29.0301 51.7799 42.5601C52.0099 42.9401 52.2099 43.3301 52.4099 43.6801C52.1099 44.1601 51.6699 44.3101 51.2899 44.5401C43.4399 49.1901 35.5899 53.8201 27.7299 58.4601C27.5599 58.5601 27.3699 58.6401 27.2199 58.7701C26.7099 59.1801 26.2699 59.0901 25.7199 58.7701C17.4499 53.8501 9.15991 48.9601 0.879906 44.0601C0.839906 44.0401 0.809905 43.9901 0.769905 43.9601C0.719905 43.8001 0.689912 43.6501 0.659912 43.5001Z" fill="#BABABA"/>
<path d="M26.1699 1.26001C26.4299 1.72001 26.3699 2.24001 26.3699 2.73001C26.3699 12.02 26.3699 21.3 26.3699 30.59C26.3699 30.74 26.3599 30.89 26.3699 31.04C26.4199 31.62 26.1599 31.97 25.6299 32.21C24.2599 32.82 22.8999 33.47 21.5299 34.09C20.0699 34.75 18.5899 35.38 17.1299 36.04C14.2999 37.33 11.4799 38.64 8.65991 39.94C6.37991 40.98 4.09991 42.01 1.80991 43.05C1.48991 43.2 1.16991 43.34 0.799913 43.31C0.779913 42.98 0.98991 42.75 1.13991 42.49C5.86991 34.64 10.6099 26.78 15.3499 18.93C18.5099 13.69 21.6499 8.45001 24.8099 3.22001C25.2199 2.55001 25.5399 1.80001 26.1699 1.26001Z" fill="white"/>
<path d="M26.7198 63.9201C35.0898 58.9701 43.4498 54.0201 51.8098 49.0801C52.1698 49.4501 51.8198 49.6601 51.6798 49.8701C49.1898 53.3901 46.6898 56.9001 44.1998 60.4201C38.6598 68.2301 33.1198 76.0401 27.5698 83.8401C27.2798 84.2501 26.9798 84.6501 26.6698 85.0401C26.5698 85.1601 26.4098 85.1201 26.2898 84.9901C26.3198 84.4401 26.3698 83.8901 26.3698 83.3401C26.3798 79.3901 26.3698 75.4301 26.3698 71.4801C26.3698 69.4301 26.3698 67.3801 26.3698 65.3201C26.3698 64.8301 26.2998 64.3101 26.7198 63.9201Z" fill="#BABABA"/>
<path d="M26.7199 63.9201C26.2999 64.3101 26.3699 64.8301 26.3699 65.3301C26.3699 67.3801 26.3699 69.4301 26.3699 71.4901C26.3699 75.4401 26.3699 79.4001 26.3699 83.3501C26.3699 83.9001 26.3199 84.4501 26.2899 85.0001C25.7099 84.5801 25.3899 83.9301 24.9799 83.3701C17.1899 72.4101 9.40989 61.4401 1.62989 50.4701C1.36989 50.1101 1.13989 49.7301 0.889893 49.3501C1.22989 49.1201 1.40989 49.3801 1.59989 49.4901C7.47989 52.9501 13.3499 56.4301 19.2299 59.9001C21.2199 61.0701 23.1999 62.2601 25.1899 63.4201C25.6599 63.6801 26.1099 64.0501 26.7199 63.9201Z" fill="white"/>
<path d="M320.32 42.9202C320.71 42.2702 320.98 41.8002 321.28 41.3402C322.7 39.1702 324.57 37.5502 327.12 36.8802C331.52 35.7302 335.46 37.4402 337.62 41.0702C338.78 43.0202 339.3 45.1502 339.32 47.3902C339.36 51.6602 339.33 55.9202 339.33 60.1902C339.33 60.4902 339.31 60.7902 339.24 61.0802C339.12 61.5302 338.67 61.8602 338.24 61.8502C337.74 61.8402 337.3 61.4402 337.26 60.9002C337.22 60.5002 337.24 60.1002 337.24 59.7002C337.24 55.7402 337.23 51.7702 337.24 47.8102C337.24 46.4402 337.08 45.1002 336.62 43.8102C335.76 41.4102 334.27 39.5702 331.73 38.8902C328.72 38.0802 325.78 38.9602 323.79 41.5002C322.46 43.2002 321.76 45.1702 321.35 47.2602C321.12 48.4502 321.04 49.6402 321.04 50.8502C321.05 53.9102 321.04 56.9702 321.04 60.0302C321.04 60.3802 321.04 60.7402 320.98 61.0802C320.9 61.5002 320.4 61.8602 319.98 61.8602C319.56 61.8602 319.07 61.4902 319.01 61.0502C318.94 60.6102 318.95 60.1502 318.95 59.7002C318.95 55.6302 318.94 51.5702 318.95 47.5002C318.95 46.1802 318.75 44.9002 318.31 43.6602C317.94 42.6102 317.39 41.6602 316.64 40.8302C315.32 39.3802 313.65 38.6402 311.71 38.6002C307.7 38.5102 304.91 40.3302 303.57 44.0002C302.92 45.7602 302.7 47.6002 302.7 49.4702C302.71 52.8802 302.71 56.3002 302.71 59.7102C302.71 60.1102 302.73 60.5202 302.68 60.9102C302.61 61.4402 302.13 61.8502 301.65 61.8402C301.17 61.8302 300.72 61.4202 300.64 60.8902C300.6 60.5902 300.61 60.2902 300.61 59.9902C300.61 52.9602 300.61 45.9402 300.61 38.9102C300.61 38.5602 300.6 38.2002 300.66 37.8602C300.76 37.3102 301.22 36.9502 301.71 36.9702C302.22 36.9902 302.64 37.3702 302.68 37.9302C302.72 38.5302 302.7 39.1302 302.71 39.7402C302.71 40.0402 302.71 40.3402 302.75 40.6402C302.77 40.7602 302.79 40.9602 303.01 40.9302C303.1 40.9202 303.21 40.8902 303.26 40.8302C303.56 40.4902 303.84 40.1302 304.14 39.8002C306.19 37.5702 308.72 36.4202 311.76 36.5202C315.02 36.6302 317.49 38.1402 319.23 40.8702C319.6 41.4902 319.89 42.1302 320.32 42.9202Z" fill="white"/>
<path d="M137.55 41.5302C138.15 40.8002 138.47 40.3602 138.84 39.9502C141.6 36.9502 144.96 35.8702 148.92 36.9402C151.05 37.5202 152.63 38.8702 153.84 40.6802C155.22 42.7502 155.8 45.0702 155.82 47.5202C155.86 51.7302 155.83 55.9502 155.83 60.1602C155.83 60.4602 155.81 60.7602 155.74 61.0502C155.62 61.5502 155.07 61.9102 154.61 61.8402C154.17 61.7702 153.8 61.4002 153.75 60.9202C153.71 60.5202 153.72 60.1202 153.72 59.7202C153.72 55.7602 153.72 51.7902 153.72 47.8302C153.72 46.3102 153.49 44.8302 152.93 43.4102C152.58 42.5202 152.1 41.7002 151.46 40.9702C150.36 39.7102 149 38.9302 147.34 38.7102C143.53 38.1902 140.07 39.8702 138.41 43.6002C137.58 45.4702 137.24 47.4502 137.36 49.4702C137.47 51.2302 137.45 52.9802 137.46 54.7302C137.47 56.4902 137.47 58.2402 137.46 60.0002C137.46 60.3502 137.45 60.7102 137.37 61.0402C137.25 61.5502 136.7 61.9102 136.24 61.8402C135.79 61.7702 135.43 61.4002 135.39 60.9202C135.35 60.4702 135.37 60.0202 135.37 59.5702C135.37 45.8702 135.37 32.1702 135.37 18.4702C135.37 18.1202 135.37 17.7702 135.37 17.4202C135.37 17.2702 135.37 17.1202 135.41 16.9702C135.51 16.5402 135.95 16.1902 136.4 16.1902C136.8 16.1902 137.18 16.4402 137.33 16.8302C137.4 17.0102 137.45 17.2202 137.46 17.4102C137.48 17.8102 137.47 18.2102 137.47 18.6102C137.47 25.5802 137.47 32.5602 137.47 39.5302C137.49 40.0902 137.52 40.6202 137.55 41.5302Z" fill="white"/>
<path d="M85.13 50.4901C82.17 50.4901 79.21 50.4901 76.25 50.4901C75.9 50.4901 75.55 50.4801 75.2 50.5001C74.69 50.5201 74.53 50.6601 74.64 51.1301C74.81 51.9101 74.98 52.7001 75.25 53.4501C75.81 55.0301 76.69 56.4301 77.9 57.6001C79.87 59.5301 82.23 60.4101 84.99 60.2901C88.15 60.1601 90.69 58.8901 92.62 56.3901C92.83 56.1101 93.06 55.8401 93.32 55.6101C93.61 55.3601 93.95 55.3301 94.3 55.5101C94.69 55.7101 94.89 56.0801 94.86 56.4901C94.83 56.8001 94.69 57.0601 94.53 57.3201C94.07 58.0501 93.52 58.6901 92.9 59.2801C89.29 62.7201 81.38 64.2901 76.14 58.8501C71.09 53.6101 71.17 44.9202 76.34 39.8002C80.83 35.3602 87.79 35.3002 92.34 39.6902C94.96 42.2102 96.27 45.3402 96.47 48.9402C96.53 49.9701 96.1 50.4302 95.08 50.4802C94.23 50.5102 93.37 50.4901 92.52 50.4901C90.05 50.4901 87.59 50.4901 85.13 50.4901ZM74.68 48.2701C75.09 48.4701 75.54 48.3901 75.98 48.3901C81.59 48.4001 87.21 48.3901 92.82 48.3901C93.17 48.3901 93.52 48.3801 93.87 48.3501C94.02 48.3401 94.14 48.2202 94.14 48.0502C94.15 47.9002 94.16 47.7501 94.13 47.6001C93.63 44.7301 92.33 42.3001 90.01 40.4901C86.47 37.7201 81.63 37.9001 78.27 40.8901C76.58 42.4001 75.47 44.2801 74.9 46.4601C74.75 47.0401 74.49 47.6101 74.68 48.2701Z" fill="white"/>
<path d="M171.37 50.6C171.36 50.79 171.31 50.99 171.35 51.17C171.79 53.71 172.86 55.94 174.75 57.73C176.37 59.27 178.29 60.16 180.55 60.27C184.09 60.45 187.05 59.31 189.27 56.46C189.48 56.18 189.7 55.9 189.95 55.66C190.29 55.34 190.68 55.31 191.06 55.53C191.48 55.77 191.68 56.22 191.54 56.68C191.47 56.92 191.35 57.14 191.22 57.35C190.77 58.08 190.21 58.72 189.58 59.31C185.95 62.72 178.05 64.29 172.82 58.81C167.83 53.59 167.9 44.98 172.99 39.87C178.02 34.82 186.02 35.42 190.4 41.18C192.12 43.44 193.03 46.01 193.18 48.84C193.24 49.98 192.85 50.42 191.74 50.48C191.39 50.5 191.04 50.48 190.69 50.48C184.82 50.48 178.95 50.48 173.08 50.48C172.51 50.49 171.95 50.41 171.37 50.6ZM171.39 48.27C171.76 48.46 172.17 48.39 172.57 48.39C178.23 48.39 183.9 48.39 189.56 48.39C189.86 48.39 190.16 48.39 190.46 48.37C190.77 48.36 190.89 48.17 190.87 47.88C190.86 47.78 190.86 47.68 190.85 47.58C190.34 44.77 189.08 42.38 186.83 40.57C183.24 37.69 178.24 37.88 174.86 41.01C173.24 42.52 172.16 44.35 171.61 46.49C171.46 47.06 171.19 47.63 171.39 48.27Z" fill="white"/>
<path d="M231.21 50.62C231.05 51.09 231.2 51.54 231.3 51.97C231.67 53.55 232.32 55 233.28 56.32C236.78 61.12 242.29 60.95 245.79 59.23C247.07 58.6 248.1 57.65 248.99 56.55C249.24 56.24 249.49 55.92 249.78 55.65C250.11 55.34 250.53 55.35 250.89 55.58C251.31 55.86 251.52 56.32 251.32 56.74C251.13 57.15 250.9 57.54 250.63 57.9C249.17 59.87 247.22 61.14 244.89 61.81C240.72 63.01 236.84 62.51 233.45 59.62C231.28 57.77 229.9 55.4 229.26 52.64C228.22 48.14 229.2 44.06 232.18 40.54C236.51 35.43 243.92 35.05 248.78 39.66C251.45 42.19 252.8 45.36 252.94 49.04C252.98 50.02 252.58 50.42 251.64 50.49C251.49 50.5 251.34 50.49 251.19 50.49C250.89 50.49 250.59 50.49 250.29 50.49C244.47 50.49 238.65 50.49 232.83 50.5C232.29 50.49 231.73 50.37 231.21 50.62ZM240.87 48.39C242.02 48.39 243.18 48.39 244.33 48.39C246.24 48.39 248.14 48.39 250.05 48.38C250.56 48.38 250.69 48.23 250.62 47.74C250.22 44.83 248.9 42.4 246.61 40.57C242.95 37.64 237.9 37.9 234.52 41.14C232.88 42.71 231.86 44.64 231.31 46.82C231.22 47.16 231.2 47.51 231.15 47.86C231.11 48.16 231.24 48.35 231.54 48.37C231.89 48.4 232.24 48.39 232.59 48.39C235.35 48.39 238.11 48.39 240.87 48.39Z" fill="white"/>
<path d="M286.62 49.63C286.62 53.09 286.62 56.55 286.62 60.02C286.62 60.42 286.63 60.83 286.55 61.22C286.43 61.79 285.82 62.12 285.27 61.98C284.83 61.87 284.57 61.54 284.54 60.97C284.51 60.27 284.53 59.57 284.53 58.86C284.53 58.56 284.53 58.26 284.49 57.96C284.47 57.83 284.42 57.65 284.22 57.67C284.13 57.68 284.02 57.7 283.97 57.76C283.78 57.99 283.6 58.23 283.42 58.47C282.91 59.16 282.34 59.79 281.69 60.35C277.54 63.97 271.2 63.01 268.26 58.53C266.96 56.54 266.28 54.35 266.25 52C266.19 47.54 266.23 43.07 266.23 38.6C266.23 38.4 266.22 38.19 266.27 38C266.38 37.49 266.87 37.13 267.37 37.17C267.83 37.21 268.23 37.55 268.29 38.02C268.34 38.42 268.32 38.82 268.32 39.22C268.32 43.18 268.33 47.15 268.32 51.11C268.32 52.48 268.46 53.81 268.91 55.11C269.06 55.53 269.23 55.95 269.43 56.36C270.77 59.11 273.37 60.93 277.26 60.38C279.78 60.02 281.59 58.65 282.75 56.4C283.63 54.68 284.04 52.83 284.27 50.92C284.48 49.12 284.55 47.32 284.53 45.51C284.51 43.4 284.53 41.3 284.53 39.19C284.53 38.84 284.51 38.49 284.54 38.14C284.59 37.56 284.98 37.21 285.51 37.18C286.03 37.16 286.47 37.5 286.56 38.06C286.62 38.45 286.61 38.86 286.61 39.26C286.62 42.7 286.62 46.17 286.62 49.63Z" fill="white"/>
<path d="M116.15 50.2301C116.15 53.4401 116.15 56.6501 116.15 59.8601C116.15 60.2601 116.17 60.6701 116.12 61.0601C116.05 61.6001 115.6 61.9901 115.11 62.0001C114.61 62.0001 114.16 61.6101 114.1 61.0701C114.05 60.6701 114.07 60.2701 114.07 59.8701C114.07 53.5001 114.07 47.1301 114.07 40.7501C114.07 38.8701 114.28 39.0801 112.38 39.0701C111.38 39.0601 110.37 39.0701 109.37 39.0701C109.07 39.0701 108.76 39.0801 108.47 39.0301C108.02 38.9501 107.69 38.5101 107.68 38.0501C107.67 37.5901 107.98 37.1301 108.43 37.0401C108.77 36.9701 109.13 36.9701 109.48 36.9701C110.73 36.9601 111.99 36.9801 113.24 36.9601C114.02 36.9501 114.06 36.9101 114.07 36.0701C114.08 34.0101 114.07 31.9601 114.08 29.9001C114.08 29.5501 114.06 29.1901 114.11 28.8501C114.18 28.3001 114.62 27.9201 115.11 27.9101C115.63 27.9001 116.06 28.2601 116.13 28.8201C116.18 29.2201 116.16 29.6201 116.16 30.0201C116.16 32.0801 116.16 34.1301 116.17 36.1901C116.17 36.8701 116.27 36.9501 116.96 36.9601C118.26 36.9701 119.57 36.9601 120.87 36.9701C121.22 36.9701 121.58 36.9601 121.92 37.0201C122.44 37.1101 122.81 37.6201 122.77 38.1001C122.73 38.5401 122.38 38.9501 121.92 39.0201C121.58 39.0701 121.22 39.0601 120.87 39.0601C119.52 39.0701 118.16 39.0601 116.81 39.0701C116.3 39.0801 116.2 39.1901 116.18 39.6801C116.16 40.0301 116.17 40.3801 116.17 40.7301C116.15 43.9101 116.15 47.0701 116.15 50.2301Z" fill="white"/>
<path d="M209.13 42.14C209.51 41.67 209.82 41.28 210.15 40.91C211.78 39.06 213.7 37.67 216.16 37.13C216.7 37.01 217.25 36.94 217.8 37.01C218.32 37.08 218.65 37.42 218.69 37.88C218.75 38.43 218.47 38.85 217.93 39.02C217.74 39.08 217.54 39.09 217.34 39.13C212.84 40.03 210.3 42.89 209.27 47.25C209.04 48.23 208.93 49.23 208.92 50.24C208.92 53.4 208.91 56.57 208.9 59.73C208.9 60.13 208.92 60.54 208.85 60.93C208.76 61.47 208.28 61.8 207.76 61.77C207.22 61.73 206.88 61.38 206.82 60.78C206.79 60.43 206.81 60.08 206.81 59.73C206.81 52.85 206.81 45.97 206.81 39.1C206.81 38.85 206.8 38.6 206.81 38.35C206.85 37.51 207.28 36.98 207.9 37.01C208.48 37.04 208.87 37.5 208.89 38.29C208.92 39.19 208.89 40.1 208.9 41C208.92 41.32 208.81 41.67 209.13 42.14Z" fill="white"/>
</svg>
