<svg width="208" height="86" viewBox="0 0 208 86" fill="none" xmlns="http://www.w3.org/2000/svg">
<path d="M55.74 0.610118C59.77 0.610118 63.79 0.610116 67.82 0.620116C68.11 0.620116 68.52 0.470119 68.65 0.810119C68.76 1.11012 68.43 1.37012 68.23 1.57012C65.58 4.24012 62.91 6.89012 60.25 9.55012C57.3 12.4901 54.36 15.4501 51.42 18.3901C49.05 20.7701 46.67 23.1401 44.29 25.5101C41.27 28.5201 38.24 31.5401 35.22 34.5501C31.88 37.8701 28.54 41.1901 25.22 44.5201C21.7 48.0401 18.19 51.5801 14.7 55.1201C13.74 56.0901 13.65 56.1001 12.69 55.1401C8.98001 51.4301 5.26001 47.7201 1.55001 44.0101C0.560014 43.0201 0.550004 42.9801 1.54 42.0001C15.05 28.4901 28.56 14.9901 42.05 1.47012C42.68 0.840118 43.33 0.580117 44.21 0.590117C48.03 0.630117 51.89 0.610118 55.74 0.610118Z" fill="white"/>
<path d="M32.3301 50.3802C33.2801 49.0502 34.5801 48.0702 35.7001 46.9102C37.6801 44.8502 39.7401 42.8702 41.7401 40.8202C42.5001 40.0402 43.2501 39.5402 44.4501 39.5502C52.1601 39.6102 59.8701 39.5802 67.5801 39.5902C67.9601 39.5902 68.4901 39.3602 68.7001 39.8202C68.9201 40.2902 68.3901 40.5202 68.1201 40.7902C60.8901 48.0302 53.6601 55.2602 46.4301 62.4902C46.3001 62.4902 46.1701 62.4902 46.0401 62.4902C45.8701 62.0302 45.5701 61.6702 45.2201 61.3402C44.2001 60.3902 43.1601 59.4502 42.2001 58.4502C39.9501 56.1002 37.7101 53.7202 35.3001 51.5402C34.5301 50.8402 33.8701 49.3002 32.3301 50.3802Z" fill="white"/>
<path d="M46.0401 62.4902C46.1701 62.4902 46.3001 62.4902 46.4301 62.4902C47.6701 64.0702 49.2001 65.3702 50.5901 66.8102C53.6601 69.9702 56.7901 73.0702 59.9001 76.1802C62.5401 78.8102 65.2001 81.4302 67.8501 84.0502C68.2001 84.4002 68.5301 84.7802 68.8801 85.1602C68.5101 85.5302 68.1101 85.3902 67.7601 85.3902C59.8201 85.4002 51.8801 85.3902 43.9401 85.4102C43.2301 85.4102 42.7101 85.1902 42.2201 84.7002C39.3201 81.7902 36.3901 78.9002 33.4801 75.9902C33.3201 75.8302 33.2401 75.5902 33.1201 75.3902C37.3301 71.0002 41.6801 66.7302 46.0401 62.4902ZM39.2601 69.9902C37.2401 71.4102 35.7401 73.3802 33.9601 75.0402C33.8401 75.1502 33.7101 75.3202 33.9101 75.4702C34.0701 75.5902 34.2301 75.4902 34.3801 75.4102C35.2701 74.9002 36.2401 74.6002 37.2201 74.3102C37.5201 74.3302 37.8101 74.3202 37.8501 73.9202C37.9101 73.9202 37.9801 73.9102 38.0401 73.9102C38.8901 73.9002 39.5201 73.3002 40.2901 73.0902C40.9901 73.1802 41.4801 72.6702 42.0701 72.4602C43.1801 72.0502 43.4901 71.4102 43.2501 70.1802C43.0301 69.1002 42.7601 67.7702 43.5901 66.8402C44.4401 65.8802 45.0301 64.6902 46.1201 63.9502C46.3801 63.7702 46.5501 63.5202 46.3701 63.2702C46.1101 62.9102 45.8701 63.3002 45.7101 63.4402C44.6001 64.4702 43.5001 65.5202 42.4101 66.5802C42.1301 66.8602 41.7401 67.0802 41.7201 67.5502C40.6701 68.1302 39.8701 68.9602 39.2601 69.9902Z" fill="#C6C6C6"/>
<path d="M46.0401 62.4902C41.6801 66.7402 37.3301 71.0002 33.1201 75.4002C32.1601 74.9702 31.5901 74.0802 30.8701 73.3802C27.4301 70.0002 24.0501 66.5502 20.6301 63.1502C20.2101 62.7302 20.1201 62.4602 20.6001 61.9902C23.4201 59.2402 26.1401 56.3902 29.0001 53.6702C30.1301 52.6002 31.1301 51.4002 32.3201 50.3802C33.8701 49.3102 34.5301 50.8402 35.3001 51.5402C37.7101 53.7202 39.9501 56.0902 42.2001 58.4502C43.1501 59.4502 44.2001 60.3902 45.2201 61.3402C45.5801 61.6602 45.8701 62.0302 46.0401 62.4902Z" fill="white"/>
<path d="M180.76 49.3702C177.9 49.3702 175.03 49.4002 172.17 49.3502C171.28 49.3302 171.05 49.6402 171.13 50.4702C171.53 54.2002 173.5 57.7402 177.32 58.8902C180.99 60.0002 185.21 58.0402 186.63 54.4302C187.36 52.5802 187.93 52.2802 189.95 52.6102C190.37 52.6802 190.46 52.8702 190.38 53.2302C189.43 57.2802 186.92 61.0802 181.89 61.7002C179.42 62.0002 176.99 62.0002 174.65 61.0802C171.7 59.9302 169.83 57.7302 168.85 54.7702C167.2 49.7602 167.29 44.8102 169.86 40.1402C171.68 36.8402 174.66 35.1802 178.46 34.9702C182.45 34.7502 185.75 35.9702 188.11 39.3202C189.33 41.0502 189.98 43.0202 190.31 45.0902C190.48 46.1602 190.51 47.2602 190.62 48.3402C190.7 49.1502 190.35 49.4102 189.55 49.4002C186.63 49.3502 183.7 49.3702 180.76 49.3702ZM179.2 46.5702C181.52 46.5702 183.83 46.5702 186.15 46.5702C187.36 46.5702 187.34 46.5402 187.2 45.3802C187.04 44.0002 186.53 42.7502 185.86 41.5602C183.44 37.2502 177.75 36.4202 174.2 39.8302C172.59 41.3802 171.79 43.3202 171.27 45.4302C171.06 46.2702 171.22 46.6002 172.15 46.5902C174.5 46.5402 176.85 46.5702 179.2 46.5702Z" fill="white"/>
<path d="M78.8201 43.5202C78.8201 38.0002 78.83 32.4702 78.8 26.9502C78.8 26.1802 79.02 25.9602 79.78 25.9602C86.6 25.9802 93.4201 25.9902 100.24 25.9602C101.02 25.9602 101.24 26.2002 101.21 26.9502C101.13 29.2802 101.52 28.9202 99.29 28.9302C94 28.9502 88.72 28.9502 83.43 28.9202C82.55 28.9102 82.24 29.1202 82.25 30.0502C82.3 33.5302 82.29 37.0102 82.26 40.4802C82.25 41.3002 82.5301 41.5302 83.3201 41.5302C88.2001 41.5002 93.07 41.5402 97.95 41.4902C98.85 41.4802 99.12 41.7102 99.08 42.6302C99 44.4702 99.0601 44.4702 97.2401 44.4702C92.7001 44.4702 88.1701 44.4702 83.6301 44.4702C82.2701 44.4702 82.2701 44.4702 82.2701 45.8802C82.2701 50.6502 82.25 55.4302 82.29 60.2002C82.3 61.0002 82.08 61.2502 81.2701 61.2502C78.8101 61.2402 78.81 61.2702 78.81 58.8602C78.82 53.7502 78.8201 48.6402 78.8201 43.5202Z" fill="white"/>
<path d="M130.8 57.4801C129.87 58.7801 128.85 59.8901 127.46 60.6201C124.3 62.2701 121.01 62.3301 117.79 61.0701C114.55 59.7901 113.51 56.8601 113.43 53.7101C113.28 48.0201 113.4 42.3201 113.38 36.6301C113.38 35.9601 113.59 35.7201 114.25 35.7301C117.06 35.7601 116.6 35.2901 116.62 37.9601C116.66 43.0401 116.62 48.1201 116.72 53.2001C116.75 54.85 117.29 56.4001 118.52 57.6401C120.48 59.6201 125.73 59.9701 128.24 57.0301C130.02 54.9501 130.75 52.5101 130.8 49.8801C130.89 45.5501 130.85 41.2201 130.8 36.8901C130.79 35.9701 131.1 35.7101 131.98 35.7301C134.12 35.7601 134.12 35.7301 134.12 37.9101C134.12 45.2401 134.12 52.5701 134.12 59.9001C134.12 61.2701 134.12 61.2701 132.79 61.2701C132.48 61.2701 132.18 61.26 131.87 61.2701C131.31 61.2901 131.08 61.0401 131.09 60.4701C131.11 59.5901 131.07 58.7001 131.04 57.8201C131.03 57.7401 130.96 57.6901 130.8 57.4801Z" fill="white"/>
<path d="M156.21 48.1402C156.21 45.2802 156.18 42.4102 156.23 39.5502C156.24 38.6602 155.94 38.3102 155.05 38.3702C154.2 38.4302 153.35 38.3602 152.49 38.3902C152.01 38.4002 151.85 38.2202 151.81 37.7402C151.66 35.7302 151.64 35.7402 153.69 35.7302C156.58 35.7102 156.18 36.0902 156.2 33.2502C156.21 31.8202 156.22 30.3902 156.18 28.9602C156.16 28.3302 156.3 28.0502 157.01 28.0302C159.33 27.9902 159.33 27.9602 159.33 30.3102C159.33 31.7402 159.36 33.1702 159.32 34.6002C159.29 35.4202 159.55 35.7902 160.43 35.7402C161.52 35.6802 162.61 35.7502 163.7 35.7202C164.34 35.7002 164.62 35.9002 164.6 36.5902C164.53 38.7402 164.84 38.3402 162.81 38.3802C161.96 38.4002 161.11 38.3902 160.25 38.3802C159.6 38.3702 159.33 38.6802 159.33 39.3102C159.34 44.4602 159.32 49.6002 159.34 54.7502C159.34 55.4202 159.45 56.1002 159.56 56.7702C159.79 58.0802 160.44 58.6602 161.78 58.7102C162.43 58.7302 163.08 58.7202 163.72 58.6802C164.31 58.6402 164.57 58.7902 164.59 59.4602C164.62 61.2402 164.65 61.2102 162.87 61.3702C161.67 61.4802 160.48 61.3802 159.3 61.2302C157.32 60.9802 156.22 59.3402 156.19 56.6302C156.19 53.8002 156.21 50.9702 156.21 48.1402Z" fill="white"/>
<path d="M141.88 48.0701C141.88 45.2401 141.86 42.4101 141.89 39.5801C141.9 38.7101 141.66 38.3101 140.73 38.3801C139.98 38.4401 139.22 38.3301 138.48 38.4101C137.62 38.5001 137.38 38.1301 137.48 37.3601C137.52 37.0601 137.5 36.7501 137.48 36.4401C137.44 35.9001 137.71 35.7201 138.22 35.7301C139.04 35.7501 139.86 35.6801 140.68 35.7501C141.65 35.8301 141.92 35.4101 141.89 34.5001C141.83 32.6601 141.9 30.8201 141.86 28.9701C141.84 28.2401 142.09 28.0401 142.8 28.0401C145.01 28.0401 145.01 28.0101 145.01 30.2301C145.01 31.7301 145.04 33.2301 145 34.7301C144.98 35.4901 145.28 35.7801 146.02 35.7601C147.15 35.7301 148.27 35.7801 149.4 35.7401C150.08 35.7201 150.29 35.9801 150.27 36.6401C150.21 38.7301 150.49 38.3701 148.56 38.4001C147.71 38.4101 146.85 38.4201 146 38.4001C145.31 38.3801 145.01 38.6701 145.01 39.3701C145.02 44.5201 145.01 49.6701 145.03 54.8201C145.03 55.4301 145.12 56.0401 145.21 56.6401C145.41 58.0501 146.1 58.6701 147.52 58.7301C148.03 58.7501 148.54 58.7001 149.05 58.7401C149.45 58.7601 150.07 58.4201 150.2 59.0301C150.35 59.7101 150.34 60.4501 150.17 61.1501C150.15 61.2201 150.01 61.2901 149.93 61.3001C148.06 61.4201 146.18 61.6701 144.36 61.0601C142.22 60.3401 141.92 58.4901 141.89 56.5901C141.84 53.7301 141.87 50.9001 141.88 48.0701Z" fill="white"/>
<path d="M194.47 48.5101C194.47 44.6201 194.49 40.7301 194.45 36.8401C194.44 36.0301 194.61 35.6701 195.51 35.7001C197.81 35.7701 197.4 35.5001 197.43 37.5901C197.44 38.3401 197.43 39.0901 197.44 39.8401C197.44 40.0601 197.37 40.3601 197.66 40.4601C197.97 40.5601 198.03 40.2501 198.14 40.0601C199.48 37.6701 201.53 36.2201 204.15 35.5201C204.99 35.3001 205.84 35.3901 206.69 35.3801C206.79 35.3801 206.95 35.3901 206.98 35.4501C207.4 36.3201 207.14 37.2401 207.14 38.1401C207.14 38.7801 206.57 38.5801 206.2 38.6001C201.24 38.9101 197.76 42.6001 197.75 47.5701C197.75 51.7301 197.73 55.8901 197.77 60.0501C197.78 60.9001 197.61 61.2601 196.66 61.2501C194.47 61.2101 194.47 61.2601 194.47 59.0401C194.47 55.5401 194.47 52.0201 194.47 48.5101Z" fill="white"/>
<path d="M107.67 43.5901C107.67 49.1201 107.65 54.6401 107.69 60.1701C107.7 61.0201 107.46 61.2901 106.6 61.2601C104.06 61.1801 104.48 61.5301 104.48 59.1501C104.47 48.4401 104.49 37.7301 104.45 27.0201C104.45 26.1101 104.77 25.9501 105.56 25.9601C107.67 25.9801 107.67 25.9501 107.67 28.0401C107.67 33.2201 107.67 38.4001 107.67 43.5901Z" fill="white"/>
<path d="M41.73 67.5601C41.75 67.0901 42.13 66.8701 42.42 66.5901C43.51 65.5301 44.6 64.4801 45.72 63.4501C45.87 63.3101 46.1201 62.9201 46.3801 63.2801C46.5601 63.5301 46.3901 63.7801 46.1301 63.9601C45.0401 64.7001 44.4501 65.8901 43.6001 66.8501C42.7701 67.7801 43.04 69.1101 43.26 70.1901C43.51 71.4201 43.19 72.0601 42.08 72.4701C41.49 72.6901 41 73.1901 40.3 73.1001C40.57 71.2701 40.4 69.3101 41.73 67.7601C41.76 67.7201 41.73 67.6301 41.73 67.5601Z" fill="#BABABA"/>
<path d="M38.0501 73.92C37.9901 73.93 37.9201 73.93 37.8601 73.93C37.5601 73.91 37.2701 73.91 37.2301 74.32C36.2501 74.61 35.2801 74.91 34.3901 75.42C34.2401 75.51 34.0801 75.6 33.9201 75.48C33.7201 75.33 33.8501 75.16 33.9701 75.05C35.7601 73.39 37.2501 71.41 39.2701 70C39.4201 70.28 39.4301 70.51 39.2601 70.83C38.9801 71.35 38.7601 71.96 38.9101 72.56C39.0401 73.1 38.9601 73.39 38.4101 73.51C38.1701 73.55 38.0701 73.69 38.0501 73.92Z" fill="#7F7F7F"/>
<path d="M38.05 73.9201C38.07 73.7001 38.17 73.5501 38.41 73.5001C38.96 73.3801 39.04 73.0901 38.91 72.5501C38.76 71.9601 38.98 71.3501 39.26 70.8201C39.43 70.5001 39.4201 70.2701 39.2701 69.9901C39.8801 68.9601 40.6801 68.1301 41.7401 67.5601C41.7401 67.6301 41.77 67.7201 41.73 67.7601C40.4 69.3101 40.57 71.2701 40.3 73.1001C39.53 73.3101 38.89 73.9001 38.05 73.9201Z" fill="#A0A0A0"/>
<path d="M37.22 74.3101C37.26 73.9001 37.55 73.9101 37.85 73.9201C37.81 74.3301 37.52 74.3401 37.22 74.3101Z" fill="#7F7F7F"/>
</svg>
