<svg width="230" height="80" viewBox="0 0 230 80" fill="none" xmlns="http://www.w3.org/2000/svg">
<path d="M57.3401 26.6401C57.3801 26.5701 57.4401 26.5301 57.5201 26.5301C57.9401 26.6601 58.3501 26.8201 58.7801 26.9201C67.1401 28.8801 75.5101 30.8401 83.8801 32.7601C84.4001 32.8801 85.1001 33.4501 85.4801 32.8201C85.7501 32.3801 85.0901 31.8901 84.8001 31.4501C80.0401 24.3401 75.2901 17.2301 70.4801 10.1601C69.6701 8.97012 69.9101 8.56011 71.2201 8.42011C71.4601 8.39011 71.7001 8.33011 71.9401 8.27011C75.3301 7.47011 78.7101 6.67012 82.1001 5.87012C86.4401 7.47012 90.2401 9.70011 91.4401 14.6001C92.2101 17.7301 91.7901 20.8301 90.7601 23.8601C90.0701 25.8901 89.2401 27.8501 88.3301 29.7801C88.2201 29.8801 88.0901 29.9601 88.0201 30.0901C84.5401 36.2301 79.7601 41.2801 74.6001 45.9901C74.1301 46.4201 73.9801 46.9401 73.8801 47.5401C72.6401 55.4201 71.3301 63.2901 70.1401 71.1801C69.7701 73.6401 69.0401 76.0601 69.1801 78.5901L69.2001 78.5501C68.8701 78.7401 68.8801 79.0601 68.9001 79.3801C68.8401 79.5401 68.8201 79.7501 68.5601 79.6201C64.4201 72.9301 60.2601 66.2501 56.1401 59.5501C55.6601 58.7801 55.1801 58.7901 54.4301 59.1401C50.7301 60.8701 46.9701 62.4301 43.0801 63.7101C40.1901 64.6601 37.2401 65.3901 34.1101 66.2201C39.7801 68.5201 45.2301 70.7601 50.7001 72.9501C55.5701 74.9001 60.4501 76.8101 65.3301 78.7401C63.5301 79.0501 61.8801 78.2701 60.2001 77.8901C51.0501 75.8101 41.9301 73.6201 32.8001 71.4601C25.8901 69.8301 18.9901 68.1201 12.0501 66.6001C9.08012 65.9501 6.90012 64.6101 5.51012 61.8101C3.80012 58.3801 2.11012 54.9801 0.870121 51.3401C0.200121 49.3801 0.65012 47.7201 1.33012 45.9901C3.75012 43.7001 5.82012 41.0401 8.56012 38.7501C9.46012 47.9901 10.3301 56.9601 11.2101 65.9201C12.1801 65.0701 12.7501 64.2201 13.3301 63.3701C18.6401 55.5701 23.9501 47.7801 29.2601 39.9801C29.3601 39.9501 29.4501 39.9301 29.5501 39.9001C29.7201 40.0701 29.8801 40.2701 30.0701 40.4101C37.0601 45.4001 44.0601 50.3801 51.0601 55.3601C52.4701 56.3701 53.8901 57.3601 55.5201 58.5201C55.7601 54.0201 55.9201 49.8601 56.2201 45.7201C56.6701 39.3601 57.0901 33.0101 57.3401 26.6401Z" fill="#BABABA"/>
<path d="M20.8801 38.09C18.8501 38.08 16.8601 37.87 14.9101 37.26C9.97013 35.73 8.03013 31.91 9.77013 27.02C11.3001 22.73 14.2101 19.4 17.5301 16.42C24.8001 9.85999 33.2301 5.29999 42.5601 2.44C47.6001 0.889995 52.7601 -0.180003 58.1101 0.609997C59.1701 0.769997 60.2501 0.979998 61.2601 1.33C65.9001 2.94 67.6601 6.71 65.9801 11.44C64.4501 15.74 61.5501 19.07 58.2201 22.04C49.4401 29.86 39.2501 34.93 27.7701 37.39C25.5001 37.86 23.2001 38.11 20.8801 38.09Z" fill="white"/>
<path d="M57.34 26.6401C57.1 33.0101 56.67 39.3601 56.22 45.7201C55.92 49.8701 55.76 54.0301 55.5201 58.5201C53.8901 57.3701 52.47 56.3701 51.06 55.3601C44.06 50.3801 37.0701 45.4001 30.0701 40.4101C29.8701 40.2701 29.72 40.0701 29.55 39.9001C34.35 37.5901 39.15 35.2601 43.95 32.9701C48.4 30.8501 52.87 28.7501 57.34 26.6401Z" fill="white"/>
<path d="M82.1 5.88007C78.71 6.68007 75.33 7.48007 71.94 8.28008C71.7 8.34008 71.46 8.41008 71.22 8.43008C69.91 8.57008 69.67 8.98007 70.48 10.1701C75.3 17.2401 80.04 24.3501 84.8 31.4601C85.09 31.8901 85.75 32.3801 85.48 32.8301C85.1 33.4501 84.4 32.8901 83.88 32.7701C75.51 30.8401 67.14 28.8901 58.78 26.9301C58.35 26.8301 57.94 26.6701 57.52 26.5401C61.24 21.0501 64.93 15.5401 68.69 10.0801C69.35 9.12008 69.5 8.42007 68.79 7.38007C67.27 5.16007 65.92 2.84008 64.36 0.330078C70.53 1.89008 76.46 3.41007 82.1 5.88007Z" fill="white"/>
<path d="M29.2501 39.9901C23.9401 47.7901 18.6301 55.5801 13.3201 63.3801C12.7401 64.2301 12.1701 65.0801 11.2001 65.9301C10.3301 56.9701 9.45007 48.0001 8.55007 38.7601C5.81007 41.0501 3.74007 43.7101 1.32007 46.0001C2.95007 39.9601 4.85007 34.0301 7.97007 28.5701C8.14007 28.5801 8.32007 28.6001 8.49007 28.6101C8.49007 31.4801 8.53007 34.3501 8.47007 37.2301C8.45007 38.2901 8.79007 38.7501 9.85007 38.8101C14.9501 39.0901 20.0401 39.4001 25.1401 39.7001C26.5101 39.7701 27.8601 40.1201 29.2501 39.9901Z" fill="white"/>
<path d="M65.3201 78.7501C60.4401 76.8201 55.5601 74.9101 50.6901 72.9601C45.2201 70.7701 39.7801 68.5301 34.1001 66.2301C37.2301 65.4001 40.1801 64.6601 43.0701 63.7201C46.9601 62.4501 50.7201 60.8801 54.4201 59.1501C55.1601 58.8001 55.6501 58.7901 56.1301 59.5601C60.2601 66.2601 64.4101 72.9501 68.5501 79.6301C67.3201 79.8801 66.5101 78.6301 65.3201 78.7501Z" fill="white"/>
<path d="M69.1701 78.6C69.0301 76.07 69.7502 73.65 70.1302 71.19C71.3202 63.3 72.6301 55.43 73.8701 47.55C73.9701 46.95 74.1101 46.43 74.5901 46C79.7601 41.28 84.5401 36.24 88.0101 30.1C88.0801 29.98 88.2202 29.9 88.3202 29.79C87.5602 32.78 86.2101 35.55 85.0901 38.41C79.9801 51.48 74.8401 64.53 69.7001 77.58C69.5601 77.93 69.3501 78.26 69.1701 78.6Z" fill="white"/>
<path d="M138.96 58.8202C137.01 59.3902 135.81 59.0502 134.85 57.2702C132.67 53.2502 130.23 49.3802 127.98 45.4002C127.33 44.2502 126.58 43.7302 125.23 43.7802C122.67 43.8802 120.11 43.9002 117.55 43.7802C115.78 43.6902 115.09 44.1802 115.16 46.0802C115.31 49.8002 115.21 53.5302 115.2 57.2502C115.2 58.1502 115.44 59.0902 113.91 59.1202C112.32 59.1502 112.42 58.2402 112.42 57.1802C112.43 46.0902 112.45 34.9902 112.4 23.9002C112.39 22.4102 112.76 21.8502 114.33 21.8902C118.44 21.9902 122.56 21.8402 126.66 21.9502C132.42 22.1002 136.68 25.4802 137.85 30.6502C138.98 35.6402 136.52 40.3902 131.29 42.9102C129.74 43.6502 130.37 44.2802 130.89 45.1602C133.57 49.6702 136.24 54.2002 138.96 58.8202ZM115.21 32.7302C115.21 35.0502 115.2 37.3802 115.22 39.7002C115.23 40.3602 115.03 41.2702 116.1 41.2402C120.58 41.1002 125.12 41.8802 129.53 40.7902C133.39 39.8302 135.67 35.9702 135.21 31.7902C134.78 27.8802 131.58 24.7602 127.62 24.6202C123.98 24.4902 120.33 24.6202 116.69 24.5402C115.37 24.5102 115.16 25.1102 115.19 26.2202C115.25 28.3902 115.21 30.5602 115.21 32.7302Z" fill="white"/>
<path d="M176.65 53.3503C176.65 54.9403 176.66 56.0903 176.65 57.2403C176.64 58.1303 176.92 59.1203 175.37 59.1003C173.85 59.0903 174.06 58.1303 174.06 57.2203C174.05 47.4503 174.06 37.6803 174.06 27.9103C174.06 26.6703 174.01 25.4303 174.08 24.1903C174.13 23.2403 173.54 21.8703 175.44 21.9103C177.2 21.9503 176.63 23.2303 176.64 24.0903C176.69 28.3503 176.66 32.6203 176.67 36.8803C176.67 37.2303 176.51 37.6603 176.95 37.9103C184.66 30.7303 192.43 30.1403 198.13 36.3203C203.25 41.8703 203.04 50.7803 197.66 55.8503C191.6 61.5503 183.77 60.7403 176.65 53.3503ZM187.87 57.1603C194.19 57.2003 199.26 52.2103 199.31 45.8803C199.36 39.6703 194.16 34.4403 187.95 34.4603C181.77 34.4803 176.74 39.4803 176.66 45.6803C176.58 52.0103 181.57 57.1203 187.87 57.1603Z" fill="white"/>
<path d="M229.48 32.8202C228 36.5702 226.58 40.3202 225.04 44.0302C222.28 50.6802 220.1 57.5702 216.8 63.9902C215.26 66.9702 212.88 68.9702 209.54 69.6302C208.9 69.7602 207.91 70.2602 207.7 68.9902C207.52 67.9102 207.84 67.4302 209.1 67.1902C212.15 66.6102 215.52 62.8902 215.99 59.9902C216.13 59.1402 215.64 58.5102 215.34 57.8202C211.97 50.3302 208.58 42.8602 205.2 35.3702C204.82 34.5302 204.49 33.6802 204.12 32.7902C205.91 32.1802 206.84 32.6602 207.6 34.3702C210.74 41.5302 214.04 48.6102 217.29 55.7502C218.22 55.2702 218.24 54.4102 218.51 53.7302C221.04 47.3202 223.6 40.9202 226.02 34.4602C226.66 32.7302 227.55 32.0902 229.48 32.8202Z" fill="white"/>
<path d="M163.16 54.8402C160.33 58.4702 156.8 59.8802 152.45 59.5602C147.63 59.2002 143.86 55.8802 143.59 51.0302C143.27 45.3102 143.43 39.5702 143.35 33.8402C143.34 32.8202 143.76 32.5302 144.74 32.5202C145.88 32.5102 145.97 33.1302 145.97 33.9902C145.96 38.9502 145.93 43.9102 145.99 48.8602C146.03 51.9502 146.84 54.7602 149.87 56.2402C152.95 57.7402 156.08 57.5302 158.96 55.7402C161.84 53.9602 162.99 51.0802 163.08 47.8402C163.21 43.3502 163.15 38.8602 163.17 34.3602C163.17 33.4502 162.95 32.4902 164.47 32.4902C165.94 32.4902 165.83 33.3802 165.82 34.3302C165.82 42.0002 165.81 49.6702 165.83 57.3402C165.83 58.3902 165.75 59.1102 164.37 59.0802C163 59.0502 163.16 58.2102 163.16 57.3602C163.16 56.5402 163.16 55.6902 163.16 54.8402Z" fill="white"/>
<path d="M76.7702 69.54C76.7502 69.22 76.7402 68.9 77.0702 68.71C77.0402 69.01 77.0602 69.34 76.7702 69.54Z" fill="#EE0F14"/>
</svg>
