<svg width="236" height="79" viewBox="0 0 236 79" fill="none" xmlns="http://www.w3.org/2000/svg">
<path d="M110.95 47.76C110.94 47.97 110.93 48.17 110.93 48.38C110.93 52.84 110.93 57.3 110.93 61.76C110.93 61.88 110.93 62 110.93 62.12C110.92 62.48 110.92 62.49 110.56 62.49C109.46 62.49 108.36 62.49 107.27 62.49C107.05 62.49 106.82 62.48 106.6 62.49C106.39 62.5 106.27 62.43 106.29 62.2C106.3 62.08 106.29 61.96 106.29 61.84C106.29 49.83 106.29 37.82 106.29 25.81C106.29 25.11 106.21 25.19 106.93 25.19C111.68 25.19 116.43 25.2 121.19 25.19C123.4 25.18 125.5 25.6 127.46 26.65C129.67 27.83 131.24 29.6 132.15 31.93C133 34.1 133.16 36.35 132.78 38.64C132.48 40.43 131.82 42.09 130.66 43.5C129.86 44.47 128.92 45.3 127.8 45.92C126.45 46.67 125.02 47.09 123.49 47.26C123.44 47.27 123.39 47.26 123.33 47.4C126.61 52.38 129.95 57.39 133.25 62.41C133.11 62.53 132.99 62.49 132.88 62.49C131.34 62.49 129.79 62.49 128.25 62.5C127.92 62.5 127.74 62.41 127.57 62.1C127.26 61.52 126.86 60.99 126.51 60.44C126.08 59.77 125.66 59.1 125.24 58.42C124.91 57.89 124.59 57.35 124.24 56.84C123.76 56.12 123.3 55.4 122.84 54.67C122.48 54.08 122.07 53.52 121.7 52.94C121.03 51.88 120.4 50.81 119.72 49.76C119.3 49.11 118.86 48.47 118.49 47.79C118.41 47.64 118.27 47.66 118.13 47.66C117.74 47.66 117.34 47.66 116.95 47.66C115.08 47.66 113.21 47.66 111.34 47.66C111.25 47.66 111.17 47.67 111.08 47.68C110.97 47.67 110.94 47.69 110.95 47.76ZM110.92 36.43C110.92 38.66 110.92 40.89 110.92 43.12C110.92 43.57 110.93 43.57 111.37 43.58C111.4 43.58 111.44 43.58 111.47 43.58C114.51 43.58 117.54 43.58 120.58 43.58C121.16 43.58 121.74 43.56 122.32 43.45C124.26 43.08 125.85 42.17 126.97 40.51C127.95 39.05 128.27 37.42 128.11 35.7C127.91 33.49 126.93 31.71 125.03 30.5C123.73 29.68 122.3 29.34 120.77 29.34C117.67 29.34 114.56 29.34 111.46 29.34C111.41 29.34 111.36 29.34 111.31 29.34C110.94 29.35 110.94 29.35 110.92 29.7C110.92 29.8 110.92 29.91 110.92 30.01C110.92 32.14 110.92 34.28 110.92 36.43Z" fill="white"/>
<path d="M159.91 56.3801C160.53 57.2301 161.14 58.0801 161.77 58.9101C161.9 59.0801 161.86 59.1701 161.73 59.2901C161.27 59.6801 160.82 60.0601 160.34 60.4201C158.46 61.8601 156.33 62.6901 154.02 63.0601C152.33 63.3301 150.64 63.2701 148.94 63.0601C148.16 62.9601 147.38 62.8301 146.64 62.5801C146.22 62.4401 145.78 62.3101 145.39 62.0801C145.06 61.8901 144.7 61.7601 144.36 61.5801C142.56 60.6301 141.11 59.3001 139.94 57.6401C139.1 56.4501 138.5 55.1401 138.06 53.7701C137.72 52.7101 137.61 51.5901 137.5 50.4801C137.36 49.0001 137.47 47.5401 137.69 46.0801C137.85 45.0001 138.17 43.9801 138.58 42.9801C138.95 42.0701 139.42 41.2101 139.97 40.4101C141.36 38.4001 143.15 36.8701 145.4 35.9201C148.01 34.8101 150.73 34.5501 153.52 35.1001C155.42 35.4701 157.16 36.2401 158.68 37.4501C159.97 38.4801 161.01 39.7501 161.8 41.2101C162.91 43.2701 163.5 45.4701 163.68 47.8001C163.74 48.5701 163.73 49.3401 163.75 50.1101C163.76 50.3501 163.67 50.4601 163.42 50.4401C163.28 50.4301 163.15 50.4401 163.01 50.4401C156.18 50.4401 149.35 50.4401 142.53 50.4401C141.78 50.4401 141.84 50.3801 141.94 51.1101C142.47 54.7101 144.19 57.4801 147.61 58.9901C149.55 59.8501 151.6 59.9401 153.66 59.5701C156 59.1501 158.05 58.1501 159.77 56.4901C159.79 56.4401 159.82 56.4301 159.91 56.3801ZM150.74 47.2701C152.7 47.2701 154.65 47.2701 156.61 47.2701C157.5 47.2701 158.39 47.2701 159.29 47.2701C159.53 47.2701 159.63 47.2001 159.6 46.9401C159.52 46.1901 159.44 45.4401 159.22 44.7101C158.5 42.2801 157.13 40.3701 154.83 39.2101C153.82 38.7001 152.75 38.4401 151.63 38.3401C149.66 38.1701 147.8 38.5001 146.11 39.5701C143.95 40.9401 142.74 42.9801 142.14 45.4201C142.02 45.9201 141.94 46.4301 141.9 46.9401C141.88 47.2001 141.97 47.2801 142.21 47.2601C142.33 47.2501 142.45 47.2601 142.57 47.2601C145.28 47.2701 148.01 47.2701 150.74 47.2701Z" fill="white"/>
<path d="M185.7 59.6099C185.49 59.6499 185.4 59.8199 185.26 59.9499C183.87 61.2999 182.25 62.2299 180.39 62.7899C178.73 63.2899 177.04 63.2799 175.33 63.1299C174.49 63.0599 173.68 62.8699 172.91 62.5599C171.37 61.9299 170.03 61.0399 169.01 59.6899C168.31 58.7699 167.78 57.7699 167.53 56.6399C167.33 55.7399 167.21 54.8199 167.27 53.8999C167.31 53.2399 167.32 52.5599 167.48 51.9099C167.66 51.1699 167.9 50.4299 168.31 49.7699C168.57 49.3599 168.83 48.9399 169.16 48.5699C170.94 46.6299 173.17 45.6099 175.77 45.3799C178.01 45.1899 180.18 45.4899 182.24 46.4099C183.38 46.9199 184.38 47.6299 185.27 48.5099C185.37 48.6099 185.44 48.7299 185.57 48.7799C185.58 48.8499 185.64 48.9099 185.7 48.9099C185.74 48.9099 185.75 48.8399 185.72 48.7899C185.77 47.1099 185.8 45.4299 185.72 43.7499C185.6 41.3199 184.04 39.4499 181.53 38.8199C177.87 37.8999 174.57 38.6599 171.72 41.1799C171.37 41.4899 171.05 41.8099 170.68 42.1699C170.49 41.9499 170.29 41.7499 170.14 41.5299C169.69 40.8699 169.26 40.1999 168.81 39.5499C168.68 39.3599 168.7 39.2499 168.86 39.0899C170.21 37.7199 171.75 36.6499 173.54 35.9199C175.79 34.9999 178.13 34.7399 180.53 34.8599C181.87 34.9299 183.18 35.1599 184.44 35.6299C186.54 36.4099 188.17 37.7299 189.12 39.7999C189.69 41.0399 189.94 42.3699 189.95 43.7299C189.97 47.3999 189.96 51.0699 189.96 54.7399C189.96 57.1099 189.96 59.4699 189.96 61.8399C189.96 61.9599 189.95 62.0799 189.96 62.1999C189.98 62.4199 189.88 62.4999 189.66 62.4999C189.03 62.4899 188.39 62.4999 187.76 62.4999C187.19 62.4999 186.63 62.4899 186.06 62.4999C185.81 62.5099 185.73 62.4099 185.74 62.1699C185.75 61.3999 185.74 60.6299 185.74 59.8499C185.74 59.7699 185.72 59.6799 185.7 59.5999C185.7 59.5299 185.7 59.5699 185.7 59.6099ZM185.76 54.2599C185.76 53.5399 185.75 52.8199 185.77 52.0999C185.78 51.8199 185.69 51.5999 185.52 51.3999C184.91 50.6599 184.19 50.0699 183.35 49.5999C181.94 48.8199 180.42 48.4699 178.82 48.3899C177.64 48.3299 176.49 48.4699 175.39 48.8999C172.23 50.1299 171.06 53.1899 171.89 55.9999C172.47 57.9699 173.87 59.1799 175.78 59.7899C177.89 60.4599 179.98 60.2599 182.03 59.5099C183.39 59.0099 184.56 58.2199 185.5 57.1099C185.69 56.8899 185.78 56.6599 185.77 56.3699C185.75 55.6599 185.76 54.9599 185.76 54.2599Z" fill="white"/>
<path d="M214.44 55.9302C214.59 55.9402 214.67 56.0402 214.76 56.1202C215.54 56.8402 216.32 57.5602 217.1 58.2701C217.26 58.4201 217.31 58.5401 217.15 58.7402C216.49 59.5702 215.72 60.3002 214.89 60.9602C213.77 61.8502 212.48 62.4202 211.14 62.8302C210.39 63.0602 209.57 63.1801 208.77 63.2001C207.5 63.2302 206.24 63.1702 204.97 63.0102C203.12 62.7802 201.47 62.0502 199.93 61.0802C198.42 60.1302 197.23 58.8202 196.24 57.3302C195.27 55.8602 194.6 54.2502 194.27 52.5402C194 51.1202 193.87 49.6601 193.95 48.2001C194.01 47.1201 194.21 46.0601 194.34 44.9901C194.4 44.5101 194.6 44.0302 194.78 43.5702C195.05 42.8902 195.34 42.2002 195.67 41.5502C196.02 40.8602 196.49 40.2302 196.96 39.6102C197.8 38.5302 198.81 37.6302 199.96 36.9002C200.79 36.3702 201.67 35.9402 202.6 35.6202C205.08 34.7702 207.6 34.6002 210.17 35.0702C211.95 35.4002 213.59 36.0902 215.03 37.2102C215.8 37.8102 216.48 38.5102 217.11 39.2602C217.29 39.4802 217.24 39.6001 217.05 39.7701C216.45 40.3201 215.85 40.8902 215.25 41.4402C215 41.6702 214.78 42.0602 214.47 42.0502C214.14 42.0402 214.01 41.5902 213.8 41.3302C213.09 40.4502 212.18 39.8401 211.19 39.3801C208.91 38.3101 206.55 38.3402 204.21 39.1902C202.3 39.8802 200.84 41.1202 199.8 42.8702C198.82 44.5102 198.39 46.2901 198.29 48.1701C198.19 50.0901 198.39 51.9602 199.1 53.7602C199.47 54.7002 199.99 55.5602 200.62 56.3502C201.31 57.2202 202.18 57.8801 203.14 58.4202C204.1 58.9502 205.15 59.2502 206.24 59.3801C207.41 59.5201 208.57 59.5102 209.71 59.2202C210.84 58.9302 211.86 58.4102 212.78 57.6602C213.44 57.1502 213.95 56.5402 214.44 55.9302Z" fill="white"/>
<path d="M228.29 47.9701C228.29 50.5601 228.29 53.1501 228.29 55.7401C228.29 56.3301 228.33 56.9001 228.49 57.4701C228.85 58.8301 229.89 59.5501 231.32 59.4501C232.15 59.3901 232.89 59.0801 233.56 58.6101C233.84 58.4101 233.88 58.4201 234 58.7101C234.32 59.5101 234.64 60.3201 234.96 61.1301C235.09 61.4701 235.06 61.6201 234.77 61.8101C234.02 62.3101 233.26 62.7701 232.37 63.0001C231.2 63.3001 230.03 63.2501 228.85 63.1401C228.12 63.0801 227.44 62.8901 226.79 62.5501C225.92 62.1001 225.28 61.4201 224.82 60.5501C224.52 59.9801 224.29 59.3801 224.21 58.7701C224.13 58.1501 224.08 57.5101 224.08 56.8801C224.09 51.2001 224.09 45.5301 224.08 39.8501C224.08 39.1101 224.17 39.2001 223.42 39.1901C222.29 39.1801 221.16 39.1901 220.02 39.1701C219.6 39.1701 219.6 39.1501 219.6 38.7301C219.6 37.7901 219.6 36.8401 219.6 35.9001C219.6 35.4901 219.61 35.4901 220.04 35.4901C221.21 35.4901 222.37 35.4901 223.54 35.4901C224.12 35.4901 224.08 35.5101 224.08 34.9701C224.08 32.9101 224.08 30.8501 224.08 28.8001C224.08 28.6801 224.09 28.5601 224.08 28.4401C224.05 28.1501 224.19 28.1001 224.44 28.1001C225.57 28.1101 226.7 28.1001 227.84 28.1001C228.29 28.1001 228.29 28.1101 228.29 28.5501C228.29 30.6601 228.29 32.7701 228.29 34.8801C228.29 35.5301 228.2 35.5001 228.89 35.5001C230.36 35.5001 231.84 35.5001 233.31 35.5001C233.79 35.5001 233.8 35.5001 233.81 35.9801C233.82 36.8901 233.82 37.8001 233.81 38.7101C233.81 39.2001 233.8 39.2001 233.33 39.2001C231.84 39.2001 230.35 39.2001 228.85 39.2001C228.23 39.2001 228.29 39.1801 228.29 39.7501C228.29 42.4801 228.29 45.2301 228.29 47.9701Z" fill="white"/>
<path d="M185.74 48.79C185.76 48.84 185.76 48.91 185.72 48.91C185.66 48.91 185.6 48.86 185.59 48.78C185.64 48.79 185.69 48.79 185.74 48.79Z" fill="white"/>
<path d="M110.95 47.7602C110.94 47.6902 110.97 47.6602 111.04 47.6802C111.01 47.7102 110.98 47.7302 110.95 47.7602Z" fill="white"/>
<path d="M185.7 59.61C185.7 59.57 185.7 59.53 185.72 59.6L185.7 59.61Z" fill="white"/>
<path d="M44.8202 10.77C45.5202 10.12 46.1602 9.53004 46.8002 8.94004C48.6402 7.24004 50.6702 5.78004 52.7902 4.45004C54.6302 3.30004 56.5802 2.34004 58.6602 1.75004C60.9702 1.09004 63.3402 0.79004 65.6902 1.67004C67.4002 2.31004 68.6202 3.53004 69.5202 5.07004C70.6302 6.97004 71.2302 9.06004 71.4702 11.24C71.9702 15.74 71.5502 20.17 70.4402 24.55C70.4202 24.62 70.4202 24.7 70.3902 24.77C70.2802 25.12 70.2902 25.35 70.7502 25.47C71.7302 25.74 72.6902 26.07 73.6502 26.41C76.4802 27.4 79.1902 28.66 81.7002 30.3C83.8602 31.71 85.8302 33.35 87.2102 35.58C88.1702 37.12 88.6802 38.79 88.4902 40.62C88.3702 41.79 87.9802 42.87 87.3902 43.87C86.4502 45.45 85.2502 46.79 83.8202 47.96C82.2602 49.24 80.5802 50.33 78.8002 51.28C76.5402 52.49 74.1902 53.43 71.7602 54.22C71.4802 54.31 71.2302 54.48 70.9002 54.49C70.4002 54.5 70.2802 54.7 70.4202 55.2C70.6802 56.16 70.9102 57.14 71.0702 58.12C71.7002 61.82 71.9202 65.54 71.3102 69.26C70.9202 71.65 70.1502 73.92 68.6302 75.87C67.4602 77.38 65.9002 78.35 64.0902 78.84C63.2502 79.07 62.3002 78.97 61.4002 78.8801C59.8902 78.73 58.4302 78.44 57.0002 77.8501C55.4002 77.19 53.8702 76.4501 52.4202 75.5201C50.0202 73.98 47.7602 72.28 45.7402 70.25C45.6302 70.14 45.5002 70.0601 45.3902 69.9601C45.1002 69.6701 44.8402 69.67 44.5402 69.98C43.0202 71.51 41.3402 72.84 39.6302 74.14C38.7902 74.78 37.8902 75.34 36.9702 75.87C35.7402 76.59 34.4802 77.25 33.1502 77.76C31.7602 78.29 30.3002 78.5201 28.8402 78.7701C27.3702 79.01 25.9102 78.94 24.4602 78.68C23.3302 78.48 22.3502 77.8801 21.5202 77.08C20.6802 76.28 20.0402 75.3501 19.5202 74.3C19.0602 73.37 18.7302 72.41 18.4902 71.42C18.2102 70.25 18.0802 69.05 18.0102 67.86C17.8102 64.79 18.0602 61.74 18.5702 58.71C18.7602 57.6 18.9402 56.5 19.2502 55.42C19.3902 54.94 19.2802 54.73 18.7802 54.61C17.9602 54.41 17.1602 54.12 16.3602 53.87C13.7902 53.05 11.4002 51.87 9.10018 50.47C7.22018 49.33 5.43018 48.09 3.92018 46.48C2.65018 45.14 1.66019 43.63 1.16019 41.82C1.05019 41.44 1.07018 41.07 1.03018 40.7C0.710184 38.19 1.64019 36.09 3.16019 34.17C4.64019 32.31 6.53018 30.97 8.52018 29.75C10.8802 28.29 13.4302 27.24 16.0202 26.28C16.9402 25.94 17.9002 25.71 18.8402 25.44C19.1702 25.35 19.2402 25.27 19.1502 24.87C18.3802 21.18 17.7502 17.47 17.8602 13.67C17.9002 12.44 18.0502 11.21 18.2302 9.99004C18.3902 8.90004 18.5702 7.82004 18.9702 6.78004C19.6702 4.93004 20.6402 3.26004 22.3502 2.15004C23.4902 1.42004 24.7702 1.10004 26.1102 1.01004C28.1702 0.87004 30.1402 1.34004 32.0502 2.05004C35.2002 3.22004 37.9902 5.01004 40.6502 7.03004C42.1402 8.18004 43.5102 9.40004 44.8202 10.77ZM44.0302 54.16C46.6802 54.09 49.3302 54.08 51.9802 53.9C52.4302 53.87 52.7202 53.74 52.9802 53.35C55.6502 49.19 58.1902 44.95 60.4102 40.53C60.6402 40.07 60.6502 39.72 60.4202 39.25C59.2302 36.88 57.8802 34.6 56.5502 32.3C55.4402 30.38 54.2902 28.49 53.0602 26.65C52.8402 26.32 52.6202 26.06 52.1502 26.06C51.4802 26.07 50.8202 25.97 50.1502 25.95C45.8802 25.82 41.6002 25.84 37.3302 26.09C36.8802 26.12 36.5802 26.27 36.3202 26.66C33.6102 30.71 31.1702 34.91 28.9702 39.26C28.7302 39.73 28.7802 40.11 29.0002 40.55C29.8702 42.27 30.7702 43.98 31.7202 45.66C33.2202 48.3 34.8002 50.9 36.4902 53.42C36.7602 53.82 37.0302 54.03 37.5402 54.04C39.7102 54.1 41.8702 54.24 44.0302 54.16ZM20.1302 51.14C20.5602 51.24 20.5802 50.91 20.6602 50.65C21.7302 47.21 23.0002 43.84 24.4902 40.55C24.6302 40.24 24.6602 39.98 24.5002 39.68C24.2802 39.25 24.0902 38.79 23.8902 38.35C22.6402 35.5 21.5202 32.6 20.5802 29.62C20.3602 28.92 20.3502 28.92 19.6202 29.14C19.0802 29.3 18.5402 29.47 18.0002 29.65C15.0402 30.64 12.1902 31.88 9.57019 33.61C7.97019 34.66 6.48019 35.84 5.41019 37.47C4.41019 38.99 4.34019 40.53 5.30019 42.11C6.13019 43.47 7.19018 44.61 8.45018 45.58C11.4602 47.9 14.8402 49.51 18.4502 50.66C18.9902 50.82 19.5602 50.97 20.1302 51.14ZM21.5702 14.77C21.6002 17.06 21.8002 19.2 22.2302 21.33C22.4102 22.21 22.6302 23.08 22.8002 23.97C22.8702 24.34 23.0602 24.44 23.4002 24.33C23.4702 24.31 23.5502 24.28 23.6202 24.27C27.1902 23.48 30.7802 22.86 34.4202 22.52C34.8302 22.48 35.0702 22.3 35.2902 21.99C37.3002 19.22 39.4802 16.58 41.8002 14.06C42.2402 13.59 42.2302 13.58 41.8102 13.15C38.7102 10.03 35.1502 7.58004 31.0902 5.87004C29.6102 5.25004 28.0702 4.85004 26.4402 4.91004C25.0502 4.96004 23.9802 5.57004 23.2502 6.76004C22.9302 7.29004 22.6802 7.85004 22.4602 8.43004C21.6802 10.52 21.6502 12.71 21.5702 14.77ZM21.5502 65.4C21.5302 66.51 21.5802 67.61 21.7302 68.71C21.9402 70.22 22.2802 71.69 23.0702 73.0201C23.8802 74.37 25.0602 75.0401 26.6302 75.0701C28.0402 75.1001 29.3902 74.8101 30.7102 74.3501C32.6202 73.69 34.3802 72.73 36.0602 71.6301C38.1302 70.2701 40.0302 68.69 41.8402 67.01C42.1202 66.75 42.2002 66.55 41.8802 66.27C41.7002 66.12 41.5602 65.94 41.4002 65.76C39.1602 63.31 37.0502 60.74 35.1002 58.06C34.8702 57.74 34.6602 57.48 34.2002 57.44C30.6402 57.14 27.1102 56.56 23.6202 55.78C22.9202 55.62 22.9202 55.63 22.7302 56.32C21.9402 59.3 21.5702 62.32 21.5502 65.4ZM67.7902 14.86C67.8202 13.35 67.7302 11.79 67.4602 10.24C67.2102 8.84004 66.8202 7.48004 65.9602 6.31004C65.2302 5.31004 64.2502 4.79004 63.0102 4.71004C61.4302 4.62004 59.9302 4.94004 58.5002 5.56004C54.4302 7.31004 50.8602 9.79004 47.7602 12.95C47.3802 13.34 47.3702 13.35 47.7302 13.75C50.1502 16.42 52.4302 19.21 54.5402 22.14C54.7202 22.39 54.9202 22.5 55.2402 22.53C58.8002 22.88 62.3402 23.37 65.8302 24.16C66.4502 24.3 66.4702 24.29 66.6302 23.69C67.3802 20.82 67.8502 17.91 67.7902 14.86ZM67.9302 64.98C67.9802 64.08 67.8702 63 67.7602 61.92C67.5602 59.92 67.2202 57.95 66.7002 56.01C66.6102 55.66 66.4802 55.57 66.1102 55.65C64.6802 55.96 63.2402 56.24 61.8002 56.5C59.8302 56.85 57.8402 57.14 55.8402 57.32C55.4602 57.36 55.1302 57.44 54.8702 57.82C52.8002 60.8 50.5102 63.62 48.0802 66.32C47.6402 66.81 47.6402 66.82 48.1202 67.28C50.3602 69.38 52.7702 71.26 55.4302 72.81C57.2602 73.87 59.1502 74.81 61.2702 75.14C63.8802 75.54 65.4502 74.78 66.5702 72.47C66.7902 72.01 66.9802 71.53 67.1302 71.04C67.7502 69.12 67.9502 67.16 67.9302 64.98ZM84.7502 39.88C84.6902 39.07 84.4302 38.35 84.0302 37.68C83.4502 36.72 82.7102 35.9 81.8402 35.21C78.2602 32.33 74.2002 30.4 69.7702 29.2C69.2602 29.06 69.2202 29.08 69.0602 29.59C68.0002 33.01 66.7302 36.35 65.2602 39.61C65.1202 39.93 65.1502 40.18 65.2902 40.48C66.7602 43.69 68.0102 46.98 69.0702 50.34C69.2702 50.99 69.2802 50.99 69.9002 50.79C71.3702 50.32 72.8302 49.82 74.2502 49.22C76.7502 48.16 79.1402 46.92 81.2502 45.19C82.4702 44.19 83.5802 43.08 84.2802 41.63C84.5602 41.08 84.7202 40.48 84.7502 39.88ZM26.8102 35.72C28.4902 32.59 30.2302 29.68 32.0102 26.72C31.3602 26.59 30.8402 26.77 30.3102 26.84C28.3502 27.11 26.4002 27.44 24.4802 27.88C23.9702 28 23.9502 28.02 24.1002 28.48C24.8702 30.89 25.7402 33.24 26.8102 35.72ZM31.9202 53.39C30.0802 50.43 28.4002 47.43 26.7702 44.38C26.7002 44.47 26.6302 44.52 26.6102 44.58C25.6502 46.88 24.8202 49.23 24.0702 51.61C23.9302 52.06 23.9502 52.08 24.4802 52.2C26.3802 52.64 28.3002 52.99 30.2402 53.26C30.7602 53.34 31.2802 53.5 31.9202 53.39ZM49.8902 57.75C46.4102 57.93 43.1202 57.85 39.7102 57.86C41.3702 60.03 43.0102 62.03 44.8302 63.95C46.6102 62 48.2502 60 49.8902 57.75ZM62.8802 44.65C61.2102 47.58 59.6102 50.39 57.9702 53.25C58.6102 53.32 59.1102 53.17 59.6202 53.1C61.4302 52.86 63.2202 52.51 65.0002 52.13C65.5002 52.02 65.5502 51.96 65.4102 51.52C64.6802 49.25 63.8802 47 62.8802 44.65ZM44.7102 16.11C42.9502 18.03 41.3002 19.93 39.6902 22.08C43.1202 22.03 46.3902 22.01 49.8002 22.13C48.1602 19.99 46.5202 18.05 44.7102 16.11ZM57.6902 26.71C59.4202 29.57 61.1002 32.36 62.7302 35.24C62.8302 35.08 62.8902 35 62.9302 34.91C63.7502 32.86 64.5402 30.79 65.1802 28.67C65.3602 28.07 65.3602 28.05 64.7402 27.93C63.2002 27.62 61.6702 27.3 60.1202 27.03C59.3602 26.89 58.5802 26.71 57.6902 26.71Z" fill="white"/>
<path d="M52.5301 39.8801C52.5401 44.2101 49.0601 47.6901 44.7401 47.7001C40.3801 47.7101 36.8701 44.2201 36.8701 39.8701C36.8701 35.5601 40.3501 32.0601 44.6701 32.0601C49.0601 32.0501 52.5301 35.5101 52.5301 39.8801Z" fill="white"/>
</svg>
