<?xml version="1.0" encoding="utf-8"?>
<!-- Generator: Adobe Illustrator 24.1.2, SVG Export Plug-In . SVG Version: 6.00 Build 0)  -->
<svg version="1.1" id="Capa_1" xmlns="http://www.w3.org/2000/svg" xmlns:xlink="http://www.w3.org/1999/xlink" x="0px" y="0px"
	 viewBox="0 0 468 198" style="enable-background:new 0 0 468 198;" xml:space="preserve">
<style type="text/css">
	.st0{fill:#BABABA;}
	.st1{fill:#FFFFFF;}
	.st2{fill:#EE0F14;}
</style>
<g>
	<g>
		<path class="st0" d="M176.34,85.64c0.04-0.07,0.1-0.11,0.18-0.11c0.42,0.13,0.83,0.29,1.26,0.39c8.36,1.96,16.73,3.92,25.1,5.84
			c0.52,0.12,1.22,0.69,1.6,0.06c0.27-0.44-0.39-0.93-0.68-1.37c-4.76-7.11-9.51-14.22-14.32-21.29c-0.81-1.19-0.57-1.6,0.74-1.74
			c0.24-0.03,0.48-0.09,0.72-0.15c3.39-0.8,6.77-1.6,10.16-2.4c4.34,1.6,8.14,3.83,9.34,8.73c0.77,3.13,0.35,6.23-0.68,9.26
			c-0.69,2.03-1.52,3.99-2.43,5.92c-0.11,0.1-0.24,0.18-0.31,0.31c-3.48,6.14-8.26,11.19-13.42,15.9c-0.47,0.43-0.62,0.95-0.72,1.55
			c-1.24,7.88-2.55,15.75-3.74,23.64c-0.37,2.46-1.1,4.88-0.96,7.41c0,0,0.02-0.04,0.02-0.04c-0.33,0.19-0.32,0.51-0.3,0.83
			c-0.06,0.16-0.08,0.37-0.34,0.24c-4.14-6.69-8.3-13.37-12.42-20.07c-0.48-0.77-0.96-0.76-1.71-0.41
			c-3.7,1.73-7.46,3.29-11.35,4.57c-2.89,0.95-5.84,1.68-8.97,2.51c5.67,2.3,11.12,4.54,16.59,6.73c4.87,1.95,9.75,3.86,14.63,5.79
			c-1.8,0.31-3.45-0.47-5.13-0.85c-9.15-2.08-18.27-4.27-27.4-6.43c-6.91-1.63-13.81-3.34-20.75-4.86
			c-2.97-0.65-5.15-1.99-6.54-4.79c-1.71-3.43-3.4-6.83-4.64-10.47c-0.67-1.96-0.22-3.62,0.46-5.35c2.42-2.29,4.49-4.95,7.23-7.24
			c0.9,9.24,1.77,18.21,2.65,27.17c0.97-0.85,1.54-1.7,2.12-2.55c5.31-7.8,10.62-15.59,15.93-23.39c0.1-0.03,0.19-0.05,0.29-0.08
			c0.17,0.17,0.33,0.37,0.52,0.51c6.99,4.99,13.99,9.97,20.99,14.95c1.41,1.01,2.83,2,4.46,3.16c0.24-4.5,0.4-8.66,0.7-12.8
			C175.67,98.36,176.09,92.01,176.34,85.64z"/>
		<path class="st1" d="M139.88,97.09c-2.03-0.01-4.02-0.22-5.97-0.83c-4.94-1.53-6.88-5.35-5.14-10.24
			c1.53-4.29,4.44-7.62,7.76-10.6c7.27-6.56,15.7-11.12,25.03-13.98c5.04-1.55,10.2-2.62,15.55-1.83c1.06,0.16,2.14,0.37,3.15,0.72
			c4.64,1.61,6.4,5.38,4.72,10.11c-1.53,4.3-4.43,7.63-7.76,10.6c-8.78,7.82-18.97,12.89-30.45,15.35
			C144.5,96.86,142.2,97.11,139.88,97.09z"/>
		<path class="st1" d="M176.34,85.64c-0.24,6.37-0.67,12.72-1.12,19.08c-0.3,4.15-0.46,8.31-0.7,12.8
			c-1.63-1.15-3.05-2.15-4.46-3.16c-7-4.98-13.99-9.96-20.99-14.95c-0.2-0.14-0.35-0.34-0.52-0.51c4.8-2.31,9.6-4.64,14.4-6.93
			C167.4,89.85,171.87,87.75,176.34,85.64z"/>
		<path class="st1" d="M201.1,64.88c-3.39,0.8-6.77,1.6-10.16,2.4c-0.24,0.06-0.48,0.13-0.72,0.15c-1.31,0.14-1.55,0.55-0.74,1.74
			c4.82,7.07,9.56,14.18,14.32,21.29c0.29,0.43,0.95,0.92,0.68,1.37c-0.38,0.62-1.08,0.06-1.6-0.06c-8.37-1.93-16.74-3.88-25.1-5.84
			c-0.43-0.1-0.84-0.26-1.26-0.39c3.72-5.49,7.41-11,11.17-16.46c0.66-0.96,0.81-1.66,0.1-2.7c-1.52-2.22-2.87-4.54-4.43-7.05
			C189.53,60.89,195.46,62.41,201.1,64.88z"/>
		<path class="st1" d="M148.25,98.99c-5.31,7.8-10.62,15.59-15.93,23.39c-0.58,0.85-1.15,1.7-2.12,2.55
			c-0.87-8.96-1.75-17.93-2.65-27.17c-2.74,2.29-4.81,4.95-7.23,7.24c1.63-6.04,3.53-11.97,6.65-17.43
			c0.17,0.01,0.35,0.03,0.52,0.04c0,2.87,0.04,5.74-0.02,8.62c-0.02,1.06,0.32,1.52,1.38,1.58c5.1,0.28,10.19,0.59,15.29,0.89
			C145.51,98.77,146.86,99.12,148.25,98.99z"/>
		<path class="st1" d="M184.32,137.75c-4.88-1.93-9.76-3.84-14.63-5.79c-5.47-2.19-10.91-4.43-16.59-6.73
			c3.13-0.83,6.08-1.57,8.97-2.51c3.89-1.27,7.65-2.84,11.35-4.57c0.74-0.35,1.23-0.36,1.71,0.41c4.13,6.7,8.28,13.39,12.42,20.07
			C186.32,138.88,185.51,137.63,184.32,137.75z"/>
		<path class="st1" d="M188.17,137.6c-0.14-2.53,0.58-4.95,0.96-7.41c1.19-7.89,2.5-15.76,3.74-23.64c0.1-0.6,0.24-1.12,0.72-1.55
			c5.17-4.72,9.95-9.76,13.42-15.9c0.07-0.12,0.21-0.2,0.31-0.31c-0.76,2.99-2.11,5.76-3.23,8.62
			c-5.11,13.07-10.25,26.12-15.39,39.17C188.56,136.93,188.35,137.26,188.17,137.6z"/>
	</g>
	<g>
		<path class="st1" d="M257.96,117.82c-1.95,0.57-3.15,0.23-4.11-1.55c-2.18-4.02-4.62-7.89-6.87-11.87
			c-0.65-1.15-1.4-1.67-2.75-1.62c-2.56,0.1-5.12,0.12-7.68,0c-1.77-0.09-2.46,0.4-2.39,2.3c0.15,3.72,0.05,7.45,0.04,11.17
			c0,0.9,0.24,1.84-1.29,1.87c-1.59,0.03-1.49-0.88-1.49-1.94c0.01-11.09,0.03-22.19-0.02-33.28c-0.01-1.49,0.36-2.05,1.93-2.01
			c4.11,0.1,8.23-0.05,12.33,0.06c5.76,0.15,10.02,3.53,11.19,8.7c1.13,4.99-1.33,9.74-6.56,12.26c-1.55,0.74-0.92,1.37-0.4,2.25
			C252.57,108.67,255.24,113.2,257.96,117.82z M234.21,91.73c0,2.32-0.01,4.65,0.01,6.97c0.01,0.66-0.19,1.57,0.88,1.54
			c4.48-0.14,9.02,0.64,13.43-0.45c3.86-0.96,6.14-4.82,5.68-9c-0.43-3.91-3.63-7.03-7.59-7.17c-3.64-0.13-7.29,0-10.93-0.08
			c-1.32-0.03-1.53,0.57-1.5,1.68C234.25,87.39,234.21,89.56,234.21,91.73z"/>
		<path class="st1" d="M295.65,112.35c0,1.59,0.01,2.74,0,3.89c-0.01,0.89,0.27,1.88-1.28,1.86c-1.52-0.01-1.31-0.97-1.31-1.88
			c-0.01-9.77,0-19.54,0-29.31c0-1.24-0.05-2.48,0.02-3.72c0.05-0.95-0.54-2.32,1.36-2.28c1.76,0.04,1.19,1.32,1.2,2.18
			c0.05,4.26,0.02,8.53,0.03,12.79c0,0.35-0.16,0.78,0.28,1.03c7.71-7.18,15.48-7.77,21.18-1.59c5.12,5.55,4.91,14.46-0.47,19.53
			C310.6,120.55,302.77,119.74,295.65,112.35z M306.87,116.16c6.32,0.04,11.39-4.95,11.44-11.28c0.05-6.21-5.15-11.44-11.36-11.42
			c-6.18,0.02-11.21,5.02-11.29,11.22C295.58,111.01,300.57,116.12,306.87,116.16z"/>
		<path class="st1" d="M348.48,91.82c-1.48,3.75-2.9,7.5-4.44,11.21c-2.76,6.65-4.94,13.54-8.24,19.96
			c-1.54,2.98-3.92,4.98-7.26,5.64c-0.64,0.13-1.63,0.63-1.84-0.64c-0.18-1.08,0.14-1.56,1.4-1.8c3.05-0.58,6.42-4.3,6.89-7.2
			c0.14-0.85-0.35-1.48-0.65-2.17c-3.37-7.49-6.76-14.96-10.14-22.45c-0.38-0.84-0.71-1.69-1.08-2.58c1.79-0.61,2.72-0.13,3.48,1.58
			c3.14,7.16,6.44,14.24,9.69,21.38c0.93-0.48,0.95-1.34,1.22-2.02c2.53-6.41,5.09-12.81,7.51-19.27
			C345.66,91.73,346.55,91.09,348.48,91.82z"/>
		<path class="st1" d="M282.16,113.84c-2.83,3.63-6.36,5.04-10.71,4.72c-4.82-0.36-8.59-3.68-8.86-8.53
			c-0.32-5.72-0.16-11.46-0.24-17.19c-0.01-1.02,0.41-1.31,1.39-1.32c1.14-0.01,1.23,0.61,1.23,1.47
			c-0.01,4.96-0.04,9.92,0.02,14.87c0.04,3.09,0.85,5.9,3.88,7.38c3.08,1.5,6.21,1.29,9.09-0.5c2.88-1.78,4.03-4.66,4.12-7.9
			c0.13-4.49,0.07-8.98,0.09-13.48c0-0.91-0.22-1.87,1.3-1.87c1.47,0,1.36,0.89,1.35,1.84c0,7.67-0.01,15.34,0.01,23.01
			c0,1.05-0.08,1.77-1.46,1.74c-1.37-0.03-1.21-0.87-1.21-1.72C282.16,115.54,282.16,114.69,282.16,113.84z"/>
	</g>
	<path class="st2" d="M195.77,128.54c-0.02-0.32-0.03-0.64,0.3-0.83C196.04,128.01,196.06,128.34,195.77,128.54z"/>
</g>
</svg>
