<?xml version="1.0" encoding="utf-8"?>
<!-- Generator: Adobe Illustrator 24.1.2, SVG Export Plug-In . SVG Version: 6.00 Build 0)  -->
<svg version="1.1" id="Capa_1" xmlns="http://www.w3.org/2000/svg" xmlns:xlink="http://www.w3.org/1999/xlink" x="0px" y="0px"
	 viewBox="0 0 468 198" style="enable-background:new 0 0 468 198;" xml:space="preserve">
<style type="text/css">
	.st0{fill:#FFFFFF;}
</style>
<g>
	<g>
		<path class="st0" d="M180.78,100.83c-3.25-3.5-6.28-6.83-8.76-10.62c-3.23-4.94-3.09-7.7,0.68-12.22c3-3.6,6.67-6.48,10.26-9.46
			c1.32-1.09,2.65-2.16,3.97-3.25c5.74-4.74,8.71-10.62,7.49-18.34c0.95,0.27,1.05,1.09,1.23,1.73c1.85,6.54,0.84,12.51-3.96,17.51
			c-3.32,3.46-6.96,6.61-10.26,10.08c-7.94,8.35-7.84,10.73-2.52,20.37c0.62,1.13,1.3,2.23,1.92,3.37
			C180.92,100.13,180.82,100.38,180.78,100.83z"/>
		<path class="st0" d="M188.09,106.32c0.54-0.87,1.11-1.72,1.62-2.61c1.07-1.89,1.06-3.81-0.09-5.64c-1.02-1.62-2.14-3.17-3.22-4.75
			c-3.85-5.62-3.36-11.13,1.51-15.92c4.4-4.32,9.91-6.7,15.61-8.72c0.75-0.27,1.52-0.51,2.32-0.78c0.05,0.86-0.66,0.86-1.05,1.11
			c-4.16,2.64-8.28,5.35-11.72,8.94c-4.03,4.2-4.24,6.58-1.11,11.4c1.08,1.66,2.15,3.32,2.94,5.16c1.11,2.6,0.73,4.96-0.95,7.13
			c-1.55,2.02-3.36,3.77-5.66,4.94C188.22,106.5,188.16,106.41,188.09,106.32z"/>
		<path class="st0" d="M189.51,142.71c1.93,0.13,3.84-0.03,5.75-0.34c0.07,0.17,0.14,0.35,0.22,0.52c0.06-0.18,0.13-0.36,0.19-0.54
			c1.07,0,2.15-0.01,3.22-0.01c0.16-0.11,0.31-0.22,0.47-0.33c2.85-0.72,5.91,0.18,8.7-1.12c0.46-0.22,1.06-0.12,1.6-0.18
			c0.73,0.35,0.97,0.83,0.43,1.54c-2.67,1.33-5.63,1.36-8.47,1.8c-3.74,0.57-7.55,0.58-11.29,1.25c-0.53,0.09-1.09-0.01-1.63-0.02
			c-2.15-0.94-4.38-0.33-6.58-0.32c-0.14,0-0.29,0.4-0.43,0.61c-3.45,0.16-6.89,0.24-10.34-0.03c-2.42-1.35-4.9-0.82-7.39-0.28
			c-5.42-0.05-10.78-0.57-16-2.06c-1.2-0.34-2.89-0.61-2.89-2.16c0-1.34,1.13-2.43,2.37-3.09c2.44-1.3,5.12-1.88,7.8-2.43
			c0.69-0.14,1.14,0.35,2.32,0.33c-2.11,0.55-3.62,0.97-4.98,1.79c-0.54,0.33-1.05,0.72-1.03,1.42c0.02,0.74,0.62,1.06,1.21,1.23
			c3.12,0.93,6.27,1.73,9.53,1.99c0.12,0.29,0.27,0.38,0.44,0.04c1.23,0.06,2.4,0.69,3.67,0.39c0.27,0.46,0.56,0.49,0.86,0.02
			c0.69,0.04,1.37,0.08,2.06,0.12c0.12,0.74,0.69,0.74,1.25,0.74c4.52,0,9.04,0,13.55,0c0.57,0,1.12-0.02,1.23-0.76
			c1.23-0.04,2.47-0.08,3.7-0.11C189.23,143.04,189.37,143.02,189.51,142.71z"/>
		<path class="st0" d="M182.11,130.77c3.49-0.04,6.98-0.1,10.37-1.1c1.17-0.35,2.28-0.1,3.33,0.47c1.26,0.68,2.51,1.36,4.01,2.18
			c-3.66,1.37-7.25,2.21-10.91,2.79c-6.64,1.04-13.23,0.69-19.72-1.03c-1.15-0.31-2.31-0.65-3.19-1.67
			c-1.61-1.87-1.44-3.08,0.82-4.13c0.65-0.3,1.4-0.42,2.07-0.61c-0.55,2.82,1.97,2.21,3.35,2.89c1.59,1.31,3.26,0.82,4.94,0.25
			c1.36,0,2.73,0,4.09,0C181.55,131.26,181.83,131.24,182.11,130.77z"/>
		<path class="st0" d="M181.66,120.26c1.1-0.08,2.22-0.31,3.31-0.2c2.68,0.29,5.22-0.43,7.82-0.78c0.13,0.28,0.27,0.32,0.42,0.02
			c0.75,0.37,1.48-0.87,2.23-0.03c0.22-0.14,0.44-0.29,0.67-0.43c0.8-0.62,1.4-0.12,2.01,0.34c0.06,0.59,0.27,1,0.98,0.79
			c0,0,0.04,0,0.04,0c0.13,1.09-1.1,1.27-1.39,2.08c-7.32,2.2-14.82,2.44-22.36,1.89c-2.57-0.19-5.2-0.1-7.69-0.97
			c-1.42-1.29-3.23-1.36-4.98-1.59c0,0,0.02,0.02,0.02,0.02c-0.54-1.14-0.04-2.28-0.01-3.42c0.13-0.11,0.25-0.23,0.38-0.34
			c0.4,0,0.74-0.08,0.85-0.54c0.68-0.52,1.43-0.89,2.34-1.06c-0.6,2.58-0.18,3.19,2.5,3.72c1,0.2,2.02,0.34,3.02,0.51
			C173.08,121.27,180.39,121.27,181.66,120.26z"/>
		<path class="st0" d="M182.63,110.46c0.45-0.41,0.98-0.3,1.5-0.23c0.44,0.57,0.87,0.54,1.27-0.05c2.33,0.09,4.6-0.75,6.94-0.4
			c0.09,0.07,0.19,0.13,0.28,0.2c0.05-0.17,0.1-0.34,0.16-0.5c2.47-0.29,4.94-0.59,7.41-0.88c0.13,0.28,0.27,0.31,0.41,0.01
			c0.41,0.01,0.83,0.03,1.24,0.04c0.06,0.25,0.12,0.49,0.19,0.74c-0.15,0.14-0.29,0.28-0.44,0.42c-0.74,0.23-1.82-0.5-2.21,0.76
			c-2.26,0.89-4.61,0.4-6.93,0.46c-0.17,0.17-0.34,0.34-0.51,0.51c-0.41-0.03-0.82-0.07-1.23-0.1c-0.12-0.12-0.23-0.24-0.35-0.36
			c-0.13-0.14-0.27-0.27-0.4-0.41c-0.16,0.12-0.32,0.25-0.47,0.37c-0.55,0.43-0.85,1.11-1.77,1.16c-3.8,0.18-7.57,0.75-11.39,0.54
			c-1.24-0.72-2.49-0.71-3.73-0.01c-2.97-0.13-5.91-0.02-8.89-0.69c-2.24-0.51-4.74,0.01-7.06-0.65c-1.2-0.34-3.06-0.27-3.24-1.67
			c-0.19-1.45,1.65-1.76,2.75-2.32c1.26-0.65,2.57-1.27,4.04-1.39c0.59,0.82,1.68-0.22,2.27,0.61c-0.66,0.75-2.17,1.14-1.1,2.62
			c0.22,0.4,0.56,0.57,1.01,0.56c0.12-0.01,0.24,0,0.35,0.02c0.39,0.53,0.94,0.37,1.46,0.37c0.6-0.01,1.2-0.02,1.8-0.03
			c0.4,0.59,0.83,0.62,1.27,0.04c0.69,0.03,1.37,0.07,2.06,0.1c0.16,0.87,0.85,0.74,1.45,0.74c3.41,0.01,6.82,0,10.23,0
			C181.63,111.08,182.26,111.1,182.63,110.46z"/>
		<path class="st0" d="M211.69,119.6c1.58-1.61,3.36-3.01,4.65-4.91c1.64-2.42,2.44-4.97,0.95-7.71c-1.41-2.59-3.96-2.87-6.58-2.87
			c-0.51,0-1.02,0-1.88,0c4.42-2.21,9.18-1.38,11.88,1.85c2.25,2.68,2.19,6.09-0.3,9.23c-2.08,2.63-4.73,4.53-7.87,5.74
			C212.24,120.5,211.64,120.26,211.69,119.6z"/>
		<path class="st0" d="M217.6,145.71c-4.04,2.54-8.66,3.18-13.23,3.94c-2.55,0.42-5.22,0.23-7.7,0.65
			c-5.91,0.99-11.8,0.75-17.72,0.69c-1.83-0.02-3.69,0.01-5.49-0.45c0.3-1.24,1.31-0.75,2.03-0.76c5.27-0.04,10.54-0.01,15.81-0.04
			c0.67,0,1.58,0.4,1.9-0.67c5.88-0.56,11.78-1.02,17.51-2.58c1.45-0.39,2.89-0.81,4.33-1.22c0.26,0.33,0.35,0.08,0.44-0.14
			c0,0,0.14,0.07,0.14,0.07C216.32,145.17,216.98,145.36,217.6,145.71z"/>
		<path class="st0" d="M193.19,149.07c-0.33,1.08-1.23,0.67-1.9,0.67c-5.27,0.03-10.54,0-15.81,0.04c-0.72,0.01-1.73-0.48-2.03,0.76
			c-3.7-0.13-7.3-0.88-10.93-1.97c0.59-0.06,1.19-0.22,1.77-0.17C173.91,149.21,183.54,149.37,193.19,149.07z"/>
		<path class="st0" d="M210.09,142.24c0.55-0.7,0.3-1.19-0.43-1.54c1.68-0.53,3.37-1.03,5.03-1.61c1.12-0.4,1.86-1.18,1.89-2.69
			c1.22,1.03,1.08,1.88,0.07,2.71C214.73,140.69,212.48,141.62,210.09,142.24z"/>
		<path class="st0" d="M185.37,142.83c-0.11,0.74-0.66,0.76-1.23,0.76c-4.52,0-9.04,0-13.55,0c-0.56,0-1.13,0-1.25-0.74
			C174.68,143.18,180.02,142.78,185.37,142.83z"/>
		<path class="st0" d="M182.63,110.46c-0.38,0.64-1,0.61-1.62,0.61c-3.41,0-6.82,0-10.23,0c-0.6,0-1.29,0.14-1.45-0.74
			C173.77,110.38,178.2,110.42,182.63,110.46z"/>
		<path class="st0" d="M217.6,145.71c-0.62-0.35-1.28-0.54-1.99-0.51c1.98-1.11,3.96-2.22,5.93-3.33c0.11,0.09,0.23,0.18,0.34,0.27
			C220.9,143.87,219.36,144.93,217.6,145.71z"/>
		<path class="st0" d="M162.48,106.65c-0.59-0.83-1.68,0.21-2.27-0.61c2.43-0.94,4.87-1.81,7.87-1.48
			C166.01,105.33,164.24,105.99,162.48,106.65z"/>
		<path class="st0" d="M181.66,120.26c-1.27,1.01-8.58,1.01-9.85,0C175.09,120.27,178.38,120.27,181.66,120.26z"/>
		<path class="st0" d="M211.69,119.6c-0.05,0.66,0.55,0.9,0.85,1.33c-1.49,0.78-2.99,1.52-4.82,1.41
			C209.04,121.43,210.37,120.52,211.69,119.6z"/>
		<path class="st0" d="M181.68,145.56c0.14-0.21,0.29-0.61,0.43-0.61c2.2,0,4.43-0.61,6.58,0.32
			C186.36,145.5,184.03,145.7,181.68,145.56z"/>
		<path class="st0" d="M197.74,122.06c0.29-0.81,1.52-0.99,1.39-2.08c0.67,0.29,1.34,0.58,2.49,1.09
			C200.02,121.48,198.88,121.77,197.74,122.06z"/>
		<path class="st0" d="M162.7,121.38c1.76,0.23,3.56,0.31,4.98,1.59C165.91,122.81,164.17,122.5,162.7,121.38z"/>
		<path class="st0" d="M163.96,145.26c2.49-0.55,4.97-1.07,7.39,0.28C168.88,145.44,166.42,145.35,163.96,145.26z"/>
		<path class="st0" d="M177.16,130.8c-1.68,0.57-3.36,1.06-4.94-0.25C173.87,130.63,175.51,130.71,177.16,130.8z"/>
		<path class="st0" d="M162.71,117.98c-0.03,1.14-0.53,2.28,0.01,3.42C160.99,120.26,161.58,119.12,162.71,117.98z"/>
		<path class="st0" d="M199.39,110.57c0.39-1.27,1.46-0.53,2.21-0.76C201.1,110.77,200.2,110.53,199.39,110.57z"/>
		<path class="st0" d="M172.61,112.75c1.25-0.7,2.49-0.71,3.73,0.01C175.09,112.75,173.85,112.75,172.61,112.75z"/>
		<path class="st0" d="M199.09,119.98c-0.71,0.21-0.92-0.2-0.98-0.79C198.52,119.36,198.91,119.54,199.09,119.98z"/>
		<path class="st0" d="M202.04,109.39c-0.06-0.25-0.12-0.49-0.19-0.74c0.37-0.02,0.95-0.27,1.05,0.1
			C203.02,109.19,202.54,109.45,202.04,109.39z"/>
		<path class="st0" d="M164.2,110.22c-0.52,0-1.08,0.16-1.46-0.37C163.29,109.71,163.86,109.54,164.2,110.22z"/>
		<path class="st0" d="M167.27,110.23c-0.45,0.58-0.87,0.55-1.27-0.04C166.42,110.2,166.85,110.22,167.27,110.23z"/>
		<path class="st0" d="M185.41,110.19c-0.4,0.59-0.83,0.62-1.27,0.05C184.56,110.22,184.98,110.2,185.41,110.19z"/>
		<path class="st0" d="M188.29,106.58c-0.15,0.4-0.4,0.47-0.75,0.23c0.18-0.16,0.37-0.32,0.55-0.49
			C188.16,106.41,188.22,106.5,188.29,106.58z"/>
		<path class="st0" d="M162.38,109.82c-0.45,0.01-0.79-0.15-1.01-0.56C161.83,109.24,162.19,109.38,162.38,109.82z"/>
		<path class="st0" d="M192.78,109.48c-0.05,0.17-0.1,0.34-0.16,0.5c-0.09-0.07-0.19-0.13-0.28-0.2
			C192.42,109.57,192.53,109.42,192.78,109.48z"/>
		<path class="st0" d="M182.11,130.77c-0.27,0.46-0.56,0.49-0.86,0.02C181.53,130.79,181.82,130.78,182.11,130.77z"/>
		<path class="st0" d="M191.95,111.54c0.17-0.17,0.34-0.34,0.51-0.51c0.06,0.14,0.11,0.27,0.17,0.41
			C192.4,111.47,192.17,111.51,191.95,111.54z"/>
		<path class="st0" d="M195.67,142.35c-0.06,0.18-0.13,0.36-0.19,0.54c-0.07-0.17-0.14-0.35-0.22-0.52
			C195.4,142.36,195.53,142.35,195.67,142.35z"/>
		<path class="st0" d="M167.28,142.73c-0.3,0.47-0.58,0.44-0.86-0.02C166.7,142.72,166.99,142.72,167.28,142.73z"/>
		<path class="st0" d="M163.94,117.1c-0.11,0.46-0.45,0.54-0.85,0.54C163.37,117.46,163.65,117.28,163.94,117.1z"/>
		<path class="st0" d="M200.61,108.61c-0.15,0.29-0.28,0.26-0.41-0.01C200.33,108.6,200.47,108.61,200.61,108.61z"/>
		<path class="st0" d="M190.38,111.09c0.12,0.12,0.23,0.24,0.35,0.36C190.46,111.47,190.34,111.36,190.38,111.09z"/>
		<path class="st0" d="M221.54,141.87c0.08-0.18,0.21-0.37,0.41-0.21c0.06,0.05-0.04,0.32-0.07,0.49
			C221.76,142.05,221.65,141.96,221.54,141.87z"/>
		<path class="st0" d="M199.36,142c-0.16,0.11-0.31,0.22-0.47,0.33C199.05,142.22,199.2,142.11,199.36,142z"/>
		<path class="st0" d="M193.2,119.3c-0.15,0.3-0.29,0.26-0.42-0.02C192.92,119.29,193.06,119.3,193.2,119.3z"/>
		<path class="st0" d="M162.75,142.32c-0.18,0.34-0.32,0.26-0.44-0.04C162.45,142.29,162.6,142.31,162.75,142.32z"/>
		<path class="st0" d="M189.51,142.71c-0.14,0.32-0.29,0.34-0.44,0.01C189.22,142.71,189.36,142.71,189.51,142.71z"/>
		<path class="st0" d="M196.1,118.85c-0.22,0.14-0.44,0.29-0.67,0.43C195.43,118.78,195.79,118.85,196.1,118.85z"/>
		<path class="st0" d="M215.47,145.13c-0.09,0.22-0.17,0.47-0.44,0.14C215.18,145.23,215.32,145.18,215.47,145.13z"/>
		<path class="st0" d="M189.5,111.05c0.16-0.12,0.32-0.25,0.47-0.37C189.82,110.81,189.66,110.93,189.5,111.05z"/>
	</g>
	<path class="st0" d="M267.34,124.72c-3.07,2.38-6.19,3.89-10.06,3.21c-3.45-0.6-5.46-2.09-6.13-5.08
		c-0.76-3.39-0.28-6.47,2.69-8.76c2.3-1.77,4.98-2.42,7.8-2.68c1.08-0.1,2.17-0.3,3.24-0.2c1.69,0.16,1.98-0.6,1.85-2.07
		c-0.36-4.02-1.69-5.27-5.76-5.3c-2.31-0.01-4.51,0.5-6.68,1.22c-0.58,0.19-1.36,0.59-1.39-0.42c-0.03-0.97-1.56-2.21,0.21-2.91
		c4.19-1.67,8.53-2.53,13.04-1.58c3.62,0.76,5.97,3.64,6.02,7.51c0.09,6.21,0.01,12.43,0.04,18.65c0,0.89-0.25,1.29-1.16,1.15
		c-0.17-0.03-0.34,0-0.51,0C267.92,127.45,267.92,127.45,267.34,124.72z M266.69,118.12c0-0.99-0.01-1.79,0-2.59
		c0.01-0.45-0.09-0.82-0.63-0.8c-2.54,0.1-5.15-0.18-7.52,1.07c-1.68,0.88-2.41,2.65-2.06,4.83c0.27,1.71,1.6,2.98,3.5,3.21
		c2.38,0.29,4.28-0.87,6.06-2.24C267.36,120.58,266.36,119.13,266.69,118.12z"/>
	<path class="st0" d="M318.06,124.72c-1.57,1.31-3.23,2.26-5.08,2.89c-2.51,0.86-4.98,0.6-7.35-0.34
		c-4.52-1.79-5.55-8.82-1.86-12.45c2.41-2.37,5.48-3.13,8.72-3.42c1.14-0.1,2.29-0.29,3.41-0.2c1.49,0.12,1.62-0.61,1.58-1.8
		c-0.13-4.05-1.61-5.52-5.66-5.56c-2.37-0.02-4.62,0.51-6.85,1.24c-0.49,0.16-1.21,0.63-1.28-0.36c-0.07-0.98-1.53-2.25,0.08-2.93
		c4.27-1.8,8.74-2.66,13.35-1.59c3.57,0.83,5.77,3.79,5.78,7.51c0.02,6.1-0.02,12.2,0.03,18.3c0.01,1.06-0.18,1.66-1.38,1.44
		c-0.22-0.04-0.46-0.04-0.68,0c-1.61,0.27-2.64-0.16-2.59-2.02C318.28,125.23,318.16,125.02,318.06,124.72z M317.46,118.13
		c0-1,0-1.8,0-2.6c0-0.42-0.01-0.83-0.59-0.81c-2.55,0.12-5.16-0.17-7.54,1.06c-1.6,0.83-2.43,2.7-2.13,4.65
		c0.28,1.82,1.5,3.07,3.36,3.37c2.39,0.38,4.27-0.8,6.11-2.1C318.17,120.66,317.09,119.16,317.46,118.13z"/>
	<path class="st0" d="M275.66,100.39c1.67,0,3.32,0.05,4.96-0.02c0.98-0.04,1.06,0.59,1.28,1.25c2.13,6.53,4.21,13.06,5.98,19.92
		c0.75-1.15,0.95-2.32,1.31-3.41c1.76-5.42,3.39-10.87,4.01-16.56c0.1-0.93,0.45-1.27,1.39-1.2c1.13,0.08,2.29,0.09,3.42,0
		c1.02-0.08,1.12,0.34,0.94,1.19c-1.81,8.35-3.83,16.63-7.4,24.45c-0.48,1.05-1,1.63-2.27,1.5c-1.41-0.14-2.85-0.07-4.27-0.01
		c-0.73,0.03-1.14-0.15-1.37-0.9c-2.64-8.53-5.31-17.06-7.96-25.59C275.62,100.86,275.66,100.68,275.66,100.39z"/>
	<path class="st0" d="M235.24,134.06c4.72-2.26,5.66-6.48,5.66-11.14c0.01-10.03,0-20.06-0.01-30.09c0-0.34,0.03-0.69-0.01-1.03
		c-0.09-0.87,0.23-1.15,1.15-1.18c4.74-0.13,4.74-0.16,4.74,4.59c0,9.34,0.04,18.69,0,28.03c-0.02,3.53-0.73,6.91-2.93,9.8
		c-0.55,0.72-1.18,1.4-1.87,1.98C238.66,137.82,237.74,137.68,235.24,134.06z"/>
</g>
</svg>
