<?xml version="1.0" encoding="utf-8"?>
<!-- Generator: Adobe Illustrator 24.1.2, SVG Export Plug-In . SVG Version: 6.00 Build 0)  -->
<svg version="1.1" id="Capa_1" xmlns="http://www.w3.org/2000/svg" xmlns:xlink="http://www.w3.org/1999/xlink" x="0px" y="0px"
	 viewBox="0 0 468 198" style="enable-background:new 0 0 468 198;" xml:space="preserve">
<style type="text/css">
	.st0{fill:#BABABA;}
	.st1{fill:#FFFFFF;}
</style>
<g>
	<path class="st0" d="M64.66,99.5c0.03-0.07,0.08-0.13,0.15-0.18c0.36,0.03,0.68-0.11,1.01-0.26c2.28-1.04,4.57-2.07,6.85-3.11
		c2.83-1.29,5.64-2.61,8.47-3.9c1.46-0.67,2.94-1.29,4.4-1.95c1.37-0.62,2.73-1.27,4.1-1.88c0.52-0.23,0.79-0.59,0.74-1.17
		c-0.01-0.15,0-0.3,0-0.45c0-9.29,0-18.57,0-27.86c0-0.5,0.07-1.01-0.2-1.47c0.33-0.44,0.4-0.47,0.59-0.18
		c0.19,0.29,0.38,0.59,0.56,0.89c8.15,13.52,16.3,27.05,24.45,40.58c0.23,0.38,0.43,0.77,0.63,1.12c-0.3,0.48-0.74,0.63-1.12,0.86
		c-7.85,4.65-15.7,9.28-23.56,13.92c-0.17,0.1-0.36,0.18-0.51,0.31c-0.51,0.41-0.95,0.32-1.5,0c-8.27-4.92-16.56-9.81-24.84-14.71
		c-0.04-0.02-0.07-0.07-0.11-0.1C64.72,99.8,64.69,99.65,64.66,99.5z"/>
	<path class="st1" d="M90.17,57.26c0.26,0.46,0.2,0.98,0.2,1.47c0,9.29,0,18.57,0,27.86c0,0.15-0.01,0.3,0,0.45
		c0.05,0.58-0.21,0.93-0.74,1.17c-1.37,0.61-2.73,1.26-4.1,1.88c-1.46,0.66-2.94,1.29-4.4,1.95c-2.83,1.29-5.65,2.6-8.47,3.9
		c-2.28,1.04-4.56,2.07-6.85,3.11c-0.32,0.15-0.64,0.29-1.01,0.26c-0.02-0.33,0.19-0.56,0.34-0.82c4.73-7.85,9.47-15.71,14.21-23.56
		c3.16-5.24,6.3-10.48,9.46-15.71C89.22,58.55,89.54,57.8,90.17,57.26z"/>
	<path class="st0" d="M90.72,119.92c8.37-4.95,16.73-9.9,25.09-14.84c0.36,0.37,0.01,0.58-0.13,0.79
		c-2.49,3.52-4.99,7.03-7.48,10.55c-5.54,7.81-11.08,15.62-16.63,23.42c-0.29,0.41-0.59,0.81-0.9,1.2c-0.1,0.12-0.26,0.08-0.38-0.05
		c0.03-0.55,0.08-1.1,0.08-1.65c0.01-3.95,0-7.91,0-11.86c0-2.05,0-4.1,0-6.16C90.37,120.83,90.3,120.31,90.72,119.92z"/>
	<path class="st1" d="M90.72,119.92c-0.42,0.39-0.35,0.91-0.35,1.41c0,2.05,0,4.1,0,6.16c0,3.95,0,7.91,0,11.86
		c0,0.55-0.05,1.1-0.08,1.65c-0.58-0.42-0.9-1.07-1.31-1.63c-7.79-10.96-15.57-21.93-23.35-32.9c-0.26-0.36-0.49-0.74-0.74-1.12
		c0.34-0.23,0.52,0.03,0.71,0.14c5.88,3.46,11.75,6.94,17.63,10.41c1.99,1.17,3.97,2.36,5.96,3.52
		C89.66,119.68,90.11,120.05,90.72,119.92z"/>
	<path class="st1" d="M384.32,98.92c0.39-0.65,0.66-1.12,0.96-1.58c1.42-2.17,3.29-3.79,5.84-4.46c4.4-1.15,8.34,0.56,10.5,4.19
		c1.16,1.95,1.68,4.08,1.7,6.32c0.04,4.27,0.01,8.53,0.01,12.8c0,0.3-0.02,0.6-0.09,0.89c-0.12,0.45-0.57,0.78-1,0.77
		c-0.5-0.01-0.94-0.41-0.98-0.95c-0.04-0.4-0.02-0.8-0.02-1.2c0-3.96-0.01-7.93,0-11.89c0-1.37-0.16-2.71-0.62-4
		c-0.86-2.4-2.35-4.24-4.89-4.92c-3.01-0.81-5.95,0.07-7.94,2.61c-1.33,1.7-2.03,3.67-2.44,5.76c-0.23,1.19-0.31,2.38-0.31,3.59
		c0.01,3.06,0,6.12,0,9.18c0,0.35,0,0.71-0.06,1.05c-0.08,0.42-0.58,0.78-1,0.78c-0.42,0-0.91-0.37-0.97-0.81
		c-0.07-0.44-0.06-0.9-0.06-1.35c0-4.07-0.01-8.13,0-12.2c0-1.32-0.2-2.6-0.64-3.84c-0.37-1.05-0.92-2-1.67-2.83
		c-1.32-1.45-2.99-2.19-4.93-2.23c-4.01-0.09-6.8,1.73-8.14,5.4c-0.65,1.76-0.87,3.6-0.87,5.47c0.01,3.41,0.01,6.83,0.01,10.24
		c0,0.4,0.02,0.81-0.03,1.2c-0.07,0.53-0.55,0.94-1.03,0.93c-0.48-0.01-0.93-0.42-1.01-0.95c-0.04-0.3-0.03-0.6-0.03-0.9
		c0-7.03,0-14.05,0-21.08c0-0.35-0.01-0.71,0.05-1.05c0.1-0.55,0.56-0.91,1.05-0.89c0.51,0.02,0.93,0.4,0.97,0.96
		c0.04,0.6,0.02,1.2,0.03,1.81c0,0.3,0,0.6,0.04,0.9c0.02,0.12,0.04,0.32,0.26,0.29c0.09-0.01,0.2-0.04,0.25-0.1
		c0.3-0.34,0.58-0.7,0.88-1.03c2.05-2.23,4.58-3.38,7.62-3.28c3.26,0.11,5.73,1.62,7.47,4.35C383.6,97.49,383.89,98.13,384.32,98.92
		z"/>
	<path class="st1" d="M201.55,97.53c0.6-0.73,0.92-1.17,1.29-1.58c2.76-3,6.12-4.08,10.08-3.01c2.13,0.58,3.71,1.93,4.92,3.74
		c1.38,2.07,1.96,4.39,1.98,6.84c0.04,4.21,0.01,8.43,0.01,12.64c0,0.3-0.02,0.6-0.09,0.89c-0.12,0.5-0.67,0.86-1.13,0.79
		c-0.44-0.07-0.81-0.44-0.86-0.92c-0.04-0.4-0.03-0.8-0.03-1.2c0-3.96,0-7.93,0-11.89c0-1.52-0.23-3-0.79-4.42
		c-0.35-0.89-0.83-1.71-1.47-2.44c-1.1-1.26-2.46-2.04-4.12-2.26c-3.81-0.52-7.27,1.16-8.93,4.89c-0.83,1.87-1.17,3.85-1.05,5.87
		c0.11,1.76,0.09,3.51,0.1,5.26c0.01,1.76,0.01,3.51,0,5.27c0,0.35-0.01,0.71-0.09,1.04c-0.12,0.51-0.67,0.87-1.13,0.8
		c-0.45-0.07-0.81-0.44-0.85-0.92c-0.04-0.45-0.02-0.9-0.02-1.35c0-13.7,0-27.4,0-41.1c0-0.35,0-0.7,0-1.05c0-0.15,0-0.3,0.04-0.45
		c0.1-0.43,0.54-0.78,0.99-0.78c0.4,0,0.78,0.25,0.93,0.64c0.07,0.18,0.12,0.39,0.13,0.58c0.02,0.4,0.01,0.8,0.01,1.2
		c0,6.97,0,13.95,0,20.92C201.49,96.09,201.52,96.62,201.55,97.53z"/>
	<path class="st1" d="M149.13,106.49c-2.96,0-5.92,0-8.88,0c-0.35,0-0.7-0.01-1.05,0.01c-0.51,0.02-0.67,0.16-0.56,0.63
		c0.17,0.78,0.34,1.57,0.61,2.32c0.56,1.58,1.44,2.98,2.65,4.15c1.97,1.93,4.33,2.81,7.09,2.69c3.16-0.13,5.7-1.4,7.63-3.9
		c0.21-0.28,0.44-0.55,0.7-0.78c0.29-0.25,0.63-0.28,0.98-0.1c0.39,0.2,0.59,0.57,0.56,0.98c-0.03,0.31-0.17,0.57-0.33,0.83
		c-0.46,0.73-1.01,1.37-1.63,1.96c-3.61,3.44-11.52,5.01-16.76-0.43c-5.05-5.24-4.97-13.93,0.2-19.05c4.49-4.44,11.45-4.5,16-0.11
		c2.62,2.52,3.93,5.65,4.13,9.25c0.06,1.03-0.37,1.49-1.39,1.54c-0.85,0.03-1.71,0.01-2.56,0.01
		C154.05,106.49,151.59,106.49,149.13,106.49z M138.68,104.27c0.41,0.2,0.86,0.12,1.3,0.12c5.61,0.01,11.23,0,16.84,0
		c0.35,0,0.7-0.01,1.05-0.04c0.15-0.01,0.27-0.13,0.27-0.3c0.01-0.15,0.02-0.3-0.01-0.45c-0.5-2.87-1.8-5.3-4.12-7.11
		c-3.54-2.77-8.38-2.59-11.74,0.4c-1.69,1.51-2.8,3.39-3.37,5.57C138.75,103.04,138.49,103.61,138.68,104.27z"/>
	<path class="st1" d="M235.37,106.6c-0.01,0.19-0.06,0.39-0.02,0.57c0.44,2.54,1.51,4.77,3.4,6.56c1.62,1.54,3.54,2.43,5.8,2.54
		c3.54,0.18,6.5-0.96,8.72-3.81c0.21-0.28,0.43-0.56,0.68-0.8c0.34-0.32,0.73-0.35,1.11-0.13c0.42,0.24,0.62,0.69,0.48,1.15
		c-0.07,0.24-0.19,0.46-0.32,0.67c-0.45,0.73-1.01,1.37-1.64,1.96c-3.63,3.41-11.53,4.98-16.76-0.5
		c-4.99-5.22-4.92-13.83,0.17-18.94c5.03-5.05,13.03-4.45,17.41,1.31c1.72,2.26,2.63,4.83,2.78,7.66c0.06,1.14-0.33,1.58-1.44,1.64
		c-0.35,0.02-0.7,0-1.05,0c-5.87,0-11.74,0-17.61,0C236.51,106.49,235.95,106.41,235.37,106.6z M235.39,104.27
		c0.37,0.19,0.78,0.12,1.18,0.12c5.66,0,11.33,0,16.99,0c0.3,0,0.6,0,0.9-0.02c0.31-0.01,0.43-0.2,0.41-0.49
		c-0.01-0.1-0.01-0.2-0.02-0.3c-0.51-2.81-1.77-5.2-4.02-7.01c-3.59-2.88-8.59-2.69-11.97,0.44c-1.62,1.51-2.7,3.34-3.25,5.48
		C235.46,103.06,235.19,103.63,235.39,104.27z"/>
	<path class="st1" d="M295.21,106.62c-0.16,0.47-0.01,0.92,0.09,1.35c0.37,1.58,1.02,3.03,1.98,4.35c3.5,4.8,9.01,4.63,12.51,2.91
		c1.28-0.63,2.31-1.58,3.2-2.68c0.25-0.31,0.5-0.63,0.79-0.9c0.33-0.31,0.75-0.3,1.11-0.07c0.42,0.28,0.63,0.74,0.43,1.16
		c-0.19,0.41-0.42,0.8-0.69,1.16c-1.46,1.97-3.41,3.24-5.74,3.91c-4.17,1.2-8.05,0.7-11.44-2.19c-2.17-1.85-3.55-4.22-4.19-6.98
		c-1.04-4.5-0.06-8.58,2.92-12.1c4.33-5.11,11.74-5.49,16.6-0.88c2.67,2.53,4.02,5.7,4.16,9.38c0.04,0.98-0.36,1.38-1.3,1.45
		c-0.15,0.01-0.3,0-0.45,0c-0.3,0-0.6,0-0.9,0c-5.82,0-11.64,0-17.46,0.01C296.29,106.49,295.73,106.37,295.21,106.62z
		 M304.87,104.39c1.15,0,2.31,0,3.46,0c1.91,0,3.81,0,5.72-0.01c0.51,0,0.64-0.15,0.57-0.64c-0.4-2.91-1.72-5.34-4.01-7.17
		c-3.66-2.93-8.71-2.67-12.09,0.57c-1.64,1.57-2.66,3.5-3.21,5.68c-0.09,0.34-0.11,0.69-0.16,1.04c-0.04,0.3,0.09,0.49,0.39,0.51
		c0.35,0.03,0.7,0.02,1.05,0.02C299.35,104.39,302.11,104.39,304.87,104.39z"/>
	<path class="st1" d="M350.62,105.63c0,3.46,0,6.92,0,10.39c0,0.4,0.01,0.81-0.07,1.2c-0.12,0.57-0.73,0.9-1.28,0.76
		c-0.44-0.11-0.7-0.44-0.73-1.01c-0.03-0.7-0.01-1.4-0.01-2.11c0-0.3,0-0.6-0.04-0.9c-0.02-0.13-0.07-0.31-0.27-0.29
		c-0.09,0.01-0.2,0.03-0.25,0.09c-0.19,0.23-0.37,0.47-0.55,0.71c-0.51,0.69-1.08,1.32-1.73,1.88c-4.15,3.62-10.49,2.66-13.43-1.82
		c-1.3-1.99-1.98-4.18-2.01-6.53c-0.06-4.46-0.02-8.93-0.02-13.4c0-0.2-0.01-0.41,0.04-0.6c0.11-0.51,0.6-0.87,1.1-0.83
		c0.46,0.04,0.86,0.38,0.92,0.85c0.05,0.4,0.03,0.8,0.03,1.2c0,3.96,0.01,7.93,0,11.89c0,1.37,0.14,2.7,0.59,4
		c0.15,0.42,0.32,0.84,0.52,1.25c1.34,2.75,3.94,4.57,7.83,4.02c2.52-0.36,4.33-1.73,5.49-3.98c0.88-1.72,1.29-3.57,1.52-5.48
		c0.21-1.8,0.28-3.6,0.26-5.41c-0.02-2.11,0-4.21,0-6.32c0-0.35-0.02-0.7,0.01-1.05c0.05-0.58,0.44-0.93,0.97-0.96
		c0.52-0.02,0.96,0.32,1.05,0.88c0.06,0.39,0.05,0.8,0.05,1.2C350.62,98.7,350.62,102.17,350.62,105.63z"/>
	<path class="st1" d="M180.15,106.23c0,3.21,0,6.42,0,9.63c0,0.4,0.02,0.81-0.03,1.2c-0.07,0.54-0.52,0.93-1.01,0.94
		c-0.5,0-0.95-0.39-1.01-0.93c-0.05-0.4-0.03-0.8-0.03-1.2c0-6.37,0-12.74,0-19.12c0-1.88,0.21-1.67-1.69-1.68
		c-1-0.01-2.01,0-3.01,0c-0.3,0-0.61,0.01-0.9-0.04c-0.45-0.08-0.78-0.52-0.79-0.98c-0.01-0.46,0.3-0.92,0.75-1.01
		c0.34-0.07,0.7-0.07,1.05-0.07c1.25-0.01,2.51,0.01,3.76-0.01c0.78-0.01,0.82-0.05,0.83-0.89c0.01-2.06,0-4.11,0.01-6.17
		c0-0.35-0.02-0.71,0.03-1.05c0.07-0.55,0.51-0.93,1-0.94c0.52-0.01,0.95,0.35,1.02,0.91c0.05,0.4,0.03,0.8,0.03,1.2
		c0,2.06,0,4.11,0.01,6.17c0,0.68,0.1,0.76,0.79,0.77c1.3,0.01,2.61,0,3.91,0.01c0.35,0,0.71-0.01,1.05,0.05
		c0.52,0.09,0.89,0.6,0.85,1.08c-0.04,0.44-0.39,0.85-0.85,0.92c-0.34,0.05-0.7,0.04-1.05,0.04c-1.35,0.01-2.71,0-4.06,0.01
		c-0.51,0.01-0.61,0.12-0.63,0.61c-0.02,0.35-0.01,0.7-0.01,1.05C180.15,99.91,180.15,103.07,180.15,106.23z"/>
	<path class="st1" d="M273.13,98.14c0.38-0.47,0.69-0.86,1.02-1.23c1.63-1.85,3.55-3.24,6.01-3.78c0.54-0.12,1.09-0.19,1.64-0.12
		c0.52,0.07,0.85,0.41,0.89,0.87c0.06,0.55-0.22,0.97-0.76,1.14c-0.19,0.06-0.39,0.07-0.59,0.11c-4.5,0.9-7.04,3.76-8.07,8.12
		c-0.23,0.98-0.34,1.98-0.35,2.99c0,3.16-0.01,6.33-0.02,9.49c0,0.4,0.02,0.81-0.05,1.2c-0.09,0.54-0.57,0.87-1.09,0.84
		c-0.54-0.04-0.88-0.39-0.94-0.99c-0.03-0.35-0.01-0.7-0.01-1.05c0-6.88,0-13.76,0-20.63c0-0.25-0.01-0.5,0-0.75
		c0.04-0.84,0.47-1.37,1.09-1.34c0.58,0.03,0.97,0.49,0.99,1.28c0.03,0.9,0,1.81,0.01,2.71C272.92,97.32,272.81,97.67,273.13,98.14z
		"/>
</g>
</svg>
