<?xml version="1.0" encoding="utf-8"?>
<!-- Generator: Adobe Illustrator 24.1.2, SVG Export Plug-In . SVG Version: 6.00 Build 0)  -->
<svg version="1.1" id="Capa_1" xmlns="http://www.w3.org/2000/svg" xmlns:xlink="http://www.w3.org/1999/xlink" x="0px" y="0px"
	 viewBox="0 0 468 198" style="enable-background:new 0 0 468 198;" xml:space="preserve">
<style type="text/css">
	.st0{fill:#FFFFFF;}
	.st1{fill:#C6C6C6;}
	.st2{fill:#BABABA;}
	.st3{fill:#7F7F7F;}
	.st4{fill:#A0A0A0;}
</style>
<g>
	<path class="st0" d="M185.74,56.61c4.03,0,8.05,0,12.08,0.01c0.29,0,0.7-0.15,0.83,0.19c0.11,0.3-0.22,0.56-0.42,0.76
		c-2.65,2.67-5.32,5.32-7.98,7.98c-2.95,2.94-5.89,5.9-8.83,8.84c-2.37,2.38-4.75,4.75-7.13,7.12c-3.02,3.01-6.05,6.03-9.07,9.04
		c-3.34,3.32-6.68,6.64-10,9.97c-3.52,3.52-7.03,7.06-10.52,10.6c-0.96,0.97-1.05,0.98-2.01,0.02c-3.71-3.71-7.43-7.42-11.14-11.13
		c-0.99-0.99-1-1.03-0.01-2.01c13.51-13.51,27.02-27.01,40.51-40.53c0.63-0.63,1.28-0.89,2.16-0.88
		C178.03,56.63,181.89,56.61,185.74,56.61z"/>
	<path class="st0" d="M162.33,106.38c0.95-1.33,2.25-2.31,3.37-3.47c1.98-2.06,4.04-4.04,6.04-6.09c0.76-0.78,1.51-1.28,2.71-1.27
		c7.71,0.06,15.42,0.03,23.13,0.04c0.38,0,0.91-0.23,1.12,0.23c0.22,0.47-0.31,0.7-0.58,0.97c-7.23,7.24-14.46,14.47-21.69,21.7
		c-0.13,0-0.26,0-0.39,0c-0.17-0.46-0.47-0.82-0.82-1.15c-1.02-0.95-2.06-1.89-3.02-2.89c-2.25-2.35-4.49-4.73-6.9-6.91
		C164.53,106.84,163.87,105.3,162.33,106.38z"/>
	<path class="st1" d="M176.04,118.49c0.13,0,0.26,0,0.39,0c1.24,1.58,2.77,2.88,4.16,4.32c3.07,3.16,6.2,6.26,9.31,9.37
		c2.64,2.63,5.3,5.25,7.95,7.87c0.35,0.35,0.68,0.73,1.03,1.11c-0.37,0.37-0.77,0.23-1.12,0.23c-7.94,0.01-15.88,0-23.82,0.02
		c-0.71,0-1.23-0.22-1.72-0.71c-2.9-2.91-5.83-5.8-8.74-8.71c-0.16-0.16-0.24-0.4-0.36-0.6C167.33,127,171.68,122.73,176.04,118.49z
		 M169.26,125.99c-2.02,1.42-3.52,3.39-5.3,5.05c-0.12,0.11-0.25,0.28-0.05,0.43c0.16,0.12,0.32,0.02,0.47-0.06
		c0.89-0.51,1.86-0.81,2.84-1.1c0.3,0.02,0.59,0.01,0.63-0.39c0.06,0,0.13-0.01,0.19-0.01c0.85-0.01,1.48-0.61,2.25-0.82
		c0.7,0.09,1.19-0.42,1.78-0.63c1.11-0.41,1.42-1.05,1.18-2.28c-0.22-1.08-0.49-2.41,0.34-3.34c0.85-0.96,1.44-2.15,2.53-2.89
		c0.26-0.18,0.43-0.43,0.25-0.68c-0.26-0.36-0.5,0.03-0.66,0.17c-1.11,1.03-2.21,2.08-3.3,3.14c-0.28,0.28-0.67,0.5-0.69,0.97
		C170.67,124.13,169.87,124.96,169.26,125.99z"/>
	<path class="st0" d="M176.04,118.49c-4.36,4.25-8.71,8.51-12.92,12.91c-0.96-0.43-1.53-1.32-2.25-2.02
		c-3.44-3.38-6.82-6.83-10.24-10.23c-0.42-0.42-0.51-0.69-0.03-1.16c2.82-2.75,5.54-5.6,8.4-8.32c1.13-1.07,2.13-2.27,3.32-3.29
		c1.55-1.07,2.21,0.46,2.98,1.16c2.41,2.18,4.65,4.55,6.9,6.91c0.95,1,2,1.94,3.02,2.89C175.58,117.66,175.87,118.03,176.04,118.49z
		"/>
	<path class="st0" d="M310.76,105.37c-2.86,0-5.73,0.03-8.59-0.02c-0.89-0.02-1.12,0.29-1.04,1.12c0.4,3.73,2.37,7.27,6.19,8.42
		c3.67,1.11,7.89-0.85,9.31-4.46c0.73-1.85,1.3-2.15,3.32-1.82c0.42,0.07,0.51,0.26,0.43,0.62c-0.95,4.05-3.46,7.85-8.49,8.47
		c-2.47,0.3-4.9,0.3-7.24-0.62c-2.95-1.15-4.82-3.35-5.8-6.31c-1.65-5.01-1.56-9.96,1.01-14.63c1.82-3.3,4.8-4.96,8.6-5.17
		c3.99-0.22,7.29,1,9.65,4.35c1.22,1.73,1.87,3.7,2.2,5.77c0.17,1.07,0.2,2.17,0.31,3.25c0.08,0.81-0.27,1.07-1.07,1.06
		C316.63,105.35,313.7,105.37,310.76,105.37z M309.2,102.57c2.32,0,4.63,0,6.95,0c1.21,0,1.19-0.03,1.05-1.19
		c-0.16-1.38-0.67-2.63-1.34-3.82c-2.42-4.31-8.11-5.14-11.66-1.73c-1.61,1.55-2.41,3.49-2.93,5.6c-0.21,0.84-0.05,1.17,0.88,1.16
		C304.5,102.54,306.85,102.57,309.2,102.57z"/>
	<path class="st0" d="M208.82,99.52c0-5.52,0.01-11.05-0.02-16.57c0-0.77,0.22-0.99,0.98-0.99c6.82,0.02,13.64,0.03,20.46,0
		c0.78,0,1,0.24,0.97,0.99c-0.08,2.33,0.31,1.97-1.92,1.98c-5.29,0.02-10.57,0.02-15.86-0.01c-0.88-0.01-1.19,0.2-1.18,1.13
		c0.05,3.48,0.04,6.96,0.01,10.43c-0.01,0.82,0.27,1.05,1.06,1.05c4.88-0.03,9.75,0.01,14.63-0.04c0.9-0.01,1.17,0.22,1.13,1.14
		c-0.08,1.84-0.02,1.84-1.84,1.84c-4.54,0-9.07,0-13.61,0c-1.36,0-1.36,0-1.36,1.41c0,4.77-0.02,9.55,0.02,14.32
		c0.01,0.8-0.21,1.05-1.02,1.05c-2.46-0.01-2.46,0.02-2.46-2.39C208.82,109.75,208.82,104.64,208.82,99.52z"/>
	<path class="st0" d="M260.8,113.48c-0.93,1.3-1.95,2.41-3.34,3.14c-3.16,1.65-6.45,1.71-9.67,0.45c-3.24-1.28-4.28-4.21-4.36-7.36
		c-0.15-5.69-0.03-11.39-0.05-17.08c0-0.67,0.21-0.91,0.87-0.9c2.81,0.03,2.35-0.44,2.37,2.23c0.04,5.08,0,10.16,0.1,15.24
		c0.03,1.65,0.57,3.2,1.8,4.44c1.96,1.98,7.21,2.33,9.72-0.61c1.78-2.08,2.51-4.52,2.56-7.15c0.09-4.33,0.05-8.66,0-12.99
		c-0.01-0.92,0.3-1.18,1.18-1.16c2.14,0.03,2.14,0,2.14,2.18c0,7.33,0,14.66,0,21.99c0,1.37,0,1.37-1.33,1.37
		c-0.31,0-0.61-0.01-0.92,0c-0.56,0.02-0.79-0.23-0.78-0.8c0.02-0.88-0.02-1.77-0.05-2.65C261.03,113.74,260.96,113.69,260.8,113.48
		z"/>
	<path class="st0" d="M286.21,104.14c0-2.86-0.03-5.73,0.02-8.59c0.01-0.89-0.29-1.24-1.18-1.18c-0.85,0.06-1.7-0.01-2.56,0.02
		c-0.48,0.01-0.64-0.17-0.68-0.65c-0.15-2.01-0.17-2,1.88-2.01c2.89-0.02,2.49,0.36,2.51-2.48c0.01-1.43,0.02-2.86-0.02-4.29
		c-0.02-0.63,0.12-0.91,0.83-0.93c2.32-0.04,2.32-0.07,2.32,2.28c0,1.43,0.03,2.86-0.01,4.29c-0.03,0.82,0.23,1.19,1.11,1.14
		c1.09-0.06,2.18,0.01,3.27-0.02c0.64-0.02,0.92,0.18,0.9,0.87c-0.07,2.15,0.24,1.75-1.79,1.79c-0.85,0.02-1.7,0.01-2.56,0
		c-0.65-0.01-0.92,0.3-0.92,0.93c0.01,5.15-0.01,10.29,0.01,15.44c0,0.67,0.11,1.35,0.22,2.02c0.23,1.31,0.88,1.89,2.22,1.94
		c0.65,0.02,1.3,0.01,1.94-0.03c0.59-0.04,0.85,0.11,0.87,0.78c0.03,1.78,0.06,1.75-1.72,1.91c-1.2,0.11-2.39,0.01-3.57-0.14
		c-1.98-0.25-3.08-1.89-3.11-4.6C286.19,109.8,286.21,106.97,286.21,104.14z"/>
	<path class="st0" d="M271.88,104.07c0-2.83-0.02-5.66,0.01-8.49c0.01-0.87-0.23-1.27-1.16-1.2c-0.75,0.06-1.51-0.05-2.25,0.03
		c-0.86,0.09-1.1-0.28-1-1.05c0.04-0.3,0.02-0.61,0-0.92c-0.04-0.54,0.23-0.72,0.74-0.71c0.82,0.02,1.64-0.05,2.46,0.02
		c0.97,0.08,1.24-0.34,1.21-1.25c-0.06-1.84,0.01-3.68-0.03-5.53c-0.02-0.73,0.23-0.93,0.94-0.93c2.21,0,2.21-0.03,2.21,2.19
		c0,1.5,0.03,3-0.01,4.5c-0.02,0.76,0.28,1.05,1.02,1.03c1.13-0.03,2.25,0.02,3.38-0.02c0.68-0.02,0.89,0.24,0.87,0.9
		c-0.06,2.09,0.22,1.73-1.71,1.76c-0.85,0.01-1.71,0.02-2.56,0c-0.69-0.02-0.99,0.27-0.99,0.97c0.01,5.15,0,10.3,0.02,15.45
		c0,0.61,0.09,1.22,0.18,1.82c0.2,1.41,0.89,2.03,2.31,2.09c0.51,0.02,1.02-0.03,1.53,0.01c0.4,0.02,1.02-0.32,1.15,0.29
		c0.15,0.68,0.14,1.42-0.03,2.12c-0.02,0.07-0.16,0.14-0.24,0.15c-1.87,0.12-3.75,0.37-5.57-0.24c-2.14-0.72-2.44-2.57-2.47-4.47
		C271.84,109.73,271.87,106.9,271.88,104.07C271.87,104.07,271.88,104.07,271.88,104.07z"/>
	<path class="st0" d="M324.47,104.51c0-3.89,0.02-7.78-0.02-11.67c-0.01-0.81,0.16-1.17,1.06-1.14c2.3,0.07,1.89-0.2,1.92,1.89
		c0.01,0.75,0,1.5,0.01,2.25c0,0.22-0.07,0.52,0.22,0.62c0.31,0.1,0.37-0.21,0.48-0.4c1.34-2.39,3.39-3.84,6.01-4.54
		c0.84-0.22,1.69-0.13,2.54-0.14c0.1,0,0.26,0.01,0.29,0.07c0.42,0.87,0.16,1.79,0.16,2.69c0,0.64-0.57,0.44-0.94,0.46
		c-4.96,0.31-8.44,4-8.45,8.97c0,4.16-0.02,8.32,0.02,12.48c0.01,0.85-0.16,1.21-1.11,1.2c-2.19-0.04-2.19,0.01-2.19-2.21
		C324.47,111.54,324.47,108.02,324.47,104.51z"/>
	<path class="st0" d="M237.67,99.59c0,5.53-0.02,11.05,0.02,16.58c0.01,0.85-0.23,1.12-1.09,1.09c-2.54-0.08-2.12,0.27-2.12-2.11
		c-0.01-10.71,0.01-21.42-0.03-32.13c0-0.91,0.32-1.07,1.11-1.06c2.11,0.02,2.11-0.01,2.11,2.08
		C237.67,89.22,237.67,94.4,237.67,99.59z"/>
	<path class="st2" d="M171.73,123.56c0.02-0.47,0.4-0.69,0.69-0.97c1.09-1.06,2.18-2.11,3.3-3.14c0.15-0.14,0.4-0.53,0.66-0.17
		c0.18,0.25,0.01,0.5-0.25,0.68c-1.09,0.74-1.68,1.93-2.53,2.89c-0.83,0.93-0.56,2.26-0.34,3.34c0.25,1.23-0.07,1.87-1.18,2.28
		c-0.59,0.22-1.08,0.72-1.78,0.63c0.27-1.83,0.1-3.79,1.43-5.34C171.76,123.72,171.73,123.63,171.73,123.56z"/>
	<path class="st3" d="M168.05,129.92c-0.06,0.01-0.13,0.01-0.19,0.01c-0.3-0.02-0.59-0.02-0.63,0.39c-0.98,0.29-1.95,0.59-2.84,1.1
		c-0.15,0.09-0.31,0.18-0.47,0.06c-0.2-0.15-0.07-0.32,0.05-0.43c1.79-1.66,3.28-3.64,5.3-5.05c0.15,0.28,0.16,0.51-0.01,0.83
		c-0.28,0.52-0.5,1.13-0.35,1.73c0.13,0.54,0.05,0.83-0.5,0.95C168.17,129.55,168.07,129.69,168.05,129.92z"/>
	<path class="st4" d="M168.05,129.92c0.02-0.22,0.12-0.37,0.36-0.42c0.55-0.12,0.63-0.41,0.5-0.95c-0.15-0.59,0.07-1.2,0.35-1.73
		c0.17-0.32,0.16-0.55,0.01-0.83c0.61-1.03,1.41-1.86,2.47-2.43c0,0.07,0.03,0.16-0.01,0.2c-1.33,1.55-1.16,3.51-1.43,5.34
		C169.53,129.31,168.89,129.9,168.05,129.92z"/>
	<path class="st3" d="M167.22,130.31c0.04-0.41,0.33-0.4,0.63-0.39C167.81,130.33,167.52,130.34,167.22,130.31z"/>
</g>
</svg>
