<svg width="120" height="77" viewBox="0 0 120 77" fill="none" xmlns="http://www.w3.org/2000/svg">
<g clip-path="url(#clip0_274_1052)">
<path d="M33.583 28.7416V11.0996C33.583 4.08601 38.1862 0 46.1616 0V5.02339C41.8937 5.02339 39.3646 7.30194 39.3646 11.6235V28.7416H33.583Z" fill="#1A96FC"/>
<path d="M55.8759 2.97556V28.7416H50.1278V2.97556C50.1215 2.5907 50.1908 2.20836 50.3319 1.85043C50.473 1.49249 50.683 1.16603 50.95 0.889652C51.2169 0.61327 51.5355 0.392425 51.8876 0.239768C52.2397 0.0871108 52.6184 0.00563578 53.0019 0C53.3854 0.00563578 53.764 0.0871108 54.1161 0.239768C54.4682 0.392425 54.7868 0.61327 55.0538 0.889652C55.3207 1.16603 55.5307 1.49249 55.6718 1.85043C55.8129 2.20836 55.8822 2.5907 55.8759 2.97556Z" fill="#1A96FC"/>
<path d="M82.8532 8.43645H77.5842C77.5802 8.43737 77.5761 8.43728 77.5722 8.43616C77.5683 8.43504 77.5647 8.43294 77.5618 8.43006C77.559 8.42717 77.5569 8.42359 77.5558 8.41967C77.5546 8.41575 77.5545 8.41162 77.5555 8.40764C77.4309 5.93199 75.285 4.24468 72.1619 4.24468C69.2879 4.24468 67.209 5.72048 67.209 7.81638C67.209 10.7006 69.6854 11.1573 72.8229 11.7774C76.6549 12.5177 83.4999 13.7002 83.4999 20.3917C83.4999 25.4295 78.8775 28.8858 72.3822 28.8858C65.8869 28.8858 61.2119 25.319 61.1592 20.161H66.6581C66.7683 22.8241 69.192 24.5835 72.5498 24.5835C75.6825 24.5835 77.9386 23.0501 77.9386 20.7378C77.9386 17.8536 75.2419 17.3729 72.1619 16.8297C68.0903 16.2096 61.6525 14.9597 61.6525 8.3932C61.6525 3.35056 65.9636 0.00966359 72.272 0.00966359C78.4512 4.94048e-05 82.8532 3.4515 82.8532 8.43645Z" fill="#1A96FC"/>
<path d="M5.75757 24.3287V40.0911H0.00952148V14.2963" fill="#1A96FC"/>
<path d="M89.248 51.1187V65.5399H83.5V55.2672" fill="#1A96FC"/>
<path d="M13.8811 0C6.21704 0 -0.0100098 6.4319 -0.0100098 14.3684C-0.0100098 22.3049 6.21704 28.7416 13.8811 28.7416C21.5452 28.7416 27.7722 22.3049 27.7722 14.3684C27.7722 6.4319 21.5452 0 13.8811 0ZM13.8811 23.2567C9.13896 23.2567 5.29739 19.2764 5.29739 14.3684C5.29739 9.46036 9.12938 5.48485 13.8811 5.48485C18.6328 5.48485 22.4649 9.46036 22.4649 14.3684C22.4649 19.2764 18.6184 23.2375 13.8811 23.2375V23.2567Z" fill="#1A96FC"/>
<path d="M75.2898 36.8368C67.6257 36.8368 61.3987 43.2687 61.3987 51.2052C61.3987 59.1417 67.6257 65.5784 75.2898 65.5784C82.9538 65.5784 89.1809 59.1417 89.1809 51.2052C89.1809 43.2687 82.9538 36.8368 75.2898 36.8368ZM75.2898 60.0935C70.5477 60.0935 66.706 56.1132 66.706 51.2052C66.706 46.2972 70.5381 42.3216 75.2898 42.3216C80.0415 42.3216 83.8735 46.2972 83.8735 51.2052C83.8735 56.1132 80.0319 60.0935 75.2898 60.0935Z" fill="#1A96FC"/>
<path d="M120 53.253C120 60.4107 114.851 65.2707 107.321 65.2707C99.7908 65.2707 94.584 60.3867 94.584 53.253V36.8368H100.332V53.253C100.332 57.6274 103.053 60.4636 107.239 60.4636C111.426 60.4636 114.204 57.6226 114.204 53.253V36.8368H119.952L120 53.253Z" fill="#1A96FC"/>
<path d="M33.583 11.0996V28.7416H39.3646V11.6235C39.3646 7.29713 41.8937 5.02339 46.1616 5.02339V0C38.1862 0 33.583 4.08601 33.583 11.0996Z" fill="white"/>
<path d="M53.0114 0C52.6279 0.00563578 52.2492 0.0871108 51.8971 0.239768C51.545 0.392425 51.2264 0.61327 50.9595 0.889652C50.6925 1.16603 50.4825 1.49249 50.3414 1.85043C50.2004 2.20836 50.131 2.5907 50.1374 2.97556V28.7416H55.8854V2.97556C55.8917 2.5907 55.8224 2.20836 55.6813 1.85043C55.5403 1.49249 55.3302 1.16603 55.0633 0.889652C54.7963 0.61327 54.4777 0.392425 54.1256 0.239768C53.7735 0.0871108 53.3949 0.00563578 53.0114 0Z" fill="white"/>
<path d="M72.8374 11.7774C69.6999 11.1573 67.2234 10.7054 67.2234 7.81634C67.2234 5.72044 69.3167 4.24464 72.1764 4.24464C75.2995 4.24464 77.4454 5.93195 77.5699 8.4076C77.569 8.41158 77.5691 8.41571 77.5702 8.41963C77.5714 8.42355 77.5734 8.42713 77.5763 8.43002C77.5792 8.4329 77.5828 8.435 77.5867 8.43612C77.5906 8.43724 77.5947 8.43733 77.5987 8.43641H82.8677C82.8677 3.45146 78.4657 0 72.3009 0C65.9733 0 61.6814 3.3409 61.6814 8.38354C61.6814 14.95 68.1192 16.1999 72.1907 16.82C75.2707 17.3872 77.9675 17.8391 77.9675 20.7282C77.9675 23.05 75.7114 24.5739 72.5787 24.5739C69.2257 24.5739 66.7971 22.8144 66.6869 20.1513H61.188C61.2407 25.3093 65.8631 28.8762 72.4111 28.8762C78.959 28.8762 83.5287 25.4199 83.5287 20.3821C83.5144 13.705 76.6886 12.5177 72.8374 11.7774Z" fill="white"/>
<path d="M13.8811 0C6.21704 0 -0.0100098 6.4319 -0.0100098 14.3684C-0.0100098 14.6905 -0.00997702 15.0126 0.0235532 15.3298V40.0912H5.7716V26.0208C8.11986 27.7904 10.978 28.7454 13.9147 28.7416C21.5787 28.7416 27.8058 22.3049 27.8058 14.3684C27.8058 6.4319 21.5452 0 13.8811 0ZM13.8811 23.2567C9.13896 23.2567 5.29739 19.2764 5.29739 14.3684C5.29739 9.46037 9.12938 5.48485 13.8811 5.48485C18.6328 5.48485 22.4649 9.46037 22.4649 14.3684C22.4649 19.2764 18.6184 23.2375 13.8811 23.2375V23.2567Z" fill="white"/>
<path d="M75.2898 36.8368C67.6257 36.8368 61.3987 43.2687 61.3987 51.2052C61.3987 59.1417 67.6257 65.5784 75.2898 65.5784C78.2667 65.5772 81.1604 64.5923 83.5238 62.7758V65.5159H89.2719V51.0946L89.1952 51.1523C89.1425 43.2398 82.9395 36.8368 75.2898 36.8368ZM75.2898 60.0935C70.5477 60.0935 66.706 56.1132 66.706 51.2052C66.706 46.2972 70.5381 42.3216 75.2898 42.3216C80.0415 42.3216 83.8735 46.2972 83.8735 51.2052C83.8735 56.1132 80.0319 60.0935 75.2898 60.0935Z" fill="white"/>
<path d="M114.252 36.8368V53.253C114.252 57.6274 111.479 60.4636 107.287 60.4636C103.096 60.4636 100.38 57.6226 100.38 53.253V36.8368H94.6321V53.253C94.6321 60.4107 99.7814 65.2707 107.369 65.2707C109.81 65.3149 112.221 64.7184 114.362 63.5402V65.7659C114.362 65.8908 114.362 66.011 114.329 66.1312C114.329 66.2466 114.329 66.3667 114.286 66.4821L114.228 66.8186C114.228 66.9292 114.185 67.0397 114.161 67.1503C114.161 67.2561 114.108 67.3666 114.08 67.4676C114.051 67.5733 114.017 67.6791 113.989 67.7801C113.955 67.8858 113.917 67.9868 113.878 68.0877C113.554 68.9774 113.037 69.7835 112.365 70.448H112.341L112.159 70.6114L112.106 70.6595L111.934 70.8037L111.862 70.8614L111.694 70.9864L111.603 71.0488L111.44 71.1594L111.335 71.2219L111.172 71.3229L111.057 71.3854L110.894 71.4719L110.765 71.5344L110.602 71.6065L110.468 71.669L110.305 71.7315L110.157 71.7892L109.994 71.842L109.836 71.8949L109.673 71.943L109.505 71.9863L109.342 72.0247L109.165 72.0584L109.002 72.092L108.811 72.1208H108.653H108.447H108.293H108.063H107.929H107.58H107.551C106.656 72.1506 105.765 71.9953 104.933 71.6645C104.1 71.3337 103.345 70.8344 102.713 70.198L102.675 70.1499C102.482 69.9468 102.304 69.7299 102.143 69.501C101.701 68.8732 101.366 68.1763 101.151 67.4387C101.1 67.2729 101.035 67.112 100.955 66.958C100.765 66.61 100.499 66.3103 100.176 66.082C99.8529 65.8536 99.4819 65.7027 99.0916 65.6409C98.9633 65.6197 98.8336 65.6085 98.7036 65.6072C98.2848 65.6029 97.8711 65.7005 97.498 65.8917C97.125 66.0829 96.8037 66.3619 96.5617 66.705C96.3196 67.0481 96.1641 67.4449 96.1083 67.8616C96.0526 68.2782 96.0983 68.7022 96.2415 69.0972C96.4311 69.6226 96.6584 70.1335 96.9217 70.6258L97.1229 70.9912C97.4505 71.56 97.8271 72.0988 98.2485 72.6015C98.4401 72.8275 98.6365 73.0486 98.8425 73.2553C101.012 75.4522 104.112 76.7309 107.776 76.7309H107.843C108.049 76.7309 108.255 76.7309 108.456 76.7309H108.715L109.122 76.702L109.409 76.6684L109.773 76.6299L110.075 76.5818L110.406 76.5289L110.717 76.4616L111.024 76.3991L111.335 76.3175L111.622 76.2453L111.938 76.1444L112.207 76.0627L112.523 75.9473L112.772 75.8559L113.088 75.7214L113.318 75.6252L113.634 75.4714L113.845 75.3656L114.161 75.1926L114.353 75.0868L114.669 74.8897L114.841 74.784L115.157 74.5677L115.311 74.4571L115.622 74.2168L115.761 74.1061C115.866 74.0244 115.967 73.9331 116.067 73.8466L116.192 73.736L116.494 73.4524L116.599 73.3466C116.7 73.2457 116.8 73.1447 116.896 73.039L116.987 72.9381C117.088 72.8275 117.184 72.7169 117.275 72.6015C117.303 72.5727 117.327 72.5391 117.356 72.5054C117.452 72.39 117.543 72.2699 117.634 72.1497C117.653 72.1173 117.676 72.0868 117.701 72.0584C117.792 71.9334 117.878 71.8036 117.964 71.6738L118.022 71.5872C118.113 71.4526 118.194 71.3181 118.276 71.1786C118.293 71.1541 118.309 71.1284 118.324 71.1017C118.405 70.9575 118.486 70.8133 118.563 70.6691L118.601 70.597C118.678 70.448 118.755 70.2942 118.827 70.1163L118.855 70.0538C118.927 69.8904 118.999 69.7317 119.066 69.5731V69.5202C119.138 69.352 119.2 69.1837 119.258 69.0106V68.9626C119.32 68.7895 119.377 68.6117 119.43 68.4338V68.3953C119.488 68.2127 119.535 68.0252 119.583 67.8377V67.8089L119.713 67.232C119.751 67.035 119.785 66.8331 119.818 66.6312C119.853 66.4293 119.882 66.2225 119.904 66.011C119.904 65.8043 119.947 65.588 119.962 65.3765C119.962 65.1602 119.962 64.9391 119.995 64.7179V36.6349L114.252 36.8368Z" fill="white"/>
<path d="M19.3661 65.5783C17.5348 65.5773 15.7526 64.9839 14.2839 63.8862L13.642 63.4055C13.1472 63.039 12.8177 62.4902 12.7261 61.8798C12.6345 61.2695 12.7882 60.6477 13.1534 60.1511C13.5186 59.6545 14.0655 59.3239 14.6737 59.2319C15.2818 59.14 15.9014 59.2942 16.3963 59.6608L17.0382 60.1415C17.4714 60.463 17.9653 60.6924 18.4899 60.8157C19.0145 60.9391 19.5587 60.9537 20.0891 60.8587C20.6195 60.7638 21.125 60.5613 21.5748 60.2635C22.0245 59.9658 22.409 59.5792 22.7048 59.1272L34.8092 40.6824C35.5829 39.5012 36.6342 38.5291 37.8704 37.8518C39.1067 37.1744 40.49 36.8126 41.8984 36.7982H41.999C43.3904 36.7969 44.7613 37.1349 45.9937 37.783C47.2261 38.4311 48.2832 39.37 49.0739 40.5189L56.805 51.7435C57.4612 52.7006 57.9188 53.7805 58.1502 54.9188C58.3816 56.0571 58.3821 57.2306 58.1519 58.3692C57.9217 59.5077 57.4654 60.5881 56.8102 61.5459C56.1549 62.5037 55.3142 63.3192 54.3382 63.9439C54.0812 64.1127 53.7934 64.2286 53.4915 64.2848C53.1895 64.341 52.8794 64.3365 52.5792 64.2714C52.279 64.2064 51.9947 64.0821 51.7427 63.9059C51.4908 63.7296 51.2763 63.5049 51.1116 63.2447C50.9469 62.9846 50.8353 62.6942 50.7834 62.3904C50.7315 62.0866 50.7403 61.7756 50.8092 61.4752C50.8781 61.1749 51.0058 60.8913 51.1848 60.6409C51.3639 60.3904 51.5907 60.1782 51.8521 60.0165C52.3027 59.7291 52.6909 59.3535 52.9936 58.9121C53.2962 58.4707 53.5071 57.9726 53.6135 57.4475C53.7199 56.9225 53.7197 56.3813 53.613 55.8564C53.5062 55.3314 53.2951 54.8334 52.9922 54.3922L45.2754 43.1676C44.9148 42.635 44.429 42.1997 43.8609 41.9004C43.2927 41.6011 42.6598 41.4469 42.0182 41.4515H41.9703C41.3207 41.4545 40.6821 41.6194 40.1119 41.9316C39.5416 42.2437 39.0577 42.6933 38.7035 43.2397L26.5943 61.6942C25.9552 62.6767 25.1215 63.5166 24.1449 64.1617C23.1684 64.8068 22.07 65.2432 20.9181 65.4437C20.4058 65.5346 19.8864 65.5796 19.3661 65.5783Z" fill="url(#paint0_radial_274_1052)"/>
<path d="M49.735 65.2899C48.359 65.2893 47.0031 64.9583 45.7806 64.3243C44.5581 63.6904 43.5046 62.7721 42.708 61.6461C42.3822 61.1411 42.2635 60.5293 42.3768 59.9385C42.4901 59.3478 42.8265 58.8238 43.3158 58.4762C43.805 58.1286 44.4092 57.9842 45.0021 58.0733C45.5949 58.1624 46.1306 58.478 46.4969 58.9542C47.0835 59.7866 47.9664 60.3611 48.9631 60.5588C49.9598 60.7566 50.9941 60.5624 51.8522 60.0165C52.1091 59.8477 52.3969 59.7319 52.6989 59.6756C53.0009 59.6194 53.3109 59.6239 53.6111 59.689C53.9113 59.754 54.1957 59.8783 54.4476 60.0545C54.6996 60.2308 54.9141 60.4555 55.0788 60.7156C55.2435 60.9758 55.355 61.2662 55.4069 61.57C55.4588 61.8737 55.45 62.1848 55.3811 62.4852C55.3122 62.7855 55.1845 63.0692 55.0055 63.3196C54.8265 63.57 54.5997 63.7822 54.3382 63.9439C52.9627 64.823 51.3658 65.2899 49.735 65.2899Z" fill="white"/>
<path d="M15.0167 63.8622C14.5219 63.8643 14.0397 63.7058 13.642 63.4103C11.8531 62.0917 10.6427 60.1288 10.2649 57.9338C9.88714 55.7388 10.3713 53.4822 11.6158 51.6378L19.1457 40.4228C19.9248 39.266 20.9712 38.3155 22.1957 37.6525C23.4202 36.9895 24.7863 36.6337 26.1775 36.6156H26.2781C27.6533 36.6169 29.0083 36.9484 30.2299 37.5822C31.4515 38.2161 32.5042 39.1341 33.3003 40.2594L46.4969 58.9542C46.8227 59.4592 46.9413 60.071 46.828 60.6617C46.7147 61.2525 46.3783 61.7764 45.8891 62.1241C45.3998 62.4717 44.7956 62.616 44.2028 62.527C43.6099 62.4379 43.0743 62.1223 42.708 61.6462L29.5162 42.9466C29.1451 42.4213 28.6527 41.9943 28.081 41.702C27.5094 41.4098 26.8756 41.261 26.2341 41.2686C25.5926 41.2762 24.9625 41.4398 24.3978 41.7454C23.8332 42.0511 23.3508 42.4897 22.9921 43.0235L15.4622 54.2336C14.8908 55.0867 14.6714 56.129 14.8501 57.1412C15.0287 58.1534 15.5916 59.0566 16.4202 59.6608C16.8123 59.9521 17.1029 60.3601 17.2505 60.8267C17.3981 61.2933 17.3952 61.7948 17.2424 62.2597C17.0896 62.7246 16.7945 63.1293 16.3992 63.4161C16.0039 63.703 15.5285 63.8574 15.0407 63.8574L15.0167 63.8622Z" fill="white"/>
<path d="M33.3674 65.5735H19.4092C18.7943 65.5735 18.2046 65.3284 17.7699 64.8921C17.3351 64.4557 17.0908 63.864 17.0908 63.2469C17.0908 62.6298 17.3351 62.0381 17.7699 61.6017C18.2046 61.1654 18.7943 60.9203 19.4092 60.9203H33.3913C34.0061 60.9203 34.5959 61.1654 35.0307 61.6017C35.4654 62.0381 35.7097 62.6298 35.7097 63.2469C35.7097 63.864 35.4654 64.4557 35.0307 64.8921C34.5959 65.3284 34.0061 65.5735 33.3913 65.5735H33.3674Z" fill="white"/>
</g>
<defs>
<radialGradient id="paint0_radial_274_1052" cx="0" cy="0" r="1" gradientUnits="userSpaceOnUse" gradientTransform="translate(32.7926 44.1915) scale(16.6406 16.6998)">
<stop stop-color="#212121"/>
<stop offset="0.09" stop-color="#494949"/>
<stop offset="0.21" stop-color="#797979"/>
<stop offset="0.33" stop-color="#A2A2A2"/>
<stop offset="0.46" stop-color="#C4C4C4"/>
<stop offset="0.58" stop-color="#DEDEDE"/>
<stop offset="0.71" stop-color="#F0F0F0"/>
<stop offset="0.85" stop-color="#FBFBFB"/>
<stop offset="1" stop-color="white"/>
</radialGradient>
<clipPath id="clip0_274_1052">
<rect width="120" height="77" fill="white"/>
</clipPath>
</defs>
</svg>
