<svg width="99" height="99" viewBox="0 0 99 99" fill="none" xmlns="http://www.w3.org/2000/svg">
<g clip-path="url(#clip0_274_1046)">
<path d="M81.3963 0H17.6037C7.88144 0 0 7.8901 0 17.623V81.377C0 91.1099 7.88144 99 17.6037 99H81.3963C91.1186 99 99 91.1099 99 81.377V17.623C99 7.8901 91.1186 0 81.3963 0Z" fill="#00AEEF"/>
<path d="M27.7983 71.0105C25.1274 71.0105 22.5275 70.149 20.3841 68.5536L19.4417 67.8591C18.7353 67.3192 18.2693 66.5229 18.1441 65.642C18.019 64.7612 18.2447 63.8664 18.7727 63.1507C19.3007 62.435 20.0886 61.9559 20.9664 61.8166C21.8442 61.6773 22.7415 61.8891 23.4647 62.4063L24.4019 63.1008C25.0346 63.5704 25.7564 63.9058 26.5231 64.0864C27.2897 64.267 28.0851 64.2891 28.8606 64.1513C29.6361 64.0135 30.3754 63.7187 31.0331 63.285C31.6909 62.8512 32.2533 62.2877 32.6859 61.6288L50.3466 34.7796C51.4769 33.059 53.0126 31.6433 54.8185 30.6572C56.6243 29.671 58.6447 29.1447 60.7017 29.1246H60.8415C62.8719 29.1229 64.8723 29.615 66.6707 30.5585C68.469 31.502 70.0115 32.8688 71.1655 34.5412L82.4526 50.8788C83.4138 52.2717 84.0838 53.8448 84.4222 55.5036C84.7607 57.1623 84.7607 58.8724 84.4221 60.5312C84.0836 62.1899 83.4135 63.763 82.4522 65.1559C81.4909 66.5487 80.2583 67.7327 78.8283 68.6366C78.4552 68.9185 78.0278 69.1199 77.5732 69.2284C77.1185 69.3368 76.6463 69.3498 76.1864 69.2666C75.7264 69.1834 75.2886 69.0057 74.9006 68.7448C74.5126 68.4839 74.1827 68.1455 73.9317 67.7507C73.6808 67.3559 73.5142 66.9134 73.4425 66.451C73.3708 65.9887 73.3954 65.5164 73.5149 65.064C73.6344 64.6117 73.8462 64.189 74.1369 63.8226C74.4276 63.4562 74.7909 63.154 75.204 62.935C75.8622 62.5176 76.4294 61.9714 76.8715 61.3291C77.3137 60.6868 77.6216 59.9617 77.7768 59.1973C77.932 58.4329 77.9314 57.645 77.7748 56.8809C77.6183 56.1168 77.3092 55.3922 76.866 54.7506L65.579 38.4182C65.0529 37.6427 64.3439 37.009 63.5149 36.5733C62.6858 36.1375 61.7623 35.9131 60.8259 35.9199H60.7534C59.8069 35.9216 58.8757 36.1594 58.044 36.6119C57.2123 37.0644 56.5064 37.7173 55.9901 38.5116L38.3295 65.3555C37.3975 66.7869 36.1808 68.0107 34.7556 68.9506C33.3303 69.8905 31.727 70.5264 30.0454 70.8187C29.3036 70.9497 28.5515 71.0139 27.7983 71.0105Z" fill="url(#paint0_radial_274_1046)"/>
<path d="M72.1077 70.5958C70.0993 70.5972 68.12 70.1159 66.336 69.1923C64.5521 68.2687 63.0157 66.9297 61.8561 65.2881C61.3768 64.5537 61.2006 63.6619 61.3644 62.8001C61.5283 61.9383 62.0196 61.1736 62.7349 60.6669C63.4503 60.1601 64.3341 59.9508 65.2004 60.0828C66.0667 60.2148 66.8482 60.678 67.3806 61.3748C68.235 62.5895 69.5234 63.4284 70.9789 63.7179C72.4344 64.0074 73.9454 63.7252 75.1987 62.9298C75.951 62.531 76.8259 62.4305 77.649 62.6484C78.472 62.8663 79.1828 63.3866 79.6399 64.1056C80.097 64.8247 80.2667 65.6897 80.1153 66.5284C79.9639 67.3671 79.5025 68.118 78.823 68.6314C76.8167 69.9123 74.4872 70.5937 72.1077 70.5958Z" fill="white"/>
<path d="M21.4507 68.5173C20.7279 68.5188 20.0238 68.2881 19.4418 67.8591C16.8333 65.9382 15.0691 63.0808 14.5189 59.8862C13.9687 56.6916 14.6753 53.4077 16.4906 50.7232L27.4722 34.4064C28.6078 32.7195 30.1353 31.3337 31.9236 30.3677C33.7118 29.4017 35.7075 28.8845 37.7393 28.8604H37.8843C39.8905 28.86 41.8674 29.3414 43.6494 30.264C45.4314 31.1866 46.9663 32.5236 48.1255 34.1628L67.3808 61.3748C67.8601 62.1093 68.0364 63.0011 67.8725 63.863C67.7086 64.7248 67.2173 65.4894 66.502 65.9961C65.7866 66.5028 64.9029 66.7122 64.0365 66.5802C63.1702 66.4482 62.3887 65.985 61.8563 65.2882L42.6062 38.0813C42.0657 37.3154 41.3474 36.6924 40.5131 36.266C39.6788 35.8395 38.7536 35.6223 37.8169 35.633C36.8802 35.6437 35.9601 35.882 35.1358 36.3275C34.3115 36.7729 33.6077 37.4122 33.0847 38.1902L22.1031 54.5122C21.266 55.7488 20.9402 57.2621 21.1941 58.7341C21.448 60.2062 22.2619 61.5224 23.4648 62.4063C24.036 62.8311 24.4591 63.4253 24.6738 64.1044C24.8886 64.7835 24.8842 65.5132 24.6612 66.1897C24.4382 66.8661 24.0081 67.4551 23.4318 67.8729C22.8555 68.2908 22.1623 68.5162 21.4507 68.5173Z" fill="white"/>
<path d="M48.2239 71.0104H27.8243C26.9498 70.9762 26.1225 70.6043 25.5159 69.9728C24.9093 69.3414 24.5706 68.4993 24.5706 67.6232C24.5706 66.7471 24.9093 65.905 25.5159 65.2735C26.1225 64.642 26.9498 64.2702 27.8243 64.236H48.2239C49.0983 64.2702 49.9255 64.642 50.5321 65.2735C51.1387 65.905 51.4776 66.7471 51.4776 67.6232C51.4776 68.4993 51.1387 69.3414 50.5321 69.9728C49.9255 70.6043 49.0983 70.9762 48.2239 71.0104Z" fill="white"/>
</g>
<defs>
<radialGradient id="paint0_radial_274_1046" cx="0" cy="0" r="1" gradientUnits="userSpaceOnUse" gradientTransform="translate(47.3902 39.8851) scale(24.2775 24.3043)">
<stop stop-color="#00AEEF"/>
<stop offset="0.03" stop-color="#11B3F0"/>
<stop offset="0.14" stop-color="#48C5F4"/>
<stop offset="0.26" stop-color="#79D4F7"/>
<stop offset="0.37" stop-color="#A2E1F9"/>
<stop offset="0.49" stop-color="#C4ECFB"/>
<stop offset="0.61" stop-color="#DEF4FD"/>
<stop offset="0.73" stop-color="#F0FAFE"/>
<stop offset="0.86" stop-color="#FBFEFF"/>
<stop offset="1" stop-color="white"/>
</radialGradient>
<clipPath id="clip0_274_1046">
<rect width="99" height="99" fill="white"/>
</clipPath>
</defs>
</svg>
