<svg width="182" height="56" viewBox="0 0 182 56" fill="none" xmlns="http://www.w3.org/2000/svg">
<g clip-path="url(#clip0_274_799)">
<path d="M60.7245 55.994C60.2387 55.992 59.7674 55.8266 59.3857 55.524C59.0039 55.2214 58.7334 54.7989 58.6173 54.3237L56.3246 44.6034L55.4506 44.7723L48.315 45.7733V45.5803H48.2252L44.837 38.2177L43.5918 38.5795L43.107 46.4184L43.2626 47.142L34.7501 49.2284L34.5765 48.4264L31.3739 42.9995L31.5654 48.7882L31.757 49.5239L31.5954 49.5661V49.6746L23.8851 51.6886L23.2865 49.8796L23.4601 51.1218L23.6397 51.7248L23.49 51.767L23.2326 51.8574L16.2107 54.0342L16.1269 53.9498L15.8456 54.0342L15.6899 53.5096L10.0868 47.8717L9.88925 47.9319L9.79345 47.5762L9.53605 47.3169L9.66776 47.124L8.34479 42.3844L7.9557 42.505L4.2143 40.4488L2.51418 34.3405L3.903 31.9285L1.43667 30.4934L0.0478516 25.5127L2.03529 21.8344L2.81949 21.5932L1.22117 16.305L3.01705 12.6267L9.54204 10.2147L11.8468 11.3665L13.2056 9.18358L20.024 7.79067L23.49 9.97954L24.1305 12.4759L23.5738 9.88307L25.9683 6.29525L33.487 4.99884L44.0588 3.09336L46.2857 4.6732L59.9702 2.32155L61.6583 3.52753L61.9577 3.09336L68.5904 1.52559L70.087 2.55669L80.0361 0.687422L82.9754 3.16572L85.5914 1.07335L92.3858 1.92355L94.9718 5.20987L94.7324 7.52535L95.8578 7.62788L98.5456 10.7695L98.2882 15.6236L95.2951 18.4576H93.613V18.5179L95.4088 18.6868L95.2292 22.0153L98.2224 22.1721L101.748 2.52655L104.849 0.0723572L115.421 0.675351L117.043 2.48433L119.114 1.13967L132.883 3.59386L135.307 6.98268L134.978 9.23787L138.24 7.13946L152.649 9.88307L153.912 11.7584L154.571 11.2941L161.323 12.2046L162.359 13.706L172.314 15.515L174.637 19.3199L174.589 19.4888L165.957 48.8968L165.687 49.0354L159.384 55.5719L159.276 55.9337L151.757 53.1539L151.793 53.0454H151.763L152.218 49.8254C151.62 51.2002 151.093 52.3157 151.021 52.5629V52.7258L150.847 52.8584C150.632 53.0092 150.5 53.1056 145.25 51.3208L143.496 50.8143V50.8987L143.341 50.8625L143.305 50.9891L142.778 50.7178L135.642 48.9088L135.714 48.5108L125.861 45.1703V45.0798L124.221 44.7783L121.269 54.1548C121.078 54.759 120.669 55.2689 120.122 55.5837C119.576 55.8986 118.932 55.9955 118.318 55.8553L110.368 54.0463C102.072 52.4001 95.6243 51.6765 89.5004 51.7127C83.1071 51.7489 76.2768 52.9549 70.2486 54.0162L68.5485 54.3116L61.1794 55.9337C61.0307 55.9717 60.878 55.9919 60.7245 55.994ZM56.9112 43.6929L59.3836 54.1247C59.4677 54.4766 59.6851 54.7814 59.9893 54.9741C60.2936 55.1668 60.6605 55.232 61.0118 55.1558L68.4168 53.5217L70.1349 53.2202C76.193 52.1529 83.0652 50.9409 89.5243 50.9047H89.9494C95.9775 50.9047 102.353 51.6343 110.536 53.2624L118.498 55.0714C118.92 55.1647 119.361 55.0966 119.736 54.8804C120.111 54.6642 120.393 54.3154 120.527 53.9016L123.682 43.8738L125.316 44.1813L125.382 43.7472L126.525 44.513L136.606 47.9259L136.54 48.2696L142.778 49.9037H142.862L143.053 48.9148L144.299 44.507L145.011 44.6939V45.0497L144.382 49.4334L144.221 50.1691L145.508 50.5429C148.782 51.6585 149.962 51.9901 150.381 52.0866C150.584 51.5499 151.141 50.2776 152.637 47.0878L152.781 46.7863L153.428 46.9732L153.386 47.3169L152.649 52.5026L152.787 52.5569L152.751 52.6594L158.905 54.9387L165.197 48.348L165.286 48.3058L173.769 19.3621L171.811 16.1542L161.88 14.3452L160.863 12.8619L154.751 12.084L153.697 12.8257L152.164 10.5645L138.396 7.93542L135.487 9.80468L134.068 15.4306L136.313 18.8978H134.936L134.655 18.8435V18.8978H132.781L133.302 15.3402L134.499 7.13946L132.446 4.27524L119.276 1.92959L116.882 3.46721L115.02 1.39291L105.071 0.789921L102.437 2.87629L98.8449 22.9138L94.4031 22.6726L94.5827 19.3199L92.7509 19.145L92.9186 17.5712L94.9958 17.6014L97.5459 15.1894L97.7734 10.9685L95.4866 8.33941L93.8883 8.18866L94.1757 5.40284L91.9847 2.62304L85.8368 1.8512L82.9814 4.14256L79.8386 1.48338L69.9254 3.34061L68.4468 2.32155L62.4605 3.73857L61.8619 4.58877L59.7906 3.10543L46.1001 5.46312L43.8732 3.88328L33.3135 5.78272L26.4353 6.98871L24.3999 10.0037L25.7708 16.4014L24.4717 15.6899L24.1664 15.7864L22.7956 10.4378L19.8623 8.58662L13.6786 9.8469L12.1221 12.3493L9.48818 11.0348L3.56777 13.2418L2.03529 16.3592L3.77128 22.0997L2.57403 22.4796L0.891897 25.585L2.08915 29.9507L4.95658 31.621L3.34029 34.443L4.86078 39.9121L8.02154 41.6488L8.86559 41.3834L10.4759 47.1541L16.4083 53.1358L22.6639 51.2002L21.9216 46.0084L22.6819 45.8215L24.3939 50.748L30.7992 49.0716V48.9691V48.8606L30.4939 40.8588L31.2961 41.3654L35.2949 48.1611V48.2938L42.2868 46.5812V46.5029L42.8136 38.0187L45.2081 37.3253L48.6143 44.7059L48.9256 44.6336L48.9615 44.9109L55.289 44.0246L56.9112 43.6929ZM133.859 16.6004L133.643 18.1139H133.996L134.044 17.933L134.822 18.0777L133.859 16.6004ZM92.0805 25.2895L92.2421 23.8665H93.6429L92.0805 25.2895ZM46.3994 17.0165L46.1001 15.2075L47.8002 16.4738L46.3994 17.0165Z" fill="white"/>
<path d="M178.031 10.3835C177.234 10.3728 176.451 10.601 175.783 11.0391C175.115 11.4772 174.591 12.1055 174.278 12.8442C173.965 13.583 173.876 14.3987 174.025 15.1879C174.173 15.9772 174.55 16.7043 175.11 17.2769C175.669 17.8495 176.384 18.2418 177.165 18.404C177.946 18.5661 178.757 18.4908 179.496 18.1876C180.234 17.8845 180.867 17.3671 181.312 16.7012C181.758 16.0353 181.998 15.2509 182 14.4477C182.005 13.3798 181.59 12.3533 180.847 11.592C180.103 10.8306 179.091 10.3963 178.031 10.3835ZM177.971 17.8606C177.297 17.8594 176.638 17.6566 176.078 17.2778C175.518 16.899 175.083 16.3612 174.827 15.7328C174.57 15.1043 174.505 14.4134 174.639 13.7476C174.773 13.0818 175.101 12.4711 175.58 11.9929C176.059 11.5146 176.668 11.1903 177.33 11.0612C177.992 10.932 178.677 11.0037 179.299 11.2673C179.921 11.5309 180.45 11.9744 180.822 12.5416C181.193 13.1089 181.388 13.7744 181.384 14.4537C181.376 15.3601 181.013 16.2266 180.374 16.8647C179.735 17.5027 178.871 17.8607 177.971 17.8606Z" fill="white"/>
<path d="M178.588 12.5664C177.989 12.5664 177.391 12.5664 176.792 12.5664H176.75V16.2989H177.349V15.0929H178.36C178.36 15.0929 178.402 15.093 178.414 15.1352C178.564 15.5211 178.719 15.9009 178.869 16.2869C178.869 16.3291 178.905 16.3472 178.953 16.3412H179.516C179.336 15.901 179.168 15.4668 178.995 15.0326H179.031C179.171 14.9828 179.299 14.9048 179.408 14.8035C179.627 14.6115 179.77 14.3458 179.809 14.0558C179.837 13.8773 179.826 13.6948 179.776 13.521C179.727 13.3473 179.641 13.1865 179.523 13.0498C179.406 12.9132 179.26 12.804 179.097 12.7299C178.933 12.6557 178.755 12.6185 178.576 12.6207L178.588 12.5664ZM178.839 14.3754C178.768 14.4015 178.693 14.4158 178.618 14.4176H177.361V13.1754H178.588C178.706 13.1704 178.824 13.2009 178.925 13.2632C179.026 13.3255 179.107 13.4166 179.156 13.5251C179.199 13.6014 179.225 13.6861 179.231 13.7733C179.238 13.8605 179.226 13.9482 179.196 14.0303C179.166 14.1123 179.118 14.1868 179.057 14.2485C178.995 14.3101 178.921 14.3575 178.839 14.3874V14.3754Z" fill="white"/>
<path d="M23.933 24.4393L25.0046 28.6603L28.0755 27.8764L29.3745 32.5496L26.2437 33.5204L28.3269 41.6548L21.9336 43.3733L19.9163 35.4319L17.396 36.2097L19.7307 43.9401L13.3852 45.8215L11.0805 38.1936L7.14757 39.3996L5.53727 33.6108L9.3984 32.622L8.14726 28.4734L4.36994 29.4381L3.06494 24.7649L6.65669 23.6434L4.19036 15.4849L10.4161 13.1694L12.9842 21.6837L16.121 20.7128L13.936 12.1684L20.4311 10.8478L22.4544 18.7471L25.274 17.8727L26.8843 23.6614L23.933 24.4393ZM17.5158 26.0795L14.5585 26.8392L15.8156 30.9878L18.5873 30.2763L17.5158 26.0795Z" fill="white"/>
<path d="M40.4551 39.1041L33.3733 40.8588L26.6448 9.32229L33.8283 8.07409L44.4299 6.16861L45.4596 12.3614L35.1333 14.2065L36.5341 20.7792L43.3344 18.8134L44.7412 24.6564L37.6654 26.0674L40.4551 39.1041Z" fill="white"/>
<path d="M65.3279 35.1786L58.743 35.8902L58.6832 35.5404L54.2294 36.3846L47.7343 37.2952L45.5493 19.8626L55.3787 16.1361L54.7382 12.3915L46.8543 13.9231L46.2018 7.82683L60.3413 5.41486L65.3279 35.1786ZM57.899 30.831L56.2228 21.0505L52.5113 22.2987L53.6188 30.8069L57.899 30.831Z" fill="white"/>
<path d="M80.4312 3.78076L80.3175 18.3129L74.3312 18.0777L74.4151 9.63581L69.9853 10.4137L73.3375 34.4731L66.9083 35.0158L62.8018 6.07213L69.1472 4.58875L69.3267 5.8611L80.4312 3.78076Z" fill="white"/>
<path d="M98.9109 25.3016L97.4083 33.5445L94.1698 33.6169L86.7109 33.7616L82.2631 33.846L84.2386 15.093L81.5986 15.0507L81.8979 9.43687L84.7953 9.71422L85.3939 4.18478L91.8591 4.99281L91.3084 10.3233L95.4328 10.7152L95.1874 15.2497L90.7995 15.1834L89.4227 28.196L94.4811 28.0875L94.6427 25.0725L98.9109 25.3016Z" fill="white"/>
<path d="M106.86 33.7314L99.2759 33.6591L104.747 3.15967L115.008 3.76266L114.343 19.2536C116.217 13.7784 118.653 4.22698 118.653 4.22698L132.134 6.63895L127.764 36.5716L120.084 35.1425L122.137 15.4849L114.439 32.2782L110.003 31.7114L109.919 16.2567L108.722 16.0698L106.86 33.7314Z" fill="white"/>
<path d="M146.238 42.5713L139.845 40.9372L139.911 40.5875L135.69 39.1523L129.531 37.066L131.985 21.2796L143.502 21.2434L144.197 17.5109L136.277 16.1783L137.774 10.2388L151.871 12.9221L146.238 42.5713ZM140.785 35.8841L142.581 26.1337L138.666 26.0011L136.792 34.3585L140.785 35.8841Z" fill="white"/>
<path d="M171.548 18.5481L162.964 47.7933L156.882 45.5441L164.137 21.9128L159.42 20.9962L154.11 44.712L147.908 42.903L154.272 14.3874L160.701 15.2557L160.419 16.51L171.548 18.5481Z" fill="white"/>
<path d="M63.604 49.4153C64.9449 49.1741 65.6213 49.0596 66.9623 48.8606C67.0999 49.7651 67.1718 50.2173 67.3095 51.1278C65.0467 51.4414 63.9153 51.6283 61.6524 52.0685H61.5088C60.5211 47.8476 60.0362 45.6888 59.0784 41.4257C61.4729 40.5996 62.6701 40.2197 65.1365 39.5262L65.765 41.7332C64.3582 42.1312 63.6578 42.3362 62.2571 42.7824C62.7898 45.4537 63.0592 46.7742 63.604 49.4153Z" fill="white"/>
<path d="M74.6367 49.5178C73.7028 49.759 73.2359 49.8856 72.308 50.1208C71.8232 47.2867 71.5777 45.8998 71.1108 43.0296L69.6202 43.4397C69.9375 46.2496 70.1051 47.6606 70.4463 50.4645C69.4286 50.5911 68.9198 50.6575 67.9081 50.8082C67.2496 46.2918 66.9324 44.0306 66.3337 39.5021C67.4352 39.1885 67.9859 39.0438 69.0934 38.7544C69.2191 39.9001 69.285 40.4729 69.4107 41.6246C70.9731 41.1664 71.7513 40.9493 73.3317 40.5453C73.8405 44.1451 74.1039 45.936 74.6367 49.5178Z" fill="white"/>
<path d="M82.2811 48.951C81.2395 49.0233 80.7246 49.0716 79.689 49.1741C79.6866 49.1279 79.6866 49.0816 79.689 49.0354C78.9826 49.0354 78.6294 49.0354 77.929 49.0897C76.8994 49.1259 76.3846 49.156 75.355 49.2163C74.9419 46.7259 74.7563 45.4838 74.3074 42.9934C75.9356 42.3482 76.7617 42.0407 78.4259 41.4558L78.1745 39.9965C76.8216 40.2377 76.1452 40.3764 74.8042 40.6598C74.6785 39.7071 74.6187 39.2368 74.4929 38.284C76.9533 37.8197 78.1865 37.6147 80.6708 37.277C81.3292 41.9442 81.6585 44.2778 82.2811 48.951ZM79.3658 47.1903C79.1143 45.6647 78.9826 44.8989 78.7252 43.3673C78.1266 43.5662 77.7974 43.6627 77.1868 43.8678C77.3663 45.1943 77.4621 45.8576 77.6417 47.1842L79.3658 47.1903Z" fill="white"/>
<path d="M84.9927 37.1866C85.0646 41.8236 85.1065 44.1391 85.1963 48.7761C84.1786 48.8183 83.6698 48.8485 82.6581 48.9208C82.4486 44.2175 82.3468 41.8658 82.1672 37.1625C83.2986 37.1625 83.8613 37.1625 84.9927 37.1866Z" fill="white"/>
<path d="M88.8539 37.0841C88.7761 41.7151 88.7462 44.0366 88.6923 48.6676C87.6747 48.6676 87.1658 48.6676 86.1422 48.7339C86.0883 44.0245 86.0644 41.6728 86.0344 36.9635C87.1658 36.9997 87.7046 37.0238 88.8539 37.0841Z" fill="white"/>
<path d="M92.3858 44.4406C92.3499 45.1341 92.3259 45.4838 92.29 46.1772C93.6429 46.2858 94.3134 46.3581 95.6603 46.5089C95.5585 47.4194 95.5106 47.8777 95.4089 48.7882C93.152 48.5048 92.0206 48.3962 89.7458 48.2334H89.5962C89.7339 43.8678 89.8117 41.6849 89.9793 37.3193C92.8707 37.1504 94.3253 37.1082 97.2347 37.1142C97.0431 40.2739 96.9473 41.8538 96.7618 45.0135C95.0198 44.7421 94.1458 44.6275 92.3858 44.4406ZM92.4936 42.6678C93.2418 42.7462 93.613 42.7884 94.3553 42.8788C94.4451 41.4799 94.487 40.7744 94.5768 39.3755C93.8225 39.3755 93.4394 39.4116 92.6851 39.4478C92.6073 40.7322 92.5654 41.3774 92.4936 42.6678Z" fill="white"/>
<path d="M105.466 37.88C104.867 42.3904 104.526 44.6456 103.909 49.156C102.939 49.156 102.455 49.1982 101.485 49.2465C101.922 45.4054 102.137 43.4879 102.58 39.6528C101.754 39.6528 101.341 39.6528 100.521 39.6528C100.473 43.4457 100.437 45.3451 100.347 49.144C99.3358 49.0595 98.8269 49.0234 97.8093 48.9631C97.8093 44.3984 97.8093 42.1131 97.7314 37.5484C98.8509 37.458 99.4136 37.4218 100.545 37.3554C100.545 37.5544 100.545 37.6569 100.545 37.8559C102.502 37.8439 103.49 37.8439 105.466 37.88Z" fill="white"/>
<path d="M113.709 39.2368C112.512 43.8014 111.961 46.0868 110.836 50.6575L110.632 50.6032C108.238 50.0002 107.04 49.6987 104.646 49.2103C104.837 48.3118 104.939 47.8656 105.131 46.9671C106.621 47.2867 107.358 47.4556 108.83 47.8234C108.944 47.3229 108.998 47.0696 109.112 46.5691C107.675 45.93 106.944 45.6164 105.472 45.0255C105.915 42.2216 106.142 40.8045 106.591 38.0187C107.651 38.278 108.178 38.4167 109.225 38.6941L110.812 39.1282L110.871 38.881C112.003 39.0136 112.572 39.086 113.709 39.2368ZM110.399 40.901L108.884 40.503L108.208 44.1692L109.531 44.6878L110.399 40.901Z" fill="white"/>
<path d="M115.553 47.335C115.367 48.0103 115.277 48.342 115.098 49.0173C116.403 49.4093 117.055 49.6203 118.348 50.0484C118.061 50.9228 117.923 51.3569 117.636 52.2252C115.469 51.4775 114.379 51.1278 112.17 50.4946L112.033 50.4524C113.062 46.2315 113.583 44.0909 114.643 39.8518C117.522 40.292 118.959 40.5573 121.826 41.1724C120.994 44.2235 120.581 45.7491 119.749 48.8063C118.079 48.1852 117.241 47.8897 115.553 47.335ZM116.014 45.6225C116.738 45.8577 117.097 45.9783 117.809 46.2255C118.187 44.8687 118.372 44.1934 118.743 42.8427C117.995 42.704 117.618 42.6377 116.864 42.511C116.522 43.7592 116.355 44.3803 116.014 45.6225Z" fill="white"/>
</g>
<defs>
<clipPath id="clip0_274_799">
<rect width="182" height="56" fill="white"/>
</clipPath>
</defs>
</svg>
