<svg width="171" height="58" viewBox="0 0 171 58" fill="none" xmlns="http://www.w3.org/2000/svg">
<g clip-path="url(#clip0_274_1030)">
<path d="M85.6258 0.21677C84.8491 0.206313 84.0868 0.437862 83.4361 0.882083C82.7854 1.3263 82.2755 1.96308 81.9713 2.71146C81.6671 3.45984 81.5823 4.28604 81.7277 5.085C81.8731 5.88396 82.2421 6.61962 82.7879 7.19844C83.3336 7.77727 84.0314 8.17313 84.7926 8.33569C85.5538 8.49825 86.3439 8.4202 87.0626 8.11142C87.7812 7.80263 88.396 7.27707 88.8287 6.60157C89.2614 5.92607 89.4924 5.13111 89.4925 4.31778C89.4926 3.2392 89.0868 2.20399 88.3631 1.4364C87.6393 0.668812 86.6559 0.230637 85.6258 0.21677ZM85.6706 7.76263C85.0119 7.78011 84.3631 7.59148 83.8073 7.2209C83.2515 6.85032 82.8138 6.31459 82.5504 5.68223C82.2869 5.04988 82.2095 4.34962 82.3281 3.67099C82.4468 2.99236 82.756 2.36623 83.2164 1.87258C83.6767 1.37893 84.2672 1.04019 84.9123 0.899747C85.5575 0.759307 86.228 0.823558 86.8381 1.08419C87.4482 1.34482 87.9702 1.79001 88.3374 2.36289C88.7046 2.93577 88.9003 3.61028 88.8994 4.30019C88.8982 5.20399 88.56 6.07158 87.957 6.71828C87.3539 7.36499 86.5336 7.73973 85.6706 7.76263Z" fill="#F9F9F9"/>
<path d="M86.5883 4.81576C86.753 4.72634 86.9055 4.61397 87.0415 4.48178C87.1635 4.31796 87.2497 4.12823 87.2941 3.92582C87.3386 3.72341 87.3402 3.51321 87.2989 3.31007C87.2881 3.07565 87.2013 2.85212 87.0527 2.67636C86.9042 2.5006 86.7029 2.38319 86.4819 2.34346C86.2751 2.28702 86.0632 2.25361 85.8496 2.24384C85.29 2.24384 84.7808 2.24384 84.2436 2.24384H84.1709V6.34485H84.8256V4.95636C85.0886 4.95636 85.3348 4.95636 85.5866 4.95636C85.6201 4.95457 85.6534 4.96231 85.6829 4.97882C85.7125 4.99533 85.7372 5.02002 85.7545 5.05012C86.0287 5.45436 86.3141 5.85857 86.5771 6.26282C86.6084 6.30748 86.6541 6.33872 86.7057 6.35071H87.4892L86.4595 4.85674C86.5037 4.84808 86.5469 4.83436 86.5883 4.81576ZM86.0902 4.29434C85.6817 4.34707 85.2621 4.34121 84.8312 4.36464V2.8824C85.2565 2.8824 85.6817 2.88244 86.107 2.92345C86.1776 2.92382 86.2474 2.93971 86.3118 2.97015C86.3762 3.0006 86.4338 3.04491 86.4807 3.10017C86.5277 3.15542 86.5631 3.22041 86.5845 3.2909C86.6059 3.36139 86.6129 3.4358 86.605 3.50931C86.6077 3.54832 86.6077 3.58745 86.605 3.62645C86.616 3.70617 86.6111 3.78744 86.5908 3.8651C86.5704 3.94277 86.5349 4.01519 86.4866 4.07786C86.4383 4.14054 86.3782 4.19208 86.31 4.22933C86.2418 4.26658 86.167 4.28872 86.0902 4.29434Z" fill="#F9F9F9"/>
<path d="M13.6592 6.39192C13.6343 6.22388 13.548 6.07257 13.4185 5.96983C13.2891 5.8671 13.1266 5.82101 12.9653 5.84125H8.10264C7.94137 5.82101 7.7789 5.8671 7.64946 5.96983C7.52002 6.07257 7.43373 6.22388 7.40878 6.39192V20.6986C7.43503 20.866 7.52165 21.0164 7.65076 21.1189C7.77987 21.2214 7.94162 21.2681 8.10264 21.2494H12.9653C13.1264 21.2681 13.2881 21.2214 13.4172 21.1189C13.5463 21.0164 13.633 20.866 13.6592 20.6986V16.4687H10.1842V10.6101H17.6769C18.5798 10.6101 19.4457 10.9852 20.0846 11.6531C20.7236 12.3209 21.0833 13.2269 21.0848 14.1721V24.3368C21.0848 25.8483 19.5179 27.0786 17.6098 27.0786H3.47496C1.56122 27.0786 0 25.8483 0 24.3368V2.72444C0 1.21878 1.56122 -0.0114746 3.47496 -0.0114746H17.593C19.5011 -0.0114746 21.0679 1.21878 21.0679 2.72444V7.99717H13.6592V6.39192Z" fill="#F9F9F9"/>
<path d="M32.1194 4.69273L35.2419 10.7094L38.3643 4.69273V0.00585938H45.773V5.86445L38.9406 19.0169V27.1193H31.5375V19.0169L24.7107 5.87031V0.0117237H32.1194V4.69273Z" fill="#F9F9F9"/>
<path d="M49.416 0H56.8472L63.646 12.4319L70.4392 0H77.8815V27.0901H70.484V14.5937L63.6572 27.0901L56.8472 14.5937V27.0901H49.416V0Z" fill="#F9F9F9"/>
<path d="M6.8268 36.7568H0V30.8982H21.068V36.7568H14.2355V58H6.8268V36.7568Z" fill="#F9F9F9"/>
<path d="M32.1194 50.8642V58H24.7107V30.9099H42.2981C44.2062 30.9099 45.7674 32.146 45.7674 33.6517V48.1224C45.7674 49.6281 44.2062 50.8642 42.2981 50.8642H41.8336L42.2533 51.6259C42.3397 51.7899 42.4671 51.9261 42.6219 52.0201C42.7767 52.114 42.953 52.162 43.1318 52.1589H45.7674V58.0175H38.3811C38.0244 58.0211 37.6734 57.9247 37.3644 57.7382C37.0555 57.5517 36.7998 57.282 36.624 56.9572L34.2794 52.7038L33.5687 51.4091C33.4812 51.2466 33.3533 51.1118 33.1987 51.019C33.0441 50.9262 32.8684 50.8788 32.6902 50.8818L32.1194 50.8642ZM37.4466 45.0056H37.6704C37.8314 45.0244 37.9932 44.9777 38.1223 44.8753C38.2514 44.7728 38.338 44.6223 38.3643 44.455V37.2841C38.3643 36.9853 38.0565 36.7392 37.6704 36.7392H32.1194V45.0056H37.4466Z" fill="#F9F9F9"/>
<path d="M56.8472 50.8642V58H49.416V33.6634C49.416 32.1578 50.9828 30.9216 52.891 30.9216H67.009C68.9227 30.9216 70.484 32.1578 70.484 33.6634V58.0117H63.0752V50.8759L56.8472 50.8642ZM63.0976 45.0056V37.2841C63.0976 36.9853 62.7842 36.7392 62.4037 36.7392H57.5187C57.1382 36.7392 56.8248 36.9853 56.8248 37.2841V45.0056H63.0976Z" fill="#F9F9F9"/>
<path d="M74.1267 33.6634C74.1267 32.1578 75.6879 30.9216 77.6017 30.9216H91.7197C93.6278 30.9216 95.1891 32.1578 95.1891 33.6634V41.1507H87.7859V37.3133C87.7859 37.0145 87.4725 36.7685 87.092 36.7685H82.2293C81.8488 36.7685 81.5355 37.0145 81.5355 37.3133V51.62C81.5604 51.788 81.6467 51.9394 81.7761 52.0421C81.9056 52.1448 82.068 52.1909 82.2293 52.1707H87.092C87.2533 52.1909 87.4158 52.1448 87.5452 52.0421C87.6746 51.9394 87.7609 51.788 87.7859 51.62V47.7885H95.1891V55.2758C95.1891 56.7814 93.6278 58.0117 91.7197 58.0117H77.6017C75.6879 58.0117 74.1267 56.7814 74.1267 55.2758V33.6634Z" fill="#F9F9F9"/>
<path d="M106.246 50.8642V58H98.8149V30.9099H106.224V43.1426L112.967 30.9099H121.522L114.052 44.455L114.942 46.0719L117.997 51.6141C118.084 51.7773 118.212 51.9129 118.367 52.0067C118.521 52.1005 118.697 52.1491 118.876 52.1473H121.517V58.0059H114.13C113.774 58.0088 113.423 57.912 113.114 57.7256C112.805 57.5392 112.55 57.2699 112.373 56.9454L110.029 52.6921L109.318 51.3974C109.232 51.2349 109.105 51.1 108.951 51.0071C108.798 50.9142 108.623 50.8669 108.445 50.8701H106.207L106.246 50.8642Z" fill="#F9F9F9"/>
<path d="M134.023 52.1589H146.289V58.0175H125.227V30.9099H146.289V36.7685H132.636V41.5491H144.901V47.4076H132.636V52.1883L134.023 52.1589Z" fill="#F9F9F9"/>
<path d="M157.341 50.8642V58H149.938V30.9099H167.525C169.439 30.9099 171 32.146 171 33.6517V48.1224C171 49.6281 169.439 50.8642 167.525 50.8642H167.083L167.503 51.6259C167.589 51.7899 167.717 51.9261 167.871 52.0201C168.026 52.114 168.202 52.162 168.381 52.1589H171V58.0175H163.614C163.258 58.0206 162.908 57.9239 162.6 57.7375C162.292 57.551 162.037 57.2816 161.862 56.9572L159.518 52.7038L158.807 51.4091C158.719 51.247 158.591 51.1126 158.437 51.0198C158.282 50.9271 158.107 50.8794 157.928 50.8818L157.341 50.8642ZM162.674 45.0056H162.897C163.059 45.0244 163.22 44.9777 163.349 44.8753C163.478 44.7728 163.565 44.6223 163.591 44.455V37.2841C163.591 36.9853 163.278 36.7392 162.897 36.7392H157.341V45.0056H162.674Z" fill="#F9F9F9"/>
</g>
<defs>
<clipPath id="clip0_274_1030">
<rect width="171" height="58" fill="white"/>
</clipPath>
</defs>
</svg>
