<svg width="98" height="98" viewBox="0 0 98 98" fill="none" xmlns="http://www.w3.org/2000/svg">
<g clip-path="url(#clip0_274_1027)">
<path d="M82.1569 0H15.8431C7.09321 0 0 7.09321 0 15.8431V82.1569C0 90.9068 7.09321 98 15.8431 98H82.1569C90.9068 98 98 90.9068 98 82.1569V15.8431C98 7.09321 90.9068 0 82.1569 0Z" fill="#39FF60"/>
<path d="M44.5308 29.35C44.4943 29.2613 44.4683 29.1779 44.4265 29.0997C44.3116 28.9135 44.2483 28.7001 44.2433 28.4814C44.2382 28.2627 44.2916 28.0465 44.3978 27.8553C44.5041 27.6641 44.6594 27.5046 44.8478 27.3933C45.0361 27.2821 45.2508 27.223 45.4695 27.2223C46.0901 27.2223 46.7107 27.2223 47.3313 27.2223H52.2229C53.5058 27.2223 54.043 28.1088 53.4485 29.2457C53.4437 29.2838 53.4437 29.3223 53.4485 29.3604C54.3339 29.3155 55.2102 29.5571 55.9476 30.0493C56.6849 30.5415 57.2441 31.2581 57.5422 32.093H40.4788C40.8282 30.5338 42.3197 29.5429 44.5308 29.35ZM45.1358 41.3444H34.8831V33.3342H75.6382V28.9171C75.6382 26.2892 74.5943 23.769 72.7361 21.9108C70.8779 20.0526 68.3576 19.0087 65.7298 19.0087H32.2495C29.6216 19.0087 27.1014 20.0526 25.2432 21.9108C23.385 23.769 22.3411 26.2892 22.3411 28.9171V69.0412C22.3411 71.6691 23.385 74.1894 25.2432 76.0476C27.1014 77.9058 29.6216 78.9497 32.2495 78.9497H65.7454C68.3733 78.9497 70.8935 77.9058 72.7517 76.0476C74.6099 74.1894 75.6539 71.6691 75.6539 69.0412V46.7367C75.6539 45.2997 75.083 43.9215 74.0669 42.9054C73.0507 41.8892 71.6725 41.3184 70.2355 41.3184H52.8227V55.3675H45.1358V41.3184V41.3444ZM53.4328 68.6553C53.4798 68.7596 53.5163 68.8483 53.5632 68.9317C53.6719 69.1169 53.7301 69.3273 53.7319 69.5421C53.7337 69.7568 53.6791 69.9682 53.5735 70.1552C53.4678 70.3421 53.3149 70.4981 53.1301 70.6074C52.9452 70.7166 52.7349 70.7754 52.5202 70.7778C50.163 70.8022 47.8041 70.8022 45.4435 70.7778C45.2242 70.7799 45.0083 70.7228 44.8187 70.6126C44.6291 70.5023 44.4727 70.343 44.366 70.1514C44.2593 69.9598 44.2061 69.743 44.2122 69.5238C44.2183 69.3046 44.2833 69.091 44.4005 68.9056L44.5308 68.6605C42.278 68.4519 40.8386 67.4819 40.4475 65.9174H57.4536C57.198 67.3985 55.6127 68.478 53.4328 68.6501V68.6553ZM63.1066 64.1443V64.6658H34.8935V56.6608C35.0448 56.6608 35.1908 56.6608 35.3316 56.6608C44.4265 56.6608 53.518 56.6608 62.606 56.6608C63.0336 56.6608 63.1275 56.786 63.1275 57.1823C63.0962 59.4717 63.1066 61.808 63.1066 64.1391V64.1443Z" fill="#011F35"/>
</g>
<defs>
<clipPath id="clip0_274_1027">
<rect width="98" height="98" fill="white"/>
</clipPath>
</defs>
</svg>
